M48
;DRILL file {KiCad 4.0.7} date 06/29/18 00:16:56
;FORMAT={3:3/ absolute / metric / suppress leading zeros}
FMAT,2
METRIC,TZ
T1C0.400
T2C1.650
%
G90
G05
M71
T1
X151000Y-90250
X152527Y-86750
X152750Y-85000
X153700Y-90700
X153727Y-89387
X158182Y-88086
X159250Y-71250
X160200Y-91000
X160400Y-92500
X160955Y-83655
X162250Y-85000
X166750Y-72250
X169000Y-80250
X169750Y-80250
X170500Y-80250
X170500Y-84000
X170900Y-88000
X171500Y-75750
X173250Y-77500
X173500Y-93400
X174000Y-79200
X174000Y-87000
X174000Y-90500
X175500Y-80250
X176400Y-78200
X176500Y-86000
X177800Y-85900
X182600Y-91800
X186200Y-77400
X187000Y-77400
X187800Y-77400
T2
X153210Y-82115
X153210Y-92885
T0
M30
