G04 #@! TF.FileFunction,Copper,L2,Bot,Mixed*
%FSLAX46Y46*%
G04 Gerber Fmt 4.6, Leading zero omitted, Abs format (unit mm)*
G04 Created by KiCad (PCBNEW 4.0.7) date 06/29/18 00:15:07*
%MOMM*%
%LPD*%
G01*
G04 APERTURE LIST*
%ADD10C,0.100000*%
%ADD11C,0.600000*%
%ADD12C,0.800000*%
%ADD13C,0.400000*%
%ADD14C,0.600000*%
%ADD15C,0.254000*%
G04 APERTURE END LIST*
D10*
D11*
X186200000Y-77400000D03*
X187800000Y-77400000D03*
X169000000Y-80250000D03*
X169750000Y-80250000D03*
X173500000Y-93400000D03*
X170900000Y-88000000D03*
X187000000Y-77400000D03*
X182600000Y-91800000D03*
X170500000Y-80250000D03*
X160954634Y-83654960D03*
X162250000Y-85000000D03*
X166750000Y-72250000D03*
X158181933Y-88085711D03*
X177800000Y-85900000D03*
X174000000Y-90500000D03*
X152750000Y-85000000D03*
X174000000Y-79200000D03*
X170500000Y-84000000D03*
X175500000Y-80250000D03*
X151000000Y-90250000D03*
X159250000Y-71250000D03*
X152527032Y-86750000D03*
X176400000Y-78200000D03*
X160200000Y-91000000D03*
X153727402Y-89387123D03*
X153700000Y-90700000D03*
X160400000Y-92500000D03*
X173250000Y-77500000D03*
X171500000Y-75750000D03*
X176500000Y-86000000D03*
X174000000Y-87000000D03*
D12*
X158181933Y-86427661D02*
X160654635Y-83954959D01*
X158181933Y-88085711D02*
X158181933Y-86427661D01*
X160654635Y-83954959D02*
X160954634Y-83654960D01*
D13*
X177199990Y-86800010D02*
X177800000Y-86200000D01*
X177800000Y-86200000D02*
X177800000Y-85900000D01*
D14*
X175000000Y-87500000D02*
X175699990Y-86800010D01*
X175699990Y-86800010D02*
X177199990Y-86800010D01*
X175000000Y-88500000D02*
X175000000Y-87500000D01*
X175000000Y-89500000D02*
X175000000Y-88500000D01*
X174000000Y-90500000D02*
X175000000Y-89500000D01*
D13*
X156150000Y-81800000D02*
X155950000Y-81800000D01*
X155950000Y-81800000D02*
X152750000Y-85000000D01*
X158500000Y-81800000D02*
X157250000Y-81800000D01*
X171400000Y-81800000D02*
X158500000Y-81800000D01*
X158500000Y-81800000D02*
X156150000Y-81800000D01*
X157250000Y-81800000D02*
X156838002Y-81800000D01*
X174000000Y-79200000D02*
X171400000Y-81800000D01*
X170500000Y-84000000D02*
X170799999Y-83700001D01*
X170799999Y-83700001D02*
X171971757Y-83700001D01*
X171971757Y-83700001D02*
X172010878Y-83739122D01*
X175500000Y-80250000D02*
X172010878Y-83739122D01*
D12*
X152500000Y-71250000D02*
X151000000Y-72750000D01*
X151000000Y-72750000D02*
X151000000Y-90250000D01*
X159250000Y-71250000D02*
X152500000Y-71250000D01*
D13*
X171899493Y-82700507D02*
X158500000Y-82700507D01*
X158500000Y-82700507D02*
X156576525Y-82700507D01*
X156576525Y-82700507D02*
X152527032Y-86750000D01*
X176400000Y-78200000D02*
X171899493Y-82700507D01*
X158337124Y-89387123D02*
X158587123Y-89387123D01*
X158587123Y-89387123D02*
X160200000Y-91000000D01*
X153727402Y-89387123D02*
X158337124Y-89387123D01*
X153700000Y-90700000D02*
X158600000Y-90700000D01*
X158600000Y-90700000D02*
X160400000Y-92500000D01*
X171500000Y-75750000D02*
X173250000Y-77500000D01*
D14*
X176075736Y-86000000D02*
X176500000Y-86000000D01*
X175000000Y-86000000D02*
X176075736Y-86000000D01*
X174000000Y-87000000D02*
X175000000Y-86000000D01*
D15*
G36*
X189873000Y-93873000D02*
X168877000Y-93873000D01*
X168877000Y-89500000D01*
X168866994Y-89450590D01*
X168838553Y-89408965D01*
X168796159Y-89381685D01*
X168750000Y-89373000D01*
X160877000Y-89373000D01*
X160877000Y-87124171D01*
X173372891Y-87124171D01*
X173468145Y-87354703D01*
X173644369Y-87531235D01*
X173874735Y-87626891D01*
X174124171Y-87627109D01*
X174354703Y-87531855D01*
X174373000Y-87513590D01*
X174373000Y-89240288D01*
X173557031Y-90056257D01*
X173468765Y-90144369D01*
X173373109Y-90374735D01*
X173372891Y-90624171D01*
X173468145Y-90854703D01*
X173644369Y-91031235D01*
X173874735Y-91126891D01*
X174124171Y-91127109D01*
X174354703Y-91031855D01*
X174531235Y-90855631D01*
X174531344Y-90855368D01*
X175443356Y-89943356D01*
X175579273Y-89739942D01*
X175627000Y-89500000D01*
X175627000Y-87759712D01*
X175959702Y-87427010D01*
X177199990Y-87427010D01*
X177439933Y-87379282D01*
X177643346Y-87243366D01*
X177779262Y-87039953D01*
X177797618Y-86947672D01*
X178172645Y-86572645D01*
X178286885Y-86401675D01*
X178312143Y-86274690D01*
X178331235Y-86255631D01*
X178426891Y-86025265D01*
X178427109Y-85775829D01*
X178331855Y-85545297D01*
X178155631Y-85368765D01*
X177925265Y-85273109D01*
X177675829Y-85272891D01*
X177445297Y-85368145D01*
X177268765Y-85544369D01*
X177173109Y-85774735D01*
X177172891Y-86024171D01*
X177189746Y-86064964D01*
X177125077Y-86129633D01*
X177126891Y-86125265D01*
X177127109Y-85875829D01*
X177031855Y-85645297D01*
X176855631Y-85468765D01*
X176625265Y-85373109D01*
X176375829Y-85372891D01*
X176375565Y-85373000D01*
X175000000Y-85373000D01*
X174760058Y-85420727D01*
X174556644Y-85556644D01*
X173557031Y-86556257D01*
X173468765Y-86644369D01*
X173373109Y-86874735D01*
X173372891Y-87124171D01*
X160877000Y-87124171D01*
X160877000Y-84877000D01*
X177000000Y-84877000D01*
X177049410Y-84866994D01*
X177091035Y-84838553D01*
X177118315Y-84796159D01*
X177127000Y-84750000D01*
X177127000Y-77250000D01*
X177116994Y-77200590D01*
X177088553Y-77158965D01*
X177046159Y-77131685D01*
X177000000Y-77123000D01*
X175000000Y-77123000D01*
X174950590Y-77133006D01*
X174910197Y-77160197D01*
X171197394Y-80873000D01*
X151877000Y-80873000D01*
X151877000Y-75874171D01*
X170872891Y-75874171D01*
X170968145Y-76104703D01*
X171144369Y-76281235D01*
X171374735Y-76376891D01*
X171381607Y-76376897D01*
X172622896Y-77618186D01*
X172622891Y-77624171D01*
X172718145Y-77854703D01*
X172894369Y-78031235D01*
X173124735Y-78126891D01*
X173374171Y-78127109D01*
X173604703Y-78031855D01*
X173781235Y-77855631D01*
X173876891Y-77625265D01*
X173877109Y-77375829D01*
X173781855Y-77145297D01*
X173605631Y-76968765D01*
X173375265Y-76873109D01*
X173368393Y-76873103D01*
X172127104Y-75631814D01*
X172127109Y-75625829D01*
X172031855Y-75395297D01*
X171855631Y-75218765D01*
X171625265Y-75123109D01*
X171375829Y-75122891D01*
X171145297Y-75218145D01*
X170968765Y-75394369D01*
X170873109Y-75624735D01*
X170872891Y-75874171D01*
X151877000Y-75874171D01*
X151877000Y-72901134D01*
X152801133Y-71977000D01*
X159250000Y-71977000D01*
X159528211Y-71921660D01*
X159764067Y-71764067D01*
X159921660Y-71528211D01*
X159977000Y-71250000D01*
X159921660Y-70971789D01*
X159858324Y-70877000D01*
X189873000Y-70877000D01*
X189873000Y-93873000D01*
X189873000Y-93873000D01*
G37*
X189873000Y-93873000D02*
X168877000Y-93873000D01*
X168877000Y-89500000D01*
X168866994Y-89450590D01*
X168838553Y-89408965D01*
X168796159Y-89381685D01*
X168750000Y-89373000D01*
X160877000Y-89373000D01*
X160877000Y-87124171D01*
X173372891Y-87124171D01*
X173468145Y-87354703D01*
X173644369Y-87531235D01*
X173874735Y-87626891D01*
X174124171Y-87627109D01*
X174354703Y-87531855D01*
X174373000Y-87513590D01*
X174373000Y-89240288D01*
X173557031Y-90056257D01*
X173468765Y-90144369D01*
X173373109Y-90374735D01*
X173372891Y-90624171D01*
X173468145Y-90854703D01*
X173644369Y-91031235D01*
X173874735Y-91126891D01*
X174124171Y-91127109D01*
X174354703Y-91031855D01*
X174531235Y-90855631D01*
X174531344Y-90855368D01*
X175443356Y-89943356D01*
X175579273Y-89739942D01*
X175627000Y-89500000D01*
X175627000Y-87759712D01*
X175959702Y-87427010D01*
X177199990Y-87427010D01*
X177439933Y-87379282D01*
X177643346Y-87243366D01*
X177779262Y-87039953D01*
X177797618Y-86947672D01*
X178172645Y-86572645D01*
X178286885Y-86401675D01*
X178312143Y-86274690D01*
X178331235Y-86255631D01*
X178426891Y-86025265D01*
X178427109Y-85775829D01*
X178331855Y-85545297D01*
X178155631Y-85368765D01*
X177925265Y-85273109D01*
X177675829Y-85272891D01*
X177445297Y-85368145D01*
X177268765Y-85544369D01*
X177173109Y-85774735D01*
X177172891Y-86024171D01*
X177189746Y-86064964D01*
X177125077Y-86129633D01*
X177126891Y-86125265D01*
X177127109Y-85875829D01*
X177031855Y-85645297D01*
X176855631Y-85468765D01*
X176625265Y-85373109D01*
X176375829Y-85372891D01*
X176375565Y-85373000D01*
X175000000Y-85373000D01*
X174760058Y-85420727D01*
X174556644Y-85556644D01*
X173557031Y-86556257D01*
X173468765Y-86644369D01*
X173373109Y-86874735D01*
X173372891Y-87124171D01*
X160877000Y-87124171D01*
X160877000Y-84877000D01*
X177000000Y-84877000D01*
X177049410Y-84866994D01*
X177091035Y-84838553D01*
X177118315Y-84796159D01*
X177127000Y-84750000D01*
X177127000Y-77250000D01*
X177116994Y-77200590D01*
X177088553Y-77158965D01*
X177046159Y-77131685D01*
X177000000Y-77123000D01*
X175000000Y-77123000D01*
X174950590Y-77133006D01*
X174910197Y-77160197D01*
X171197394Y-80873000D01*
X151877000Y-80873000D01*
X151877000Y-75874171D01*
X170872891Y-75874171D01*
X170968145Y-76104703D01*
X171144369Y-76281235D01*
X171374735Y-76376891D01*
X171381607Y-76376897D01*
X172622896Y-77618186D01*
X172622891Y-77624171D01*
X172718145Y-77854703D01*
X172894369Y-78031235D01*
X173124735Y-78126891D01*
X173374171Y-78127109D01*
X173604703Y-78031855D01*
X173781235Y-77855631D01*
X173876891Y-77625265D01*
X173877109Y-77375829D01*
X173781855Y-77145297D01*
X173605631Y-76968765D01*
X173375265Y-76873109D01*
X173368393Y-76873103D01*
X172127104Y-75631814D01*
X172127109Y-75625829D01*
X172031855Y-75395297D01*
X171855631Y-75218765D01*
X171625265Y-75123109D01*
X171375829Y-75122891D01*
X171145297Y-75218145D01*
X170968765Y-75394369D01*
X170873109Y-75624735D01*
X170872891Y-75874171D01*
X151877000Y-75874171D01*
X151877000Y-72901134D01*
X152801133Y-71977000D01*
X159250000Y-71977000D01*
X159528211Y-71921660D01*
X159764067Y-71764067D01*
X159921660Y-71528211D01*
X159977000Y-71250000D01*
X159921660Y-70971789D01*
X159858324Y-70877000D01*
X189873000Y-70877000D01*
X189873000Y-93873000D01*
M02*
