G04 #@! TF.FileFunction,Soldermask,Top*
%FSLAX46Y46*%
G04 Gerber Fmt 4.6, Leading zero omitted, Abs format (unit mm)*
G04 Created by KiCad (PCBNEW 4.0.7) date 06/29/18 00:15:07*
%MOMM*%
%LPD*%
G01*
G04 APERTURE LIST*
%ADD10C,0.100000*%
%ADD11R,1.250000X1.500000*%
%ADD12R,0.600000X1.500000*%
%ADD13R,1.600000X2.000000*%
%ADD14R,2.000000X1.600000*%
%ADD15R,2.500000X4.000000*%
%ADD16R,1.900000X0.800000*%
%ADD17R,0.900000X1.200000*%
%ADD18R,0.800000X0.800000*%
%ADD19R,2.700000X1.200000*%
%ADD20R,1.500000X1.300000*%
%ADD21R,2.000000X1.700000*%
%ADD22R,1.300000X1.500000*%
G04 APERTURE END LIST*
D10*
D11*
X189100000Y-76150000D03*
X189100000Y-73650000D03*
D12*
X172755000Y-83950000D03*
X174025000Y-83950000D03*
X175295000Y-83950000D03*
X176565000Y-83950000D03*
X177835000Y-83950000D03*
X179105000Y-83950000D03*
X180375000Y-83950000D03*
X181645000Y-83950000D03*
X181645000Y-74650000D03*
X180375000Y-74650000D03*
X179105000Y-74650000D03*
X177835000Y-74650000D03*
X176565000Y-74650000D03*
X175295000Y-74650000D03*
X174025000Y-74650000D03*
X172755000Y-74650000D03*
D13*
X184512000Y-87528000D03*
X184512000Y-91528000D03*
D11*
X179500000Y-90000000D03*
X179500000Y-87500000D03*
X175500000Y-87500000D03*
X175500000Y-90000000D03*
X189100000Y-82750000D03*
X189100000Y-80250000D03*
X185100000Y-82750000D03*
X185100000Y-80250000D03*
D14*
X165750000Y-86500000D03*
X161750000Y-86500000D03*
D11*
X187100000Y-76150000D03*
X187100000Y-73650000D03*
D13*
X170200000Y-77700000D03*
X170200000Y-81700000D03*
D15*
X164600000Y-76754000D03*
X164600000Y-82854000D03*
D16*
X172000000Y-93950000D03*
X172000000Y-92050000D03*
X169000000Y-93000000D03*
X172000000Y-88950000D03*
X172000000Y-87050000D03*
X169000000Y-88000000D03*
D17*
X171250000Y-72300000D03*
X167950000Y-72300000D03*
D18*
X156480000Y-90678100D03*
X156480000Y-89408100D03*
X156480000Y-88138100D03*
X156480000Y-86868100D03*
X156480000Y-85598100D03*
X156480000Y-84328100D03*
X155500000Y-84328100D03*
X155500000Y-85598100D03*
X155500000Y-86868100D03*
X155500000Y-88138100D03*
X155500000Y-89408100D03*
X155500000Y-90678100D03*
D19*
X150760000Y-81818100D03*
X155660000Y-81818100D03*
X155660000Y-93181900D03*
X150760000Y-93181900D03*
D20*
X164350000Y-94000000D03*
X161650000Y-94000000D03*
D21*
X150500000Y-78500000D03*
X154500000Y-78500000D03*
X154500000Y-73500000D03*
X150500000Y-73500000D03*
D22*
X182226000Y-87543000D03*
X182226000Y-90243000D03*
X177500000Y-90100000D03*
X177500000Y-87400000D03*
D20*
X164350000Y-92500000D03*
X161650000Y-92500000D03*
D22*
X187100000Y-82850000D03*
X187100000Y-80150000D03*
D20*
X161650000Y-91000000D03*
X164350000Y-91000000D03*
X161650000Y-88800000D03*
X164350000Y-88800000D03*
D22*
X185100000Y-73650000D03*
X185100000Y-76350000D03*
M02*
