G04 #@! TF.FileFunction,Copper,L3,Inr,Plane*
%FSLAX46Y46*%
G04 Gerber Fmt 4.6, Leading zero omitted, Abs format (unit mm)*
G04 Created by KiCad (PCBNEW 4.0.7) date 06/29/18 00:02:58*
%MOMM*%
%LPD*%
G01*
G04 APERTURE LIST*
%ADD10C,0.100000*%
%ADD11C,0.300000*%
%ADD12R,4.500000X2.500000*%
%ADD13O,4.500000X2.500000*%
%ADD14C,6.000000*%
%ADD15C,2.450000*%
%ADD16C,3.300000*%
%ADD17C,3.000000*%
%ADD18C,7.000000*%
%ADD19R,2.500000X4.500000*%
%ADD20O,2.500000X4.500000*%
%ADD21C,10.000000*%
%ADD22C,2.400000*%
%ADD23R,1.700000X1.700000*%
%ADD24O,1.700000X1.700000*%
%ADD25C,0.600000*%
%ADD26C,0.900000*%
%ADD27C,2.000000*%
%ADD28C,0.250000*%
%ADD29C,1.000000*%
%ADD30C,0.254000*%
G04 APERTURE END LIST*
D10*
D11*
X204190475Y-154004762D02*
X204190475Y-152004762D01*
X205142856Y-152671429D02*
X205142856Y-154004762D01*
X205142856Y-152861905D02*
X205238095Y-152766667D01*
X205428571Y-152671429D01*
X205714285Y-152671429D01*
X205904761Y-152766667D01*
X205999999Y-152957143D01*
X205999999Y-154004762D01*
X209428571Y-154004762D02*
X208476190Y-154004762D01*
X208476190Y-152004762D01*
X210952381Y-154004762D02*
X210952381Y-152957143D01*
X210857143Y-152766667D01*
X210666667Y-152671429D01*
X210285715Y-152671429D01*
X210095238Y-152766667D01*
X210952381Y-153909524D02*
X210761905Y-154004762D01*
X210285715Y-154004762D01*
X210095238Y-153909524D01*
X210000000Y-153719048D01*
X210000000Y-153528571D01*
X210095238Y-153338095D01*
X210285715Y-153242857D01*
X210761905Y-153242857D01*
X210952381Y-153147619D01*
X211714286Y-152671429D02*
X212190477Y-154004762D01*
X212666667Y-152671429D02*
X212190477Y-154004762D01*
X212000001Y-154480952D01*
X211904762Y-154576190D01*
X211714286Y-154671429D01*
X214190477Y-153909524D02*
X214000001Y-154004762D01*
X213619049Y-154004762D01*
X213428572Y-153909524D01*
X213333334Y-153719048D01*
X213333334Y-152957143D01*
X213428572Y-152766667D01*
X213619049Y-152671429D01*
X214000001Y-152671429D01*
X214190477Y-152766667D01*
X214285715Y-152957143D01*
X214285715Y-153147619D01*
X213333334Y-153338095D01*
X215142858Y-154004762D02*
X215142858Y-152671429D01*
X215142858Y-153052381D02*
X215238097Y-152861905D01*
X215333335Y-152766667D01*
X215523811Y-152671429D01*
X215714287Y-152671429D01*
X216380953Y-153242857D02*
X217904763Y-153242857D01*
X218761905Y-152195238D02*
X218857143Y-152100000D01*
X219047620Y-152004762D01*
X219523810Y-152004762D01*
X219714286Y-152100000D01*
X219809524Y-152195238D01*
X219904763Y-152385714D01*
X219904763Y-152576190D01*
X219809524Y-152861905D01*
X218666667Y-154004762D01*
X219904763Y-154004762D01*
D12*
X245600000Y-110450000D03*
D13*
X245600000Y-115900000D03*
X245600000Y-121350000D03*
D14*
X203600000Y-123000000D03*
X203600000Y-116000000D03*
X203600000Y-109000000D03*
X163600000Y-109000000D03*
X163600000Y-116000000D03*
X163600000Y-123000000D03*
D15*
X256380000Y-101500000D03*
X260190000Y-101500000D03*
X264000000Y-101500000D03*
X267810000Y-101500000D03*
X271620000Y-101500000D03*
X271620000Y-98500000D03*
X267810000Y-98500000D03*
X264000000Y-98500000D03*
X260190000Y-98500000D03*
X256380000Y-98500000D03*
D16*
X249180000Y-100000000D03*
X278820000Y-100000000D03*
D17*
X251680000Y-104000000D03*
X276320000Y-104000000D03*
D18*
X199000000Y-77600000D03*
X110000000Y-77600000D03*
X289600000Y-77600000D03*
X199000000Y-152600000D03*
X291172000Y-152600000D03*
X110000000Y-152600000D03*
D12*
X227500000Y-121400000D03*
D13*
X227500000Y-115950000D03*
X227500000Y-110500000D03*
D19*
X159400000Y-148900000D03*
D20*
X153950000Y-148900000D03*
X148500000Y-148900000D03*
D21*
X188600000Y-99000000D03*
X188600000Y-126200000D03*
X147400000Y-126200000D03*
X147400000Y-99000000D03*
D17*
X110000000Y-118300000D03*
X110000000Y-125300000D03*
X115000000Y-118300000D03*
X105000000Y-118300000D03*
X115000000Y-125300000D03*
X105000000Y-125300000D03*
X110000000Y-91500000D03*
X110000000Y-98500000D03*
X115000000Y-91500000D03*
X105000000Y-91500000D03*
X115000000Y-98500000D03*
X105000000Y-98500000D03*
D15*
X271620000Y-128500000D03*
X267810000Y-128500000D03*
X264000000Y-128500000D03*
X260190000Y-128500000D03*
X256380000Y-128500000D03*
X256380000Y-131500000D03*
X260190000Y-131500000D03*
X264000000Y-131500000D03*
X267810000Y-131500000D03*
X271620000Y-131500000D03*
D16*
X278820000Y-130000000D03*
X249180000Y-130000000D03*
D17*
X276320000Y-126000000D03*
X251680000Y-126000000D03*
X251400000Y-149500000D03*
X251400000Y-154500000D03*
X258400000Y-149500000D03*
X258400000Y-154500000D03*
X226500000Y-149500000D03*
X226500000Y-154500000D03*
X233500000Y-149500000D03*
X233500000Y-154500000D03*
D22*
X188700000Y-141600000D03*
X173700000Y-141600000D03*
D23*
X159420000Y-76100000D03*
D24*
X161960000Y-76100000D03*
X164500000Y-76100000D03*
X167040000Y-76100000D03*
X169580000Y-76100000D03*
X172120000Y-76100000D03*
D23*
X183860000Y-76100000D03*
D24*
X186400000Y-76100000D03*
X188940000Y-76100000D03*
X191480000Y-76100000D03*
D23*
X133000000Y-76100000D03*
D24*
X135540000Y-76100000D03*
X138080000Y-76100000D03*
X140620000Y-76100000D03*
X143160000Y-76100000D03*
X145700000Y-76100000D03*
D17*
X112500000Y-136500000D03*
X107500000Y-136500000D03*
X112500000Y-143500000D03*
X107500000Y-143500000D03*
D22*
X127800000Y-153200000D03*
X127800000Y-138200000D03*
X136900000Y-138200000D03*
X136900000Y-153200000D03*
D19*
X241200000Y-131300000D03*
D20*
X230300000Y-131300000D03*
D25*
X242500000Y-104200000D03*
X242500000Y-103500000D03*
X243200000Y-104200000D03*
X243200000Y-103500000D03*
X243200000Y-104900000D03*
X242500000Y-104900000D03*
X224100000Y-105100000D03*
X224800000Y-105100000D03*
X224100000Y-103700000D03*
X224100000Y-104400000D03*
X224800000Y-104400000D03*
X224800000Y-103700000D03*
X241600000Y-81300000D03*
X241600000Y-80680000D03*
D26*
X233000000Y-84100000D03*
X227100000Y-81900000D03*
X213200000Y-78800000D03*
X212600000Y-74600000D03*
D25*
X260500000Y-81100000D03*
X235500000Y-92600000D03*
X274000000Y-80600000D03*
X223500000Y-75100000D03*
X223800000Y-92600000D03*
X225500000Y-77100000D03*
X280850000Y-78500000D03*
X265390434Y-78490434D03*
X249948879Y-81905730D03*
X250000000Y-81000000D03*
X249310000Y-82300000D03*
X249300000Y-81000000D03*
X228000000Y-78350000D03*
X228000000Y-79100000D03*
X227300000Y-79100000D03*
X227300000Y-78350000D03*
X215500000Y-78550000D03*
X214900000Y-77950000D03*
D26*
X208800000Y-78600000D03*
D25*
X234800000Y-103400000D03*
X234800000Y-104100000D03*
X234800000Y-104800000D03*
X235500000Y-104800000D03*
X235500000Y-104100000D03*
X235500000Y-103400000D03*
X232200000Y-104100000D03*
X231600000Y-104100000D03*
X231600000Y-103500000D03*
X232200000Y-103500000D03*
X241900000Y-99600000D03*
X241200000Y-99600000D03*
X240500000Y-99600000D03*
X240500000Y-100300000D03*
X241200000Y-100300000D03*
X241900000Y-100300000D03*
X224100000Y-101200000D03*
X224100000Y-101900000D03*
X224100000Y-102600000D03*
X224800000Y-102600000D03*
X224800000Y-101900000D03*
X224800000Y-101200000D03*
X238400000Y-81200000D03*
X238400000Y-80500000D03*
X238400000Y-79800000D03*
X245500000Y-75600000D03*
X244000000Y-75600000D03*
X244800000Y-75600000D03*
D27*
X174020000Y-74200000D02*
X174020000Y-74180000D01*
X174020000Y-74180000D02*
X175454693Y-72745307D01*
X175454693Y-72745307D02*
X241945307Y-72745307D01*
X241945307Y-72745307D02*
X244800000Y-75600000D01*
D28*
X174020000Y-74200000D02*
X174720000Y-73500000D01*
X173750000Y-74470000D02*
X174020000Y-74200000D01*
D29*
X172120000Y-76100000D02*
X173750000Y-74470000D01*
D28*
X174720000Y-73500000D02*
X182100000Y-73500000D01*
X182100000Y-73500000D02*
X182300001Y-73299999D01*
D30*
G36*
X229073000Y-80423000D02*
X214677000Y-80423000D01*
X214677000Y-78647946D01*
X216182783Y-78647946D01*
X216372987Y-79108274D01*
X216724873Y-79460775D01*
X217184869Y-79651782D01*
X217682946Y-79652217D01*
X218143274Y-79462013D01*
X218495775Y-79110127D01*
X218686782Y-78650131D01*
X218687217Y-78152054D01*
X218497013Y-77691726D01*
X218145127Y-77339225D01*
X217915740Y-77243975D01*
X224772874Y-77243975D01*
X224883320Y-77511275D01*
X225087650Y-77715961D01*
X225354756Y-77826874D01*
X225643975Y-77827126D01*
X225911275Y-77716680D01*
X226115961Y-77512350D01*
X226226874Y-77245244D01*
X226227126Y-76956025D01*
X226116680Y-76688725D01*
X225912350Y-76484039D01*
X225645244Y-76373126D01*
X225356025Y-76372874D01*
X225088725Y-76483320D01*
X224884039Y-76687650D01*
X224773126Y-76954756D01*
X224772874Y-77243975D01*
X217915740Y-77243975D01*
X217685131Y-77148218D01*
X217187054Y-77147783D01*
X216726726Y-77337987D01*
X216374225Y-77689873D01*
X216183218Y-78149869D01*
X216182783Y-78647946D01*
X214677000Y-78647946D01*
X214677000Y-75877000D01*
X229073000Y-75877000D01*
X229073000Y-80423000D01*
X229073000Y-80423000D01*
G37*
X229073000Y-80423000D02*
X214677000Y-80423000D01*
X214677000Y-78647946D01*
X216182783Y-78647946D01*
X216372987Y-79108274D01*
X216724873Y-79460775D01*
X217184869Y-79651782D01*
X217682946Y-79652217D01*
X218143274Y-79462013D01*
X218495775Y-79110127D01*
X218686782Y-78650131D01*
X218687217Y-78152054D01*
X218497013Y-77691726D01*
X218145127Y-77339225D01*
X217915740Y-77243975D01*
X224772874Y-77243975D01*
X224883320Y-77511275D01*
X225087650Y-77715961D01*
X225354756Y-77826874D01*
X225643975Y-77827126D01*
X225911275Y-77716680D01*
X226115961Y-77512350D01*
X226226874Y-77245244D01*
X226227126Y-76956025D01*
X226116680Y-76688725D01*
X225912350Y-76484039D01*
X225645244Y-76373126D01*
X225356025Y-76372874D01*
X225088725Y-76483320D01*
X224884039Y-76687650D01*
X224773126Y-76954756D01*
X224772874Y-77243975D01*
X217915740Y-77243975D01*
X217685131Y-77148218D01*
X217187054Y-77147783D01*
X216726726Y-77337987D01*
X216374225Y-77689873D01*
X216183218Y-78149869D01*
X216182783Y-78647946D01*
X214677000Y-78647946D01*
X214677000Y-75877000D01*
X229073000Y-75877000D01*
X229073000Y-80423000D01*
G36*
X243473000Y-108764635D02*
X243350000Y-108764635D01*
X243191763Y-108794409D01*
X243046433Y-108887927D01*
X242948936Y-109030619D01*
X242914635Y-109200000D01*
X242914635Y-111700000D01*
X242939535Y-111832333D01*
X242819653Y-111856179D01*
X241399652Y-112804994D01*
X240450837Y-114224995D01*
X240117658Y-115900000D01*
X240450837Y-117575005D01*
X241399652Y-118995006D01*
X242819653Y-119943821D01*
X244494658Y-120277000D01*
X246705342Y-120277000D01*
X248245173Y-119970709D01*
X248272162Y-124073000D01*
X223627000Y-124073000D01*
X223627000Y-119263733D01*
X224719653Y-119993821D01*
X224841360Y-120018030D01*
X224814635Y-120150000D01*
X224814635Y-122650000D01*
X224844409Y-122808237D01*
X224937927Y-122953567D01*
X225080619Y-123051064D01*
X225250000Y-123085365D01*
X229750000Y-123085365D01*
X229908237Y-123055591D01*
X230053567Y-122962073D01*
X230151064Y-122819381D01*
X230185365Y-122650000D01*
X230185365Y-120150000D01*
X230160465Y-120017667D01*
X230280347Y-119993821D01*
X231700348Y-119045006D01*
X232649163Y-117625005D01*
X232982342Y-115950000D01*
X232649163Y-114274995D01*
X231700348Y-112854994D01*
X230280347Y-111906179D01*
X228605342Y-111573000D01*
X226394658Y-111573000D01*
X224719653Y-111906179D01*
X223627000Y-112636267D01*
X223627000Y-103643975D01*
X230872874Y-103643975D01*
X230937364Y-103800054D01*
X230873126Y-103954756D01*
X230872874Y-104243975D01*
X230983320Y-104511275D01*
X231187650Y-104715961D01*
X231454756Y-104826874D01*
X231743975Y-104827126D01*
X231900054Y-104762636D01*
X232054756Y-104826874D01*
X232343975Y-104827126D01*
X232611275Y-104716680D01*
X232815961Y-104512350D01*
X232926874Y-104245244D01*
X232927126Y-103956025D01*
X232862636Y-103799946D01*
X232926874Y-103645244D01*
X232926962Y-103543975D01*
X234072874Y-103543975D01*
X234158075Y-103750178D01*
X234073126Y-103954756D01*
X234072874Y-104243975D01*
X234158075Y-104450178D01*
X234073126Y-104654756D01*
X234072874Y-104943975D01*
X234183320Y-105211275D01*
X234387650Y-105415961D01*
X234654756Y-105526874D01*
X234943975Y-105527126D01*
X235150178Y-105441925D01*
X235354756Y-105526874D01*
X235643975Y-105527126D01*
X235911275Y-105416680D01*
X236115961Y-105212350D01*
X236226874Y-104945244D01*
X236227126Y-104656025D01*
X236141925Y-104449822D01*
X236226874Y-104245244D01*
X236227126Y-103956025D01*
X236141925Y-103749822D01*
X236226874Y-103545244D01*
X236227126Y-103256025D01*
X236116680Y-102988725D01*
X235912350Y-102784039D01*
X235645244Y-102673126D01*
X235356025Y-102672874D01*
X235149822Y-102758075D01*
X234945244Y-102673126D01*
X234656025Y-102672874D01*
X234388725Y-102783320D01*
X234184039Y-102987650D01*
X234073126Y-103254756D01*
X234072874Y-103543975D01*
X232926962Y-103543975D01*
X232927126Y-103356025D01*
X232816680Y-103088725D01*
X232612350Y-102884039D01*
X232345244Y-102773126D01*
X232056025Y-102772874D01*
X231899946Y-102837364D01*
X231745244Y-102773126D01*
X231456025Y-102772874D01*
X231188725Y-102883320D01*
X230984039Y-103087650D01*
X230873126Y-103354756D01*
X230872874Y-103643975D01*
X223627000Y-103643975D01*
X223627000Y-103155205D01*
X223687650Y-103215961D01*
X223954756Y-103326874D01*
X224243975Y-103327126D01*
X224450178Y-103241925D01*
X224654756Y-103326874D01*
X224943975Y-103327126D01*
X225211275Y-103216680D01*
X225415961Y-103012350D01*
X225526874Y-102745244D01*
X225527126Y-102456025D01*
X225441925Y-102249822D01*
X225526874Y-102045244D01*
X225527126Y-101756025D01*
X225441925Y-101549822D01*
X225526874Y-101345244D01*
X225527126Y-101056025D01*
X225416680Y-100788725D01*
X225212350Y-100584039D01*
X224945244Y-100473126D01*
X224656025Y-100472874D01*
X224449822Y-100558075D01*
X224245244Y-100473126D01*
X223956025Y-100472874D01*
X223688725Y-100583320D01*
X223627000Y-100644938D01*
X223627000Y-99743975D01*
X239772874Y-99743975D01*
X239858075Y-99950178D01*
X239773126Y-100154756D01*
X239772874Y-100443975D01*
X239883320Y-100711275D01*
X240087650Y-100915961D01*
X240354756Y-101026874D01*
X240643975Y-101027126D01*
X240850178Y-100941925D01*
X241054756Y-101026874D01*
X241343975Y-101027126D01*
X241550178Y-100941925D01*
X241754756Y-101026874D01*
X242043975Y-101027126D01*
X242311275Y-100916680D01*
X242515961Y-100712350D01*
X242626874Y-100445244D01*
X242627126Y-100156025D01*
X242541925Y-99949822D01*
X242626874Y-99745244D01*
X242627126Y-99456025D01*
X242516680Y-99188725D01*
X242312350Y-98984039D01*
X242045244Y-98873126D01*
X241756025Y-98872874D01*
X241549822Y-98958075D01*
X241345244Y-98873126D01*
X241056025Y-98872874D01*
X240849822Y-98958075D01*
X240645244Y-98873126D01*
X240356025Y-98872874D01*
X240088725Y-98983320D01*
X239884039Y-99187650D01*
X239773126Y-99454756D01*
X239772874Y-99743975D01*
X223627000Y-99743975D01*
X223627000Y-96627000D01*
X236500000Y-96627000D01*
X236549410Y-96616994D01*
X236591035Y-96588553D01*
X236618315Y-96546159D01*
X236627000Y-96500000D01*
X236627000Y-79943975D01*
X237672874Y-79943975D01*
X237758075Y-80150178D01*
X237673126Y-80354756D01*
X237672874Y-80643975D01*
X237758075Y-80850178D01*
X237673126Y-81054756D01*
X237672874Y-81343975D01*
X237783320Y-81611275D01*
X237987650Y-81815961D01*
X238254756Y-81926874D01*
X238543975Y-81927126D01*
X238811275Y-81816680D01*
X239015961Y-81612350D01*
X239126874Y-81345244D01*
X239127126Y-81056025D01*
X239041925Y-80849822D01*
X239126874Y-80645244D01*
X239127126Y-80356025D01*
X239041925Y-80149822D01*
X239126874Y-79945244D01*
X239127126Y-79656025D01*
X239016680Y-79388725D01*
X238812350Y-79184039D01*
X238545244Y-79073126D01*
X238256025Y-79072874D01*
X237988725Y-79183320D01*
X237784039Y-79387650D01*
X237673126Y-79654756D01*
X237672874Y-79943975D01*
X236627000Y-79943975D01*
X236627000Y-78127000D01*
X243473000Y-78127000D01*
X243473000Y-108764635D01*
X243473000Y-108764635D01*
G37*
X243473000Y-108764635D02*
X243350000Y-108764635D01*
X243191763Y-108794409D01*
X243046433Y-108887927D01*
X242948936Y-109030619D01*
X242914635Y-109200000D01*
X242914635Y-111700000D01*
X242939535Y-111832333D01*
X242819653Y-111856179D01*
X241399652Y-112804994D01*
X240450837Y-114224995D01*
X240117658Y-115900000D01*
X240450837Y-117575005D01*
X241399652Y-118995006D01*
X242819653Y-119943821D01*
X244494658Y-120277000D01*
X246705342Y-120277000D01*
X248245173Y-119970709D01*
X248272162Y-124073000D01*
X223627000Y-124073000D01*
X223627000Y-119263733D01*
X224719653Y-119993821D01*
X224841360Y-120018030D01*
X224814635Y-120150000D01*
X224814635Y-122650000D01*
X224844409Y-122808237D01*
X224937927Y-122953567D01*
X225080619Y-123051064D01*
X225250000Y-123085365D01*
X229750000Y-123085365D01*
X229908237Y-123055591D01*
X230053567Y-122962073D01*
X230151064Y-122819381D01*
X230185365Y-122650000D01*
X230185365Y-120150000D01*
X230160465Y-120017667D01*
X230280347Y-119993821D01*
X231700348Y-119045006D01*
X232649163Y-117625005D01*
X232982342Y-115950000D01*
X232649163Y-114274995D01*
X231700348Y-112854994D01*
X230280347Y-111906179D01*
X228605342Y-111573000D01*
X226394658Y-111573000D01*
X224719653Y-111906179D01*
X223627000Y-112636267D01*
X223627000Y-103643975D01*
X230872874Y-103643975D01*
X230937364Y-103800054D01*
X230873126Y-103954756D01*
X230872874Y-104243975D01*
X230983320Y-104511275D01*
X231187650Y-104715961D01*
X231454756Y-104826874D01*
X231743975Y-104827126D01*
X231900054Y-104762636D01*
X232054756Y-104826874D01*
X232343975Y-104827126D01*
X232611275Y-104716680D01*
X232815961Y-104512350D01*
X232926874Y-104245244D01*
X232927126Y-103956025D01*
X232862636Y-103799946D01*
X232926874Y-103645244D01*
X232926962Y-103543975D01*
X234072874Y-103543975D01*
X234158075Y-103750178D01*
X234073126Y-103954756D01*
X234072874Y-104243975D01*
X234158075Y-104450178D01*
X234073126Y-104654756D01*
X234072874Y-104943975D01*
X234183320Y-105211275D01*
X234387650Y-105415961D01*
X234654756Y-105526874D01*
X234943975Y-105527126D01*
X235150178Y-105441925D01*
X235354756Y-105526874D01*
X235643975Y-105527126D01*
X235911275Y-105416680D01*
X236115961Y-105212350D01*
X236226874Y-104945244D01*
X236227126Y-104656025D01*
X236141925Y-104449822D01*
X236226874Y-104245244D01*
X236227126Y-103956025D01*
X236141925Y-103749822D01*
X236226874Y-103545244D01*
X236227126Y-103256025D01*
X236116680Y-102988725D01*
X235912350Y-102784039D01*
X235645244Y-102673126D01*
X235356025Y-102672874D01*
X235149822Y-102758075D01*
X234945244Y-102673126D01*
X234656025Y-102672874D01*
X234388725Y-102783320D01*
X234184039Y-102987650D01*
X234073126Y-103254756D01*
X234072874Y-103543975D01*
X232926962Y-103543975D01*
X232927126Y-103356025D01*
X232816680Y-103088725D01*
X232612350Y-102884039D01*
X232345244Y-102773126D01*
X232056025Y-102772874D01*
X231899946Y-102837364D01*
X231745244Y-102773126D01*
X231456025Y-102772874D01*
X231188725Y-102883320D01*
X230984039Y-103087650D01*
X230873126Y-103354756D01*
X230872874Y-103643975D01*
X223627000Y-103643975D01*
X223627000Y-103155205D01*
X223687650Y-103215961D01*
X223954756Y-103326874D01*
X224243975Y-103327126D01*
X224450178Y-103241925D01*
X224654756Y-103326874D01*
X224943975Y-103327126D01*
X225211275Y-103216680D01*
X225415961Y-103012350D01*
X225526874Y-102745244D01*
X225527126Y-102456025D01*
X225441925Y-102249822D01*
X225526874Y-102045244D01*
X225527126Y-101756025D01*
X225441925Y-101549822D01*
X225526874Y-101345244D01*
X225527126Y-101056025D01*
X225416680Y-100788725D01*
X225212350Y-100584039D01*
X224945244Y-100473126D01*
X224656025Y-100472874D01*
X224449822Y-100558075D01*
X224245244Y-100473126D01*
X223956025Y-100472874D01*
X223688725Y-100583320D01*
X223627000Y-100644938D01*
X223627000Y-99743975D01*
X239772874Y-99743975D01*
X239858075Y-99950178D01*
X239773126Y-100154756D01*
X239772874Y-100443975D01*
X239883320Y-100711275D01*
X240087650Y-100915961D01*
X240354756Y-101026874D01*
X240643975Y-101027126D01*
X240850178Y-100941925D01*
X241054756Y-101026874D01*
X241343975Y-101027126D01*
X241550178Y-100941925D01*
X241754756Y-101026874D01*
X242043975Y-101027126D01*
X242311275Y-100916680D01*
X242515961Y-100712350D01*
X242626874Y-100445244D01*
X242627126Y-100156025D01*
X242541925Y-99949822D01*
X242626874Y-99745244D01*
X242627126Y-99456025D01*
X242516680Y-99188725D01*
X242312350Y-98984039D01*
X242045244Y-98873126D01*
X241756025Y-98872874D01*
X241549822Y-98958075D01*
X241345244Y-98873126D01*
X241056025Y-98872874D01*
X240849822Y-98958075D01*
X240645244Y-98873126D01*
X240356025Y-98872874D01*
X240088725Y-98983320D01*
X239884039Y-99187650D01*
X239773126Y-99454756D01*
X239772874Y-99743975D01*
X223627000Y-99743975D01*
X223627000Y-96627000D01*
X236500000Y-96627000D01*
X236549410Y-96616994D01*
X236591035Y-96588553D01*
X236618315Y-96546159D01*
X236627000Y-96500000D01*
X236627000Y-79943975D01*
X237672874Y-79943975D01*
X237758075Y-80150178D01*
X237673126Y-80354756D01*
X237672874Y-80643975D01*
X237758075Y-80850178D01*
X237673126Y-81054756D01*
X237672874Y-81343975D01*
X237783320Y-81611275D01*
X237987650Y-81815961D01*
X238254756Y-81926874D01*
X238543975Y-81927126D01*
X238811275Y-81816680D01*
X239015961Y-81612350D01*
X239126874Y-81345244D01*
X239127126Y-81056025D01*
X239041925Y-80849822D01*
X239126874Y-80645244D01*
X239127126Y-80356025D01*
X239041925Y-80149822D01*
X239126874Y-79945244D01*
X239127126Y-79656025D01*
X239016680Y-79388725D01*
X238812350Y-79184039D01*
X238545244Y-79073126D01*
X238256025Y-79072874D01*
X237988725Y-79183320D01*
X237784039Y-79387650D01*
X237673126Y-79654756D01*
X237672874Y-79943975D01*
X236627000Y-79943975D01*
X236627000Y-78127000D01*
X243473000Y-78127000D01*
X243473000Y-108764635D01*
M02*
