G04 #@! TF.FileFunction,Copper,L1,Top,Mixed*
%FSLAX46Y46*%
G04 Gerber Fmt 4.6, Leading zero omitted, Abs format (unit mm)*
G04 Created by KiCad (PCBNEW 4.0.7) date 06/29/18 00:02:58*
%MOMM*%
%LPD*%
G01*
G04 APERTURE LIST*
%ADD10C,0.100000*%
%ADD11C,0.300000*%
%ADD12R,2.700000X3.200000*%
%ADD13R,2.000000X1.700000*%
%ADD14R,4.500000X2.500000*%
%ADD15O,4.500000X2.500000*%
%ADD16C,6.000000*%
%ADD17C,2.450000*%
%ADD18C,3.300000*%
%ADD19C,3.000000*%
%ADD20R,1.700000X2.000000*%
%ADD21R,1.600000X2.000000*%
%ADD22R,1.250000X1.500000*%
%ADD23C,7.000000*%
%ADD24R,1.550000X0.600000*%
%ADD25R,2.500000X4.500000*%
%ADD26O,2.500000X4.500000*%
%ADD27C,10.000000*%
%ADD28R,0.900000X1.200000*%
%ADD29R,0.800000X1.100000*%
%ADD30R,1.200000X2.700000*%
%ADD31C,2.400000*%
%ADD32R,1.700000X1.700000*%
%ADD33O,1.700000X1.700000*%
%ADD34R,1.300000X1.500000*%
%ADD35C,0.600000*%
%ADD36C,0.900000*%
%ADD37C,6.000000*%
%ADD38C,0.250000*%
%ADD39C,1.000000*%
%ADD40C,1.500000*%
%ADD41C,0.600000*%
%ADD42C,0.800000*%
%ADD43C,3.000000*%
%ADD44C,2.500000*%
%ADD45C,2.530000*%
%ADD46C,2.000000*%
%ADD47C,0.400000*%
%ADD48C,0.254000*%
G04 APERTURE END LIST*
D10*
D11*
X203690475Y-152004762D02*
X204833332Y-152004762D01*
X204261904Y-154004762D02*
X204261904Y-152004762D01*
X205785714Y-154004762D02*
X205595238Y-153909524D01*
X205499999Y-153814286D01*
X205404761Y-153623810D01*
X205404761Y-153052381D01*
X205499999Y-152861905D01*
X205595238Y-152766667D01*
X205785714Y-152671429D01*
X206071428Y-152671429D01*
X206261904Y-152766667D01*
X206357142Y-152861905D01*
X206452380Y-153052381D01*
X206452380Y-153623810D01*
X206357142Y-153814286D01*
X206261904Y-153909524D01*
X206071428Y-154004762D01*
X205785714Y-154004762D01*
X207309523Y-152671429D02*
X207309523Y-154671429D01*
X207309523Y-152766667D02*
X207500000Y-152671429D01*
X207880952Y-152671429D01*
X208071428Y-152766667D01*
X208166666Y-152861905D01*
X208261904Y-153052381D01*
X208261904Y-153623810D01*
X208166666Y-153814286D01*
X208071428Y-153909524D01*
X207880952Y-154004762D01*
X207500000Y-154004762D01*
X207309523Y-153909524D01*
X210928572Y-154004762D02*
X210738096Y-153909524D01*
X210642857Y-153719048D01*
X210642857Y-152004762D01*
X212547619Y-154004762D02*
X212547619Y-152957143D01*
X212452381Y-152766667D01*
X212261905Y-152671429D01*
X211880953Y-152671429D01*
X211690476Y-152766667D01*
X212547619Y-153909524D02*
X212357143Y-154004762D01*
X211880953Y-154004762D01*
X211690476Y-153909524D01*
X211595238Y-153719048D01*
X211595238Y-153528571D01*
X211690476Y-153338095D01*
X211880953Y-153242857D01*
X212357143Y-153242857D01*
X212547619Y-153147619D01*
X213309524Y-152671429D02*
X213785715Y-154004762D01*
X214261905Y-152671429D02*
X213785715Y-154004762D01*
X213595239Y-154480952D01*
X213500000Y-154576190D01*
X213309524Y-154671429D01*
X215785715Y-153909524D02*
X215595239Y-154004762D01*
X215214287Y-154004762D01*
X215023810Y-153909524D01*
X214928572Y-153719048D01*
X214928572Y-152957143D01*
X215023810Y-152766667D01*
X215214287Y-152671429D01*
X215595239Y-152671429D01*
X215785715Y-152766667D01*
X215880953Y-152957143D01*
X215880953Y-153147619D01*
X214928572Y-153338095D01*
X216738096Y-154004762D02*
X216738096Y-152671429D01*
X216738096Y-153052381D02*
X216833335Y-152861905D01*
X216928573Y-152766667D01*
X217119049Y-152671429D01*
X217309525Y-152671429D01*
X115707144Y-80678571D02*
X115707144Y-79178571D01*
X116278572Y-79178571D01*
X116421430Y-79250000D01*
X116492858Y-79321429D01*
X116564287Y-79464286D01*
X116564287Y-79678571D01*
X116492858Y-79821429D01*
X116421430Y-79892857D01*
X116278572Y-79964286D01*
X115707144Y-79964286D01*
X118064287Y-80535714D02*
X117992858Y-80607143D01*
X117778572Y-80678571D01*
X117635715Y-80678571D01*
X117421430Y-80607143D01*
X117278572Y-80464286D01*
X117207144Y-80321429D01*
X117135715Y-80035714D01*
X117135715Y-79821429D01*
X117207144Y-79535714D01*
X117278572Y-79392857D01*
X117421430Y-79250000D01*
X117635715Y-79178571D01*
X117778572Y-79178571D01*
X117992858Y-79250000D01*
X118064287Y-79321429D01*
X119207144Y-79892857D02*
X119421430Y-79964286D01*
X119492858Y-80035714D01*
X119564287Y-80178571D01*
X119564287Y-80392857D01*
X119492858Y-80535714D01*
X119421430Y-80607143D01*
X119278572Y-80678571D01*
X118707144Y-80678571D01*
X118707144Y-79178571D01*
X119207144Y-79178571D01*
X119350001Y-79250000D01*
X119421430Y-79321429D01*
X119492858Y-79464286D01*
X119492858Y-79607143D01*
X119421430Y-79750000D01*
X119350001Y-79821429D01*
X119207144Y-79892857D01*
X118707144Y-79892857D01*
X121135715Y-79178571D02*
X121635715Y-80678571D01*
X122135715Y-79178571D01*
X123421429Y-80678571D02*
X122564286Y-80678571D01*
X122992858Y-80678571D02*
X122992858Y-79178571D01*
X122850001Y-79392857D01*
X122707143Y-79535714D01*
X122564286Y-79607143D01*
X124064286Y-80535714D02*
X124135714Y-80607143D01*
X124064286Y-80678571D01*
X123992857Y-80607143D01*
X124064286Y-80535714D01*
X124064286Y-80678571D01*
X125064286Y-79178571D02*
X125207143Y-79178571D01*
X125350000Y-79250000D01*
X125421429Y-79321429D01*
X125492858Y-79464286D01*
X125564286Y-79750000D01*
X125564286Y-80107143D01*
X125492858Y-80392857D01*
X125421429Y-80535714D01*
X125350000Y-80607143D01*
X125207143Y-80678571D01*
X125064286Y-80678571D01*
X124921429Y-80607143D01*
X124850000Y-80535714D01*
X124778572Y-80392857D01*
X124707143Y-80107143D01*
X124707143Y-79750000D01*
X124778572Y-79464286D01*
X124850000Y-79321429D01*
X124921429Y-79250000D01*
X125064286Y-79178571D01*
D12*
X152442141Y-138300000D03*
X160342141Y-138300000D03*
D13*
X241000000Y-104200000D03*
X237000000Y-104200000D03*
X237000002Y-101800000D03*
X241000002Y-101800000D03*
D14*
X245600000Y-110450000D03*
D15*
X245600000Y-115900000D03*
X245600000Y-121350000D03*
D13*
X226200000Y-104200000D03*
X230200000Y-104200000D03*
D16*
X203600000Y-123000000D03*
X203600000Y-116000000D03*
X203600000Y-109000000D03*
X163600000Y-109000000D03*
X163600000Y-116000000D03*
X163600000Y-123000000D03*
D17*
X256380000Y-101500000D03*
X260190000Y-101500000D03*
X264000000Y-101500000D03*
X267810000Y-101500000D03*
X271620000Y-101500000D03*
X271620000Y-98500000D03*
X267810000Y-98500000D03*
X264000000Y-98500000D03*
X260190000Y-98500000D03*
X256380000Y-98500000D03*
D18*
X249180000Y-100000000D03*
X278820000Y-100000000D03*
D19*
X251680000Y-104000000D03*
X276320000Y-104000000D03*
D20*
X276767012Y-74507025D03*
X276767012Y-78507025D03*
X274367011Y-74507026D03*
X274367011Y-78507026D03*
D21*
X247170000Y-81630000D03*
X247170000Y-77630000D03*
D20*
X279167012Y-78507026D03*
X279167012Y-74507026D03*
X263707900Y-78490434D03*
X263707900Y-74490434D03*
X258907901Y-74490432D03*
X258907901Y-78490432D03*
D22*
X256707901Y-74240433D03*
X256707901Y-76740433D03*
X272167011Y-74257026D03*
X272167011Y-76757026D03*
D20*
X261307902Y-74490434D03*
X261307902Y-78490434D03*
D23*
X199000000Y-77600000D03*
X110000000Y-77600000D03*
X289600000Y-77600000D03*
X199000000Y-152600000D03*
X291172000Y-152600000D03*
X110000000Y-152600000D03*
D14*
X227500000Y-121400000D03*
D15*
X227500000Y-115950000D03*
X227500000Y-110500000D03*
D12*
X227705354Y-90476204D03*
X219805354Y-90476204D03*
X227705354Y-94726204D03*
X219805354Y-94726204D03*
X239455355Y-90476204D03*
X231555355Y-90476204D03*
X239455355Y-94726204D03*
X231555355Y-94726204D03*
D13*
X230200000Y-101799999D03*
X226200000Y-101799999D03*
D22*
X232166000Y-82024000D03*
X232166000Y-79524000D03*
D21*
X230000000Y-81750000D03*
X230000000Y-77750000D03*
D24*
X234666000Y-78504000D03*
X234666000Y-79774000D03*
X234666000Y-81044000D03*
X234666000Y-82314000D03*
X240066000Y-82314000D03*
X240066000Y-81044000D03*
X240066000Y-79774000D03*
X240066000Y-78504000D03*
D12*
X152442140Y-142200000D03*
X160342140Y-142200000D03*
D25*
X159400000Y-148900000D03*
D26*
X153950000Y-148900000D03*
X148500000Y-148900000D03*
D27*
X188600000Y-99000000D03*
X188600000Y-126200000D03*
X147400000Y-126200000D03*
X147400000Y-99000000D03*
D19*
X110000000Y-118300000D03*
X110000000Y-125300000D03*
X115000000Y-118300000D03*
X105000000Y-118300000D03*
X115000000Y-125300000D03*
X105000000Y-125300000D03*
X110000000Y-91500000D03*
X110000000Y-98500000D03*
X115000000Y-91500000D03*
X105000000Y-91500000D03*
X115000000Y-98500000D03*
X105000000Y-98500000D03*
D17*
X271620000Y-128500000D03*
X267810000Y-128500000D03*
X264000000Y-128500000D03*
X260190000Y-128500000D03*
X256380000Y-128500000D03*
X256380000Y-131500000D03*
X260190000Y-131500000D03*
X264000000Y-131500000D03*
X267810000Y-131500000D03*
X271620000Y-131500000D03*
D18*
X278820000Y-130000000D03*
X249180000Y-130000000D03*
D19*
X276320000Y-126000000D03*
X251680000Y-126000000D03*
X251400000Y-149500000D03*
X251400000Y-154500000D03*
X258400000Y-149500000D03*
X258400000Y-154500000D03*
X226500000Y-149500000D03*
X226500000Y-154500000D03*
X233500000Y-149500000D03*
X233500000Y-154500000D03*
D28*
X236950000Y-106600000D03*
X240250000Y-106600000D03*
X230150000Y-106600000D03*
X226850000Y-106600000D03*
D20*
X223552595Y-81203582D03*
X223552595Y-77203582D03*
X221152594Y-81203582D03*
X221152594Y-77203582D03*
D29*
X215228100Y-76150000D03*
X213958100Y-76150000D03*
X212688100Y-76150000D03*
X211418100Y-76150000D03*
X210148100Y-76150000D03*
X208878100Y-76150000D03*
X208878100Y-80650000D03*
X210148100Y-80650000D03*
X211418100Y-80650000D03*
X212688100Y-80650000D03*
X213958100Y-80650000D03*
X215228100Y-80650000D03*
D30*
X206368100Y-80850000D03*
X206368100Y-75950000D03*
X217731900Y-75950000D03*
X217731900Y-80850000D03*
D31*
X188700000Y-141600000D03*
X173700000Y-141600000D03*
D32*
X159420000Y-76100000D03*
D33*
X161960000Y-76100000D03*
X164500000Y-76100000D03*
X167040000Y-76100000D03*
X169580000Y-76100000D03*
X172120000Y-76100000D03*
D32*
X183860000Y-76100000D03*
D33*
X186400000Y-76100000D03*
X188940000Y-76100000D03*
X191480000Y-76100000D03*
D32*
X133000000Y-76100000D03*
D33*
X135540000Y-76100000D03*
X138080000Y-76100000D03*
X140620000Y-76100000D03*
X143160000Y-76100000D03*
X145700000Y-76100000D03*
D21*
X244790000Y-77630000D03*
X244790000Y-81630000D03*
D34*
X242640000Y-78270000D03*
X242640000Y-80970000D03*
D19*
X112500000Y-136500000D03*
X107500000Y-136500000D03*
X112500000Y-143500000D03*
X107500000Y-143500000D03*
D31*
X127800000Y-153200000D03*
X127800000Y-138200000D03*
X136900000Y-138200000D03*
X136900000Y-153200000D03*
D25*
X241200000Y-131300000D03*
D26*
X230300000Y-131300000D03*
D35*
X242500000Y-104200000D03*
X242500000Y-103500000D03*
X243200000Y-104200000D03*
X243200000Y-103500000D03*
X243200000Y-104900000D03*
X242500000Y-104900000D03*
X224100000Y-105100000D03*
X224800000Y-105100000D03*
X224100000Y-103700000D03*
X224100000Y-104400000D03*
X224800000Y-104400000D03*
X224800000Y-103700000D03*
X241600000Y-81300000D03*
X241600000Y-80680000D03*
D36*
X233000000Y-84100000D03*
X227100000Y-81900000D03*
X213200000Y-78800000D03*
X212600000Y-74600000D03*
D35*
X260500000Y-81100000D03*
X235500000Y-92600000D03*
X274000000Y-80600000D03*
X223500000Y-75100000D03*
X223800000Y-92600000D03*
X225500000Y-77100000D03*
X280850000Y-78500000D03*
X265390434Y-78490434D03*
X249948879Y-81905730D03*
X250000000Y-81000000D03*
X249310000Y-82300000D03*
X249300000Y-81000000D03*
X228000000Y-78350000D03*
X228000000Y-79100000D03*
X227300000Y-79100000D03*
X227300000Y-78350000D03*
X215500000Y-78550000D03*
X214900000Y-77950000D03*
D36*
X208800000Y-78600000D03*
D35*
X234800000Y-103400000D03*
X234800000Y-104100000D03*
X234800000Y-104800000D03*
X235500000Y-104800000D03*
X235500000Y-104100000D03*
X235500000Y-103400000D03*
X232200000Y-104100000D03*
X231600000Y-104100000D03*
X231600000Y-103500000D03*
X232200000Y-103500000D03*
X241900000Y-99600000D03*
X241200000Y-99600000D03*
X240500000Y-99600000D03*
X240500000Y-100300000D03*
X241200000Y-100300000D03*
X241900000Y-100300000D03*
X224100000Y-101200000D03*
X224100000Y-101900000D03*
X224100000Y-102600000D03*
X224800000Y-102600000D03*
X224800000Y-101900000D03*
X224800000Y-101200000D03*
X238400000Y-81200000D03*
X238400000Y-80500000D03*
X238400000Y-79800000D03*
X245500000Y-75600000D03*
X244000000Y-75600000D03*
X244800000Y-75600000D03*
D37*
X250880000Y-92600000D02*
X244450000Y-92600000D01*
X250880000Y-92600000D02*
X251000000Y-92600000D01*
D38*
X242500000Y-103500000D02*
X242500000Y-104200000D01*
X242500000Y-103500000D02*
X243200000Y-103500000D01*
X241800000Y-104200000D02*
X242500000Y-103500000D01*
X243200000Y-103500000D02*
X243200000Y-104200000D01*
X243200000Y-104200000D02*
X243200000Y-104900000D01*
X243200000Y-104900000D02*
X242500000Y-104900000D01*
X242500000Y-104900000D02*
X242500000Y-104200000D01*
X241000000Y-106550000D02*
X240950000Y-106600000D01*
X240950000Y-106600000D02*
X240250000Y-106600000D01*
X241000000Y-104200000D02*
X241000000Y-106550000D01*
X241000000Y-104200000D02*
X241800000Y-104200000D01*
X224100000Y-103700000D02*
X224800000Y-103700000D01*
X224100000Y-104400000D02*
X224100000Y-103700000D01*
X224100000Y-105100000D02*
X224100000Y-104400000D01*
X224800000Y-105100000D02*
X224100000Y-105100000D01*
X224800000Y-105100000D02*
X224800000Y-104400000D01*
X224800000Y-103700000D02*
X224800000Y-104400000D01*
X226200000Y-104200000D02*
X225300000Y-104200000D01*
X225300000Y-104200000D02*
X224800000Y-103700000D01*
X226200000Y-104200000D02*
X226200000Y-105950000D01*
X226200000Y-105950000D02*
X226850000Y-106600000D01*
X241600000Y-80680000D02*
X241600000Y-81300000D01*
X242640000Y-80970000D02*
X241870000Y-80970000D01*
X241870000Y-80970000D02*
X241600000Y-80700000D01*
D39*
X230000000Y-81750000D02*
X231892000Y-81750000D01*
X231892000Y-81750000D02*
X232166000Y-82024000D01*
D40*
X227100000Y-81900000D02*
X229850000Y-81900000D01*
X229850000Y-81900000D02*
X230000000Y-81750000D01*
D39*
X212688100Y-77600000D02*
X212688100Y-78288100D01*
X212688100Y-78288100D02*
X213200000Y-78800000D01*
D41*
X212688100Y-76150000D02*
X212688100Y-77600000D01*
X212688100Y-78100000D02*
X212688100Y-78288100D01*
D39*
X212688100Y-77600000D02*
X212688100Y-78100000D01*
X232166000Y-82024000D02*
X232166000Y-83266000D01*
X232166000Y-83266000D02*
X233000000Y-84100000D01*
D41*
X212600000Y-74600000D02*
X212600000Y-76061900D01*
X212600000Y-76061900D02*
X212688100Y-76150000D01*
X234666000Y-81044000D02*
X234666000Y-82314000D01*
X234666000Y-82314000D02*
X232456000Y-82314000D01*
X232456000Y-82314000D02*
X232166000Y-82024000D01*
D39*
X258907901Y-79507901D02*
X260500000Y-81100000D01*
X258907901Y-78490432D02*
X258907901Y-79507901D01*
D42*
X242640000Y-80970000D02*
X244130000Y-80970000D01*
X244130000Y-80970000D02*
X244790000Y-81630000D01*
X247170000Y-77630000D02*
X247170000Y-78569998D01*
X247170000Y-78569998D02*
X244790000Y-80949998D01*
X244790000Y-80949998D02*
X244790000Y-81630000D01*
D39*
X239455355Y-92600000D02*
X235500000Y-92600000D01*
X223500000Y-75100000D02*
X222366175Y-75100000D01*
X222366175Y-75100000D02*
X221152594Y-76313581D01*
X221152594Y-76313581D02*
X221152594Y-77203582D01*
X272167011Y-76757026D02*
X272617011Y-76757026D01*
X272617011Y-76757026D02*
X274367011Y-78507026D01*
X258907901Y-78490432D02*
X258457900Y-78490432D01*
X258457900Y-78490432D02*
X256707901Y-76740433D01*
X274367011Y-78507026D02*
X274367011Y-80232989D01*
X274367011Y-80232989D02*
X274000000Y-80600000D01*
D43*
X244450000Y-92600000D02*
X239455355Y-92600000D01*
D39*
X239455355Y-92600000D02*
X239455355Y-94726204D01*
X239455355Y-90476204D02*
X239455355Y-92600000D01*
D44*
X231555355Y-90476204D02*
X227705354Y-90476204D01*
X231555355Y-94726204D02*
X227705354Y-94726204D01*
D39*
X279167012Y-74507026D02*
X276767013Y-74507026D01*
X276767013Y-74507026D02*
X276767012Y-74507025D01*
D38*
X263707900Y-74490434D02*
X263707900Y-74340434D01*
D39*
X263707900Y-74490434D02*
X261307902Y-74490434D01*
D38*
X217502726Y-91178832D02*
X217484104Y-91178832D01*
X215800000Y-94400000D02*
X215800000Y-92800000D01*
X217484104Y-91178832D02*
X217484104Y-92715896D01*
X217484104Y-92715896D02*
X217400000Y-92800000D01*
D43*
X188600000Y-99000000D02*
X189000000Y-99400000D01*
X189000000Y-99400000D02*
X189400000Y-99000000D01*
D39*
X219805354Y-92600000D02*
X223800000Y-92600000D01*
D37*
X210296002Y-99000000D02*
X214396002Y-94900000D01*
X207800000Y-99000000D02*
X209900000Y-99000000D01*
X188600000Y-99000000D02*
X207800000Y-99000000D01*
D43*
X216696002Y-92600000D02*
X214396002Y-94900000D01*
X219805354Y-92600000D02*
X216696002Y-92600000D01*
X219805354Y-92600000D02*
X219805354Y-94726204D01*
X219805354Y-90476204D02*
X219805354Y-92600000D01*
D39*
X225500000Y-77100000D02*
X223656177Y-77100000D01*
X223656177Y-77100000D02*
X223552595Y-77203582D01*
D43*
X188600000Y-99000000D02*
X188600000Y-97200000D01*
X188600000Y-99000000D02*
X190400000Y-99000000D01*
D44*
X193300000Y-146400000D02*
X200421484Y-146400000D01*
X200421484Y-146400000D02*
X203800000Y-143021484D01*
X203800000Y-143021484D02*
X203800000Y-141300000D01*
D45*
X188600000Y-151100000D02*
X193300000Y-146400000D01*
D46*
X188561230Y-151100000D02*
X188600000Y-151100000D01*
D43*
X164300002Y-151100000D02*
X188561230Y-151100000D01*
X188561230Y-151100000D02*
X188567241Y-151106011D01*
D39*
X252500000Y-149500000D02*
X252500000Y-154500000D01*
X241200000Y-131300000D02*
X241200000Y-138200000D01*
X241200000Y-138200000D02*
X243300000Y-140300000D01*
X243300000Y-140300000D02*
X253800000Y-140300000D01*
X253800000Y-140300000D02*
X256380000Y-137720000D01*
X256380000Y-137720000D02*
X256380000Y-131500000D01*
X279167012Y-78507026D02*
X280842974Y-78507026D01*
X280842974Y-78507026D02*
X280850000Y-78500000D01*
D46*
X153950000Y-149900000D02*
X157550000Y-153500000D01*
X157550000Y-153500000D02*
X161900002Y-153500000D01*
X161900002Y-153500000D02*
X164300002Y-151100000D01*
X153950000Y-148900000D02*
X153950000Y-149900000D01*
D39*
X279167012Y-80507026D02*
X279167012Y-78507026D01*
X263707900Y-78490434D02*
X265390434Y-78490434D01*
X279167012Y-80507026D02*
X282509986Y-83850000D01*
X282509986Y-83850000D02*
X294800000Y-83850000D01*
X294800000Y-83850000D02*
X296800000Y-85850000D01*
X294000000Y-122100000D02*
X290500000Y-122100000D01*
X296800000Y-85850000D02*
X296800000Y-119300000D01*
X296800000Y-119300000D02*
X294000000Y-122100000D01*
X290500000Y-122100000D02*
X290500000Y-129100000D01*
X285500000Y-129100000D02*
X290500000Y-129100000D01*
X271740000Y-124100000D02*
X271740000Y-121859998D01*
X271740000Y-121859998D02*
X274999999Y-118599999D01*
X274999999Y-118599999D02*
X283999999Y-118599999D01*
X283999999Y-118599999D02*
X283999999Y-120599999D01*
X283999999Y-120599999D02*
X285500000Y-122100000D01*
X285500000Y-122100000D02*
X290500000Y-122100000D01*
D41*
X263707900Y-78340434D02*
X263707900Y-78490434D01*
X279167012Y-78507026D02*
X279167012Y-78357026D01*
D39*
X256500000Y-127100000D02*
X254767589Y-127100000D01*
X260310000Y-127100000D02*
X256500000Y-127100000D01*
X264120000Y-127100000D02*
X260310000Y-127100000D01*
X267930000Y-127100000D02*
X264120000Y-127100000D01*
X271740000Y-127100000D02*
X267930000Y-127100000D01*
X271740000Y-124100000D02*
X271740000Y-127100000D01*
X267930000Y-124100000D02*
X271740000Y-124100000D01*
X264120000Y-124100000D02*
X267930000Y-124100000D01*
X260310000Y-124100000D02*
X264120000Y-124100000D01*
X256500000Y-124100000D02*
X260310000Y-124100000D01*
X227500000Y-115950000D02*
X245500000Y-115950000D01*
X245500000Y-115950000D02*
X245600000Y-116050000D01*
X218400000Y-131300000D02*
X210100000Y-123000000D01*
X210100000Y-123000000D02*
X203600000Y-123000000D01*
X203600000Y-116000000D02*
X227450000Y-116000000D01*
X227450000Y-116000000D02*
X227500000Y-115950000D01*
X227550000Y-116000000D02*
X227500000Y-115950000D01*
D46*
X203600000Y-109000000D02*
X207842640Y-109000000D01*
X203600000Y-123000000D02*
X203600000Y-116000000D01*
X203600000Y-109000000D02*
X203600000Y-116000000D01*
X152442140Y-142200000D02*
X149092140Y-142200000D01*
X149092140Y-142200000D02*
X148500000Y-142792140D01*
X148500000Y-142792140D02*
X148500000Y-144650000D01*
X148500000Y-144650000D02*
X148500000Y-148900000D01*
X152442141Y-138300000D02*
X152442141Y-142199999D01*
X152442141Y-142199999D02*
X152442140Y-142200000D01*
X152442140Y-138296942D02*
X152468015Y-138271067D01*
X148500000Y-147100395D02*
X148500000Y-148900000D01*
D38*
X249300000Y-81000000D02*
X249300000Y-82290000D01*
X249300000Y-82290000D02*
X249310000Y-82300000D01*
X249300000Y-81000000D02*
X250000000Y-81000000D01*
X250000000Y-81000000D02*
X250000000Y-81854609D01*
X250000000Y-81854609D02*
X249948879Y-81905730D01*
X249310000Y-82300000D02*
X249554609Y-82300000D01*
X249554609Y-82300000D02*
X249948879Y-81905730D01*
D39*
X249310000Y-81630000D02*
X247170000Y-81630000D01*
D42*
X241610000Y-82683000D02*
X242257000Y-83330000D01*
X242257000Y-83330000D02*
X246150001Y-83330001D01*
X246150001Y-83330001D02*
X247170000Y-82310002D01*
X247170000Y-82310002D02*
X247170000Y-81630000D01*
D47*
X240066000Y-82314000D02*
X241241000Y-82314000D01*
X241241000Y-82314000D02*
X241610000Y-82683000D01*
D38*
X227300000Y-78350000D02*
X227300000Y-79100000D01*
X228000000Y-78350000D02*
X227300000Y-78350000D01*
X228000000Y-79100000D02*
X228000000Y-78350000D01*
X227300000Y-79100000D02*
X228000000Y-79100000D01*
D42*
X214900000Y-77950000D02*
X215500000Y-78550000D01*
X230000000Y-77750000D02*
X228100000Y-77750000D01*
X228100000Y-77750000D02*
X227300000Y-78550000D01*
X213958100Y-76150000D02*
X213958100Y-77008100D01*
X213958100Y-77008100D02*
X214900000Y-77950000D01*
X230000000Y-77750000D02*
X230450000Y-77750000D01*
X230000000Y-77750000D02*
X230392000Y-77750000D01*
X230392000Y-77750000D02*
X232166000Y-79524000D01*
D39*
X186400000Y-76100000D02*
X186400000Y-74897919D01*
X186400000Y-74897919D02*
X184708222Y-73206141D01*
X184708222Y-73206141D02*
X184708222Y-72758221D01*
D42*
X213958100Y-76150000D02*
X213958100Y-73758100D01*
X213958100Y-73758100D02*
X212958221Y-72758221D01*
X212958221Y-72758221D02*
X211758221Y-72758221D01*
D46*
X184708222Y-72758221D02*
X211758221Y-72758221D01*
D39*
X143900000Y-74000000D02*
X143160000Y-74740000D01*
D46*
X145141779Y-72758221D02*
X143900000Y-74000000D01*
X184708222Y-72758221D02*
X145141779Y-72758221D01*
D39*
X143160000Y-76100000D02*
X143160000Y-74740000D01*
D41*
X232166000Y-79524000D02*
X233186000Y-78504000D01*
X233186000Y-78504000D02*
X234666000Y-78504000D01*
D46*
X160342141Y-138300000D02*
X160342141Y-142199999D01*
X160342141Y-142199999D02*
X160342140Y-142200000D01*
X160342141Y-135307859D02*
X160342141Y-138300000D01*
X160255317Y-142554083D02*
X160255317Y-142027295D01*
X160342141Y-135307859D02*
X163600000Y-132050000D01*
X160255317Y-142027295D02*
X160369836Y-141912776D01*
X160369836Y-141912776D02*
X160342140Y-141885080D01*
X163600000Y-132050000D02*
X163600000Y-123000000D01*
D47*
X208800000Y-78600000D02*
X208800000Y-76228100D01*
X208800000Y-76228100D02*
X208878100Y-76150000D01*
D43*
X188600000Y-126200000D02*
X188600000Y-122800000D01*
X190000000Y-124800000D02*
X188600000Y-126200000D01*
D47*
X213958100Y-80650000D02*
X213958100Y-82548062D01*
X213958100Y-82548062D02*
X215810047Y-84400010D01*
X215810047Y-84400010D02*
X222299990Y-84400010D01*
X222299990Y-84400010D02*
X223552595Y-83147405D01*
X223552595Y-83147405D02*
X223552595Y-81203582D01*
D39*
X222500000Y-87100000D02*
X217600000Y-87100000D01*
X263500000Y-87100000D02*
X222500000Y-87100000D01*
X270500000Y-80100000D02*
X263500000Y-87100000D01*
X270500000Y-77100000D02*
X270500000Y-80100000D01*
D42*
X216600000Y-87100000D02*
X217600000Y-87100000D01*
D47*
X211418100Y-80650000D02*
X211418100Y-82518100D01*
X211418100Y-82518100D02*
X216000000Y-87100000D01*
X216000000Y-87100000D02*
X216600000Y-87100000D01*
D39*
X274367011Y-74507026D02*
X272417011Y-74507026D01*
X272417011Y-74507026D02*
X272167011Y-74257026D01*
D47*
X272167011Y-74257026D02*
X271142011Y-74257026D01*
D39*
X270500000Y-77100000D02*
X270500000Y-76100000D01*
D47*
X271142011Y-74257026D02*
X270500000Y-74899037D01*
X270500000Y-74899037D02*
X270500000Y-77100000D01*
X270500000Y-76100000D02*
X270500000Y-76049037D01*
X272167011Y-74382026D02*
X272167011Y-74257026D01*
D41*
X276767012Y-78507025D02*
X276767012Y-77437027D01*
X276767012Y-77437027D02*
X274367011Y-75037026D01*
X274367011Y-75037026D02*
X274367011Y-74507026D01*
D47*
X215228100Y-80650000D02*
X215228100Y-82828100D01*
X215228100Y-82828100D02*
X216100000Y-83700000D01*
X221152594Y-82747406D02*
X221152594Y-81203582D01*
X216100000Y-83700000D02*
X220200000Y-83700000D01*
X220200000Y-83700000D02*
X221152594Y-82747406D01*
D42*
X216600000Y-85600000D02*
X217500000Y-85600000D01*
D39*
X222500000Y-85600000D02*
X217500000Y-85600000D01*
D47*
X216000000Y-85600000D02*
X216600000Y-85600000D01*
X212688100Y-80650000D02*
X212688100Y-82288100D01*
X212688100Y-82288100D02*
X216000000Y-85600000D01*
D39*
X222500000Y-85600000D02*
X251200000Y-85600000D01*
X251200000Y-85600000D02*
X253200000Y-83600000D01*
X253200000Y-81600000D02*
X253200000Y-82400000D01*
X253200000Y-81600000D02*
X253200000Y-83600000D01*
X256707901Y-74240433D02*
X255082901Y-74240433D01*
X255082901Y-74240433D02*
X253200000Y-76123334D01*
X253200000Y-76123334D02*
X253200000Y-81600000D01*
D47*
X253200000Y-81800000D02*
X253200000Y-83600000D01*
D38*
X256707901Y-74240433D02*
X255832901Y-74240433D01*
D41*
X258907901Y-74490432D02*
X256957900Y-74490432D01*
X256957900Y-74490432D02*
X256707901Y-74240433D01*
X258907901Y-74490432D02*
X258907901Y-75560430D01*
X258907901Y-75560430D02*
X261307902Y-77960431D01*
X261307902Y-77960431D02*
X261307902Y-78490434D01*
X237000000Y-79100000D02*
X236326000Y-79774000D01*
X236326000Y-79774000D02*
X234666000Y-79774000D01*
X237000000Y-76100000D02*
X237000000Y-79100000D01*
X234899991Y-73999991D02*
X237000000Y-76100000D01*
X215228100Y-74371900D02*
X215600009Y-73999991D01*
X215600009Y-73999991D02*
X234899991Y-73999991D01*
X215228100Y-76150000D02*
X215228100Y-74371900D01*
D38*
X235500000Y-103400000D02*
X235500000Y-104100000D01*
X235500000Y-104800000D02*
X235500000Y-104100000D01*
X234800000Y-104800000D02*
X235500000Y-104800000D01*
X234800000Y-104800000D02*
X234800000Y-104100000D01*
X234800000Y-103400000D02*
X234800000Y-104100000D01*
X235500000Y-103400000D02*
X234800000Y-103400000D01*
X237000000Y-104200000D02*
X236300000Y-104200000D01*
X236300000Y-104200000D02*
X235500000Y-103400000D01*
X237000000Y-104200000D02*
X237000000Y-106550000D01*
X237000000Y-106550000D02*
X236950000Y-106600000D01*
X237000002Y-101800000D02*
X237000002Y-104199998D01*
X237000002Y-104199998D02*
X237000000Y-104200000D01*
X232200000Y-104100000D02*
X231600000Y-104100000D01*
X230900000Y-104200000D02*
X231600000Y-103500000D01*
X231600000Y-103500000D02*
X232200000Y-103500000D01*
X232200000Y-103500000D02*
X232200000Y-104100000D01*
X230200000Y-104200000D02*
X230900000Y-104200000D01*
X230200000Y-104200000D02*
X230200000Y-106550000D01*
X230200000Y-106550000D02*
X230150000Y-106600000D01*
X230200000Y-101799999D02*
X230200000Y-104200000D01*
X240500000Y-100300000D02*
X241200000Y-100300000D01*
X240500000Y-99600000D02*
X240500000Y-100300000D01*
X241200000Y-99600000D02*
X240500000Y-99600000D01*
X241900000Y-99600000D02*
X241200000Y-99600000D01*
X241900000Y-100300000D02*
X241900000Y-99600000D01*
X241000002Y-101800000D02*
X241000002Y-101199998D01*
X241000002Y-101199998D02*
X241900000Y-100300000D01*
X224100000Y-101900000D02*
X224100000Y-101200000D01*
X224100000Y-102600000D02*
X224100000Y-101900000D01*
X224800000Y-102600000D02*
X224100000Y-102600000D01*
X224800000Y-101900000D02*
X224800000Y-102600000D01*
X224800000Y-101200000D02*
X224800000Y-101900000D01*
X226200000Y-101799999D02*
X225399999Y-101799999D01*
X225399999Y-101799999D02*
X224800000Y-101200000D01*
X238400000Y-81200000D02*
X238400000Y-80500000D01*
X238400000Y-79800000D02*
X238400000Y-80500000D01*
X240066000Y-79774000D02*
X238426000Y-79774000D01*
X238426000Y-79774000D02*
X238400000Y-79800000D01*
X244800000Y-75600000D02*
X245500000Y-75600000D01*
X244000000Y-75600000D02*
X244800000Y-75600000D01*
D47*
X242406000Y-78504000D02*
X242640000Y-78270000D01*
D42*
X244790000Y-75610000D02*
X244800000Y-75600000D01*
X244790000Y-77630000D02*
X244790000Y-75610000D01*
X242640000Y-78270000D02*
X244150000Y-78270000D01*
X244150000Y-78270000D02*
X244790000Y-77630000D01*
D47*
X240066000Y-78504000D02*
X242406000Y-78504000D01*
D44*
X137000000Y-94700000D02*
X137699999Y-94000001D01*
X137699999Y-94000001D02*
X142400001Y-94000001D01*
X142400001Y-94000001D02*
X147400000Y-99000000D01*
D46*
X110000000Y-98500000D02*
X115000000Y-98500000D01*
X105000000Y-98500000D02*
X110000000Y-98500000D01*
X105000000Y-91500000D02*
X105000000Y-98500000D01*
X110000000Y-91500000D02*
X105000000Y-91500000D01*
X115000000Y-91500000D02*
X110000000Y-91500000D01*
X115000000Y-98500000D02*
X146900000Y-98500000D01*
X146900000Y-98500000D02*
X147400000Y-99000000D01*
X133000000Y-78400000D02*
X133000000Y-82000000D01*
X133000000Y-82000000D02*
X133000000Y-83400000D01*
D44*
X137000000Y-86900000D02*
X137000000Y-94700000D01*
X133500000Y-83400000D02*
X137000000Y-86900000D01*
D46*
X133000000Y-83400000D02*
X133250000Y-83650000D01*
D39*
X133000000Y-76100000D02*
X133000000Y-78400000D01*
D46*
X153970000Y-83400000D02*
X133500000Y-83400000D01*
X133500000Y-83400000D02*
X133250000Y-83650000D01*
D39*
X159420000Y-77950000D02*
X158200000Y-79170000D01*
D46*
X158200000Y-79170000D02*
X153970000Y-83400000D01*
D39*
X159420000Y-76100000D02*
X159420000Y-77950000D01*
D44*
X127800000Y-153200000D02*
X110600000Y-153200000D01*
X110600000Y-153200000D02*
X110000000Y-152600000D01*
X136900000Y-153200000D02*
X127800000Y-153200000D01*
X112500000Y-143500000D02*
X112500000Y-150100000D01*
X112500000Y-150100000D02*
X110000000Y-152600000D01*
X107500000Y-143500000D02*
X112500000Y-143500000D01*
X107500000Y-136500000D02*
X107500000Y-143500000D01*
X112500000Y-136500000D02*
X107500000Y-136500000D01*
D48*
G36*
X172841543Y-104758221D02*
X173053006Y-104846471D01*
X173240854Y-104991938D01*
X175882989Y-107662306D01*
X175928303Y-107711501D01*
X178604252Y-110833442D01*
X178617082Y-110846398D01*
X178832689Y-111034919D01*
X178863217Y-111054693D01*
X179123417Y-111174368D01*
X179158298Y-111184678D01*
X179441748Y-111225691D01*
X179459935Y-111227000D01*
X192987491Y-111227000D01*
X193333130Y-111295752D01*
X193615545Y-111484455D01*
X193804248Y-111766870D01*
X193873000Y-112112509D01*
X193873000Y-141087491D01*
X193804248Y-141433130D01*
X193615545Y-141715545D01*
X193333130Y-141904248D01*
X192987491Y-141973000D01*
X184512509Y-141973000D01*
X184166870Y-141904248D01*
X183884455Y-141715545D01*
X183695752Y-141433130D01*
X183627000Y-141087491D01*
X183627000Y-135600000D01*
X183624560Y-135575224D01*
X183548440Y-135192541D01*
X183529477Y-135146760D01*
X183312704Y-134822336D01*
X183277664Y-134787296D01*
X182953240Y-134570523D01*
X182907459Y-134551560D01*
X182524776Y-134475440D01*
X182500000Y-134473000D01*
X161512509Y-134473000D01*
X161166870Y-134404248D01*
X160884455Y-134215545D01*
X160695752Y-133933130D01*
X160627000Y-133587491D01*
X160627000Y-105612509D01*
X160695752Y-105266870D01*
X160884455Y-104984455D01*
X161166870Y-104795752D01*
X161512509Y-104727000D01*
X172606006Y-104727000D01*
X172841543Y-104758221D01*
X172841543Y-104758221D01*
G37*
X172841543Y-104758221D02*
X173053006Y-104846471D01*
X173240854Y-104991938D01*
X175882989Y-107662306D01*
X175928303Y-107711501D01*
X178604252Y-110833442D01*
X178617082Y-110846398D01*
X178832689Y-111034919D01*
X178863217Y-111054693D01*
X179123417Y-111174368D01*
X179158298Y-111184678D01*
X179441748Y-111225691D01*
X179459935Y-111227000D01*
X192987491Y-111227000D01*
X193333130Y-111295752D01*
X193615545Y-111484455D01*
X193804248Y-111766870D01*
X193873000Y-112112509D01*
X193873000Y-141087491D01*
X193804248Y-141433130D01*
X193615545Y-141715545D01*
X193333130Y-141904248D01*
X192987491Y-141973000D01*
X184512509Y-141973000D01*
X184166870Y-141904248D01*
X183884455Y-141715545D01*
X183695752Y-141433130D01*
X183627000Y-141087491D01*
X183627000Y-135600000D01*
X183624560Y-135575224D01*
X183548440Y-135192541D01*
X183529477Y-135146760D01*
X183312704Y-134822336D01*
X183277664Y-134787296D01*
X182953240Y-134570523D01*
X182907459Y-134551560D01*
X182524776Y-134475440D01*
X182500000Y-134473000D01*
X161512509Y-134473000D01*
X161166870Y-134404248D01*
X160884455Y-134215545D01*
X160695752Y-133933130D01*
X160627000Y-133587491D01*
X160627000Y-105612509D01*
X160695752Y-105266870D01*
X160884455Y-104984455D01*
X161166870Y-104795752D01*
X161512509Y-104727000D01*
X172606006Y-104727000D01*
X172841543Y-104758221D01*
G36*
X292333130Y-118195752D02*
X292615545Y-118384455D01*
X292804248Y-118666870D01*
X292873000Y-119012509D01*
X292873000Y-149054225D01*
X291956555Y-148673684D01*
X290394298Y-148672320D01*
X288950440Y-149268911D01*
X287844793Y-150372629D01*
X287245684Y-151815445D01*
X287244320Y-153377702D01*
X287840911Y-154821560D01*
X288890517Y-155873000D01*
X261004758Y-155873000D01*
X260996358Y-155872963D01*
X250704711Y-155781886D01*
X250361528Y-155710856D01*
X250081716Y-155521645D01*
X249894991Y-155240173D01*
X249827000Y-154896373D01*
X249827000Y-144602099D01*
X249825432Y-144582206D01*
X249776359Y-144272790D01*
X249764049Y-144234955D01*
X249621646Y-143955907D01*
X249598232Y-143923738D01*
X249376475Y-143702446D01*
X249344258Y-143679101D01*
X249064912Y-143537283D01*
X249027051Y-143525051D01*
X248717534Y-143476627D01*
X248697638Y-143475101D01*
X203011838Y-143570878D01*
X202732108Y-143527114D01*
X202488684Y-143403533D01*
X202295443Y-143210697D01*
X202171349Y-142967528D01*
X202127000Y-142687895D01*
X202127000Y-140612509D01*
X202195752Y-140266870D01*
X202384455Y-139984455D01*
X202666870Y-139795752D01*
X203012509Y-139727000D01*
X227300000Y-139727000D01*
X227324776Y-139724560D01*
X227707459Y-139648440D01*
X227753240Y-139629477D01*
X228077664Y-139412704D01*
X228112704Y-139377664D01*
X228329477Y-139053240D01*
X228348440Y-139007459D01*
X228495752Y-138266870D01*
X228684455Y-137984455D01*
X228966870Y-137795752D01*
X229312509Y-137727000D01*
X252800000Y-137727000D01*
X252824776Y-137724560D01*
X253207459Y-137648440D01*
X253253240Y-137629477D01*
X253577664Y-137412704D01*
X253612704Y-137377664D01*
X253829477Y-137053240D01*
X253848440Y-137007459D01*
X253924560Y-136624776D01*
X253927000Y-136600000D01*
X253927000Y-130411328D01*
X276742640Y-130411328D01*
X277058178Y-131174989D01*
X277641938Y-131759768D01*
X278405047Y-132076639D01*
X279231328Y-132077360D01*
X279994989Y-131761822D01*
X280579768Y-131178062D01*
X280896639Y-130414953D01*
X280897360Y-129588672D01*
X280581822Y-128825011D01*
X279998062Y-128240232D01*
X279234953Y-127923361D01*
X278408672Y-127922640D01*
X277645011Y-128238178D01*
X277060232Y-128821938D01*
X276743361Y-129585047D01*
X276742640Y-130411328D01*
X253927000Y-130411328D01*
X253927000Y-126381622D01*
X274392666Y-126381622D01*
X274685416Y-127090132D01*
X275227017Y-127632678D01*
X275935014Y-127926665D01*
X276701622Y-127927334D01*
X277410132Y-127634584D01*
X277952678Y-127092983D01*
X278246665Y-126384986D01*
X278247334Y-125618378D01*
X277954584Y-124909868D01*
X277412983Y-124367322D01*
X276704986Y-124073335D01*
X275938378Y-124072666D01*
X275229868Y-124365416D01*
X274687322Y-124907017D01*
X274393335Y-125615014D01*
X274392666Y-126381622D01*
X253927000Y-126381622D01*
X253927000Y-119012509D01*
X253995752Y-118666870D01*
X254184455Y-118384455D01*
X254466870Y-118195752D01*
X254812509Y-118127000D01*
X291987491Y-118127000D01*
X292333130Y-118195752D01*
X292333130Y-118195752D01*
G37*
X292333130Y-118195752D02*
X292615545Y-118384455D01*
X292804248Y-118666870D01*
X292873000Y-119012509D01*
X292873000Y-149054225D01*
X291956555Y-148673684D01*
X290394298Y-148672320D01*
X288950440Y-149268911D01*
X287844793Y-150372629D01*
X287245684Y-151815445D01*
X287244320Y-153377702D01*
X287840911Y-154821560D01*
X288890517Y-155873000D01*
X261004758Y-155873000D01*
X260996358Y-155872963D01*
X250704711Y-155781886D01*
X250361528Y-155710856D01*
X250081716Y-155521645D01*
X249894991Y-155240173D01*
X249827000Y-154896373D01*
X249827000Y-144602099D01*
X249825432Y-144582206D01*
X249776359Y-144272790D01*
X249764049Y-144234955D01*
X249621646Y-143955907D01*
X249598232Y-143923738D01*
X249376475Y-143702446D01*
X249344258Y-143679101D01*
X249064912Y-143537283D01*
X249027051Y-143525051D01*
X248717534Y-143476627D01*
X248697638Y-143475101D01*
X203011838Y-143570878D01*
X202732108Y-143527114D01*
X202488684Y-143403533D01*
X202295443Y-143210697D01*
X202171349Y-142967528D01*
X202127000Y-142687895D01*
X202127000Y-140612509D01*
X202195752Y-140266870D01*
X202384455Y-139984455D01*
X202666870Y-139795752D01*
X203012509Y-139727000D01*
X227300000Y-139727000D01*
X227324776Y-139724560D01*
X227707459Y-139648440D01*
X227753240Y-139629477D01*
X228077664Y-139412704D01*
X228112704Y-139377664D01*
X228329477Y-139053240D01*
X228348440Y-139007459D01*
X228495752Y-138266870D01*
X228684455Y-137984455D01*
X228966870Y-137795752D01*
X229312509Y-137727000D01*
X252800000Y-137727000D01*
X252824776Y-137724560D01*
X253207459Y-137648440D01*
X253253240Y-137629477D01*
X253577664Y-137412704D01*
X253612704Y-137377664D01*
X253829477Y-137053240D01*
X253848440Y-137007459D01*
X253924560Y-136624776D01*
X253927000Y-136600000D01*
X253927000Y-130411328D01*
X276742640Y-130411328D01*
X277058178Y-131174989D01*
X277641938Y-131759768D01*
X278405047Y-132076639D01*
X279231328Y-132077360D01*
X279994989Y-131761822D01*
X280579768Y-131178062D01*
X280896639Y-130414953D01*
X280897360Y-129588672D01*
X280581822Y-128825011D01*
X279998062Y-128240232D01*
X279234953Y-127923361D01*
X278408672Y-127922640D01*
X277645011Y-128238178D01*
X277060232Y-128821938D01*
X276743361Y-129585047D01*
X276742640Y-130411328D01*
X253927000Y-130411328D01*
X253927000Y-126381622D01*
X274392666Y-126381622D01*
X274685416Y-127090132D01*
X275227017Y-127632678D01*
X275935014Y-127926665D01*
X276701622Y-127927334D01*
X277410132Y-127634584D01*
X277952678Y-127092983D01*
X278246665Y-126384986D01*
X278247334Y-125618378D01*
X277954584Y-124909868D01*
X277412983Y-124367322D01*
X276704986Y-124073335D01*
X275938378Y-124072666D01*
X275229868Y-124365416D01*
X274687322Y-124907017D01*
X274393335Y-125615014D01*
X274392666Y-126381622D01*
X253927000Y-126381622D01*
X253927000Y-119012509D01*
X253995752Y-118666870D01*
X254184455Y-118384455D01*
X254466870Y-118195752D01*
X254812509Y-118127000D01*
X291987491Y-118127000D01*
X292333130Y-118195752D01*
G36*
X273333130Y-88795752D02*
X273615545Y-88984455D01*
X273804248Y-89266870D01*
X273873000Y-89612509D01*
X273873000Y-101787491D01*
X273804248Y-102133130D01*
X273615545Y-102415545D01*
X273333130Y-102604248D01*
X272987491Y-102673000D01*
X253078129Y-102673000D01*
X252772983Y-102367322D01*
X252064986Y-102073335D01*
X251298378Y-102072666D01*
X250589868Y-102365416D01*
X250281747Y-102673000D01*
X244612509Y-102673000D01*
X244266870Y-102604248D01*
X243984455Y-102415545D01*
X243795752Y-102133130D01*
X243727000Y-101787491D01*
X243727000Y-100411328D01*
X247102640Y-100411328D01*
X247418178Y-101174989D01*
X248001938Y-101759768D01*
X248765047Y-102076639D01*
X249591328Y-102077360D01*
X250354989Y-101761822D01*
X250939768Y-101178062D01*
X251256639Y-100414953D01*
X251257360Y-99588672D01*
X250941822Y-98825011D01*
X250358062Y-98240232D01*
X249594953Y-97923361D01*
X248768672Y-97922640D01*
X248005011Y-98238178D01*
X247420232Y-98821938D01*
X247103361Y-99585047D01*
X247102640Y-100411328D01*
X243727000Y-100411328D01*
X243727000Y-97600000D01*
X243724560Y-97575224D01*
X243648440Y-97192541D01*
X243629477Y-97146760D01*
X243412704Y-96822336D01*
X243377664Y-96787296D01*
X243053240Y-96570523D01*
X243007459Y-96551560D01*
X242624776Y-96475440D01*
X242600000Y-96473000D01*
X239012509Y-96473000D01*
X238666870Y-96404248D01*
X238384455Y-96215545D01*
X238195752Y-95933130D01*
X238127000Y-95587491D01*
X238127000Y-89612509D01*
X238195752Y-89266870D01*
X238384455Y-88984455D01*
X238666870Y-88795752D01*
X239012509Y-88727000D01*
X272987491Y-88727000D01*
X273333130Y-88795752D01*
X273333130Y-88795752D01*
G37*
X273333130Y-88795752D02*
X273615545Y-88984455D01*
X273804248Y-89266870D01*
X273873000Y-89612509D01*
X273873000Y-101787491D01*
X273804248Y-102133130D01*
X273615545Y-102415545D01*
X273333130Y-102604248D01*
X272987491Y-102673000D01*
X253078129Y-102673000D01*
X252772983Y-102367322D01*
X252064986Y-102073335D01*
X251298378Y-102072666D01*
X250589868Y-102365416D01*
X250281747Y-102673000D01*
X244612509Y-102673000D01*
X244266870Y-102604248D01*
X243984455Y-102415545D01*
X243795752Y-102133130D01*
X243727000Y-101787491D01*
X243727000Y-100411328D01*
X247102640Y-100411328D01*
X247418178Y-101174989D01*
X248001938Y-101759768D01*
X248765047Y-102076639D01*
X249591328Y-102077360D01*
X250354989Y-101761822D01*
X250939768Y-101178062D01*
X251256639Y-100414953D01*
X251257360Y-99588672D01*
X250941822Y-98825011D01*
X250358062Y-98240232D01*
X249594953Y-97923361D01*
X248768672Y-97922640D01*
X248005011Y-98238178D01*
X247420232Y-98821938D01*
X247103361Y-99585047D01*
X247102640Y-100411328D01*
X243727000Y-100411328D01*
X243727000Y-97600000D01*
X243724560Y-97575224D01*
X243648440Y-97192541D01*
X243629477Y-97146760D01*
X243412704Y-96822336D01*
X243377664Y-96787296D01*
X243053240Y-96570523D01*
X243007459Y-96551560D01*
X242624776Y-96475440D01*
X242600000Y-96473000D01*
X239012509Y-96473000D01*
X238666870Y-96404248D01*
X238384455Y-96215545D01*
X238195752Y-95933130D01*
X238127000Y-95587491D01*
X238127000Y-89612509D01*
X238195752Y-89266870D01*
X238384455Y-88984455D01*
X238666870Y-88795752D01*
X239012509Y-88727000D01*
X272987491Y-88727000D01*
X273333130Y-88795752D01*
G36*
X212833130Y-85795752D02*
X213115545Y-85984455D01*
X213304248Y-86266870D01*
X213373000Y-86612509D01*
X213373000Y-87600000D01*
X213375440Y-87624776D01*
X213451560Y-88007459D01*
X213470523Y-88053240D01*
X213687296Y-88377664D01*
X213722336Y-88412704D01*
X214046760Y-88629477D01*
X214092541Y-88648440D01*
X214475224Y-88724560D01*
X214500000Y-88727000D01*
X220487491Y-88727000D01*
X220833130Y-88795752D01*
X221115545Y-88984455D01*
X221304248Y-89266870D01*
X221373000Y-89612509D01*
X221373000Y-101087491D01*
X221304248Y-101433130D01*
X221115545Y-101715545D01*
X220833130Y-101904248D01*
X220487491Y-101973000D01*
X195500000Y-101973000D01*
X195475224Y-101975440D01*
X195092541Y-102051560D01*
X195046760Y-102070523D01*
X194722336Y-102287296D01*
X194687296Y-102322336D01*
X194470523Y-102646760D01*
X194451560Y-102692541D01*
X194375440Y-103075224D01*
X194373000Y-103100000D01*
X194373000Y-104087491D01*
X194304248Y-104433130D01*
X194115545Y-104715545D01*
X193833130Y-104904248D01*
X193487491Y-104973000D01*
X183012509Y-104973000D01*
X182666870Y-104904248D01*
X182384455Y-104715545D01*
X182195752Y-104433130D01*
X182127000Y-104087491D01*
X182127000Y-86612509D01*
X182195752Y-86266870D01*
X182384455Y-85984455D01*
X182666870Y-85795752D01*
X183012509Y-85727000D01*
X212487491Y-85727000D01*
X212833130Y-85795752D01*
X212833130Y-85795752D01*
G37*
X212833130Y-85795752D02*
X213115545Y-85984455D01*
X213304248Y-86266870D01*
X213373000Y-86612509D01*
X213373000Y-87600000D01*
X213375440Y-87624776D01*
X213451560Y-88007459D01*
X213470523Y-88053240D01*
X213687296Y-88377664D01*
X213722336Y-88412704D01*
X214046760Y-88629477D01*
X214092541Y-88648440D01*
X214475224Y-88724560D01*
X214500000Y-88727000D01*
X220487491Y-88727000D01*
X220833130Y-88795752D01*
X221115545Y-88984455D01*
X221304248Y-89266870D01*
X221373000Y-89612509D01*
X221373000Y-101087491D01*
X221304248Y-101433130D01*
X221115545Y-101715545D01*
X220833130Y-101904248D01*
X220487491Y-101973000D01*
X195500000Y-101973000D01*
X195475224Y-101975440D01*
X195092541Y-102051560D01*
X195046760Y-102070523D01*
X194722336Y-102287296D01*
X194687296Y-102322336D01*
X194470523Y-102646760D01*
X194451560Y-102692541D01*
X194375440Y-103075224D01*
X194373000Y-103100000D01*
X194373000Y-104087491D01*
X194304248Y-104433130D01*
X194115545Y-104715545D01*
X193833130Y-104904248D01*
X193487491Y-104973000D01*
X183012509Y-104973000D01*
X182666870Y-104904248D01*
X182384455Y-104715545D01*
X182195752Y-104433130D01*
X182127000Y-104087491D01*
X182127000Y-86612509D01*
X182195752Y-86266870D01*
X182384455Y-85984455D01*
X182666870Y-85795752D01*
X183012509Y-85727000D01*
X212487491Y-85727000D01*
X212833130Y-85795752D01*
G36*
X245473000Y-82503001D02*
X244077000Y-82503000D01*
X244077000Y-81750000D01*
X244066994Y-81700590D01*
X244038553Y-81658965D01*
X243996159Y-81631685D01*
X243950000Y-81623000D01*
X241327000Y-81623000D01*
X241327000Y-80327000D01*
X245473000Y-80327000D01*
X245473000Y-82503001D01*
X245473000Y-82503001D01*
G37*
X245473000Y-82503001D02*
X244077000Y-82503000D01*
X244077000Y-81750000D01*
X244066994Y-81700590D01*
X244038553Y-81658965D01*
X243996159Y-81631685D01*
X243950000Y-81623000D01*
X241327000Y-81623000D01*
X241327000Y-80327000D01*
X245473000Y-80327000D01*
X245473000Y-82503001D01*
G36*
X243173000Y-78923000D02*
X239377000Y-78923000D01*
X239377000Y-77627000D01*
X243173000Y-77627000D01*
X243173000Y-78923000D01*
X243173000Y-78923000D01*
G37*
X243173000Y-78923000D02*
X239377000Y-78923000D01*
X239377000Y-77627000D01*
X243173000Y-77627000D01*
X243173000Y-78923000D01*
G36*
X230673000Y-79573000D02*
X227027000Y-79573000D01*
X227027000Y-76827000D01*
X230673000Y-76827000D01*
X230673000Y-79573000D01*
X230673000Y-79573000D01*
G37*
X230673000Y-79573000D02*
X227027000Y-79573000D01*
X227027000Y-76827000D01*
X230673000Y-76827000D01*
X230673000Y-79573000D01*
G36*
X245673000Y-76573000D02*
X243827000Y-76573000D01*
X243827000Y-75327000D01*
X245673000Y-75327000D01*
X245673000Y-76573000D01*
X245673000Y-76573000D01*
G37*
X245673000Y-76573000D02*
X243827000Y-76573000D01*
X243827000Y-75327000D01*
X245673000Y-75327000D01*
X245673000Y-76573000D01*
G36*
X240773000Y-81373000D02*
X238227000Y-81373000D01*
X238227000Y-79527000D01*
X240773000Y-79527000D01*
X240773000Y-81373000D01*
X240773000Y-81373000D01*
G37*
X240773000Y-81373000D02*
X238227000Y-81373000D01*
X238227000Y-79527000D01*
X240773000Y-79527000D01*
X240773000Y-81373000D01*
G36*
X152273000Y-105173000D02*
X117227000Y-105173000D01*
X117227000Y-101100000D01*
X117216994Y-101050590D01*
X117188553Y-101008965D01*
X117146159Y-100981685D01*
X117100000Y-100973000D01*
X103027000Y-100973000D01*
X103027000Y-88827000D01*
X152273000Y-88827000D01*
X152273000Y-105173000D01*
X152273000Y-105173000D01*
G37*
X152273000Y-105173000D02*
X117227000Y-105173000D01*
X117227000Y-101100000D01*
X117216994Y-101050590D01*
X117188553Y-101008965D01*
X117146159Y-100981685D01*
X117100000Y-100973000D01*
X103027000Y-100973000D01*
X103027000Y-88827000D01*
X152273000Y-88827000D01*
X152273000Y-105173000D01*
G36*
X113873000Y-144873000D02*
X106127000Y-144873000D01*
X106127000Y-135127000D01*
X113873000Y-135127000D01*
X113873000Y-144873000D01*
X113873000Y-144873000D01*
G37*
X113873000Y-144873000D02*
X106127000Y-144873000D01*
X106127000Y-135127000D01*
X113873000Y-135127000D01*
X113873000Y-144873000D01*
G36*
X225173000Y-102773000D02*
X223927000Y-102773000D01*
X223927000Y-101027000D01*
X225173000Y-101027000D01*
X225173000Y-102773000D01*
X225173000Y-102773000D01*
G37*
X225173000Y-102773000D02*
X223927000Y-102773000D01*
X223927000Y-101027000D01*
X225173000Y-101027000D01*
X225173000Y-102773000D01*
G36*
X227173000Y-107073000D02*
X223927000Y-107073000D01*
X223927000Y-103427000D01*
X227173000Y-103427000D01*
X227173000Y-107073000D01*
X227173000Y-107073000D01*
G37*
X227173000Y-107073000D02*
X223927000Y-107073000D01*
X223927000Y-103427000D01*
X227173000Y-103427000D01*
X227173000Y-107073000D01*
G36*
X232373000Y-107073000D02*
X229327000Y-107073000D01*
X229327000Y-101027000D01*
X232373000Y-101027000D01*
X232373000Y-107073000D01*
X232373000Y-107073000D01*
G37*
X232373000Y-107073000D02*
X229327000Y-107073000D01*
X229327000Y-101027000D01*
X232373000Y-101027000D01*
X232373000Y-107073000D01*
G36*
X221273000Y-114700000D02*
X221283006Y-114749410D01*
X221311447Y-114791035D01*
X221353841Y-114818315D01*
X221400000Y-114827000D01*
X246973000Y-114827000D01*
X246973000Y-117073000D01*
X221400000Y-117073000D01*
X221353841Y-117081685D01*
X221311447Y-117108965D01*
X221283006Y-117150590D01*
X221273000Y-117200000D01*
X221273000Y-126200000D01*
X221281685Y-126246159D01*
X221308965Y-126288553D01*
X221350590Y-126316994D01*
X221400000Y-126327000D01*
X231473000Y-126327000D01*
X231473000Y-133473000D01*
X200527000Y-133473000D01*
X200527000Y-106127000D01*
X221273000Y-106127000D01*
X221273000Y-114700000D01*
X221273000Y-114700000D01*
G37*
X221273000Y-114700000D02*
X221283006Y-114749410D01*
X221311447Y-114791035D01*
X221353841Y-114818315D01*
X221400000Y-114827000D01*
X246973000Y-114827000D01*
X246973000Y-117073000D01*
X221400000Y-117073000D01*
X221353841Y-117081685D01*
X221311447Y-117108965D01*
X221283006Y-117150590D01*
X221273000Y-117200000D01*
X221273000Y-126200000D01*
X221281685Y-126246159D01*
X221308965Y-126288553D01*
X221350590Y-126316994D01*
X221400000Y-126327000D01*
X231473000Y-126327000D01*
X231473000Y-133473000D01*
X200527000Y-133473000D01*
X200527000Y-106127000D01*
X221273000Y-106127000D01*
X221273000Y-114700000D01*
G36*
X242273000Y-137873000D02*
X240127000Y-137873000D01*
X240127000Y-129227000D01*
X242273000Y-129227000D01*
X242273000Y-137873000D01*
X242273000Y-137873000D01*
G37*
X242273000Y-137873000D02*
X240127000Y-137873000D01*
X240127000Y-129227000D01*
X242273000Y-129227000D01*
X242273000Y-137873000D01*
G36*
X237873000Y-107073000D02*
X234627000Y-107073000D01*
X234627000Y-101027000D01*
X237873000Y-101027000D01*
X237873000Y-107073000D01*
X237873000Y-107073000D01*
G37*
X237873000Y-107073000D02*
X234627000Y-107073000D01*
X234627000Y-101027000D01*
X237873000Y-101027000D01*
X237873000Y-107073000D01*
G36*
X242373000Y-102473000D02*
X240127000Y-102473000D01*
X240127000Y-99427000D01*
X242373000Y-99427000D01*
X242373000Y-102473000D01*
X242373000Y-102473000D01*
G37*
X242373000Y-102473000D02*
X240127000Y-102473000D01*
X240127000Y-99427000D01*
X242373000Y-99427000D01*
X242373000Y-102473000D01*
G36*
X250173000Y-82473000D02*
X248605000Y-82473000D01*
X248605000Y-81915750D01*
X248446250Y-81757000D01*
X248027000Y-81757000D01*
X248027000Y-81503000D01*
X248446250Y-81503000D01*
X248605000Y-81344250D01*
X248605000Y-80827000D01*
X250173000Y-80827000D01*
X250173000Y-82473000D01*
X250173000Y-82473000D01*
G37*
X250173000Y-82473000D02*
X248605000Y-82473000D01*
X248605000Y-81915750D01*
X248446250Y-81757000D01*
X248027000Y-81757000D01*
X248027000Y-81503000D01*
X248446250Y-81503000D01*
X248605000Y-81344250D01*
X248605000Y-80827000D01*
X250173000Y-80827000D01*
X250173000Y-82473000D01*
X242635000Y-103327000D02*
X243473000Y-103327000D01*
X242635000Y-103530200D02*
X243473000Y-103530200D01*
X242635000Y-103733400D02*
X243473000Y-103733400D01*
X242612650Y-103936600D02*
X243473000Y-103936600D01*
X240853000Y-104139800D02*
X243473000Y-104139800D01*
X240873000Y-104343000D02*
X241127000Y-104343000D01*
X242492250Y-104343000D02*
X243473000Y-104343000D01*
X242635000Y-104546200D02*
X243473000Y-104546200D01*
X242635000Y-104749400D02*
X243473000Y-104749400D01*
X242635000Y-104952600D02*
X243473000Y-104952600D01*
X242635000Y-105155800D02*
X243473000Y-105155800D01*
X242559327Y-105359000D02*
X243473000Y-105359000D01*
X241160226Y-105562200D02*
X241162950Y-105562200D01*
X242385825Y-105562200D02*
X243473000Y-105562200D01*
X241290145Y-105765400D02*
X243473000Y-105765400D01*
X241335000Y-105968600D02*
X243473000Y-105968600D01*
X241335000Y-106171800D02*
X243473000Y-106171800D01*
X241274250Y-106375000D02*
X243473000Y-106375000D01*
X240103000Y-106578200D02*
X243473000Y-106578200D01*
X241230650Y-106781400D02*
X243473000Y-106781400D01*
X241335000Y-106984600D02*
X243473000Y-106984600D01*
X243473000Y-107073000D02*
X241335000Y-107073000D01*
X241335000Y-106885750D01*
X241176250Y-106727000D01*
X240377000Y-106727000D01*
X240377000Y-106747000D01*
X240123000Y-106747000D01*
X240123000Y-106727000D01*
X240103000Y-106727000D01*
X240103000Y-106473000D01*
X240123000Y-106473000D01*
X240123000Y-106453000D01*
X240377000Y-106453000D01*
X240377000Y-106473000D01*
X241176250Y-106473000D01*
X241335000Y-106314250D01*
X241335000Y-105873690D01*
X241238327Y-105640301D01*
X241127002Y-105528977D01*
X241127002Y-105526252D01*
X241285750Y-105685000D01*
X242126309Y-105685000D01*
X242359698Y-105588327D01*
X242538327Y-105409699D01*
X242635000Y-105176310D01*
X242635000Y-104485750D01*
X242476250Y-104327000D01*
X241127000Y-104327000D01*
X241127000Y-104347000D01*
X240873000Y-104347000D01*
X240873000Y-104327000D01*
X240853000Y-104327000D01*
X240853000Y-104073000D01*
X240873000Y-104073000D01*
X240873000Y-104053000D01*
X241127000Y-104053000D01*
X241127000Y-104073000D01*
X242476250Y-104073000D01*
X242635000Y-103914250D01*
X242635000Y-103327000D01*
X243473000Y-103327000D01*
X243473000Y-107073000D01*
G36*
X152325892Y-132073000D02*
X117279892Y-132073000D01*
X117279892Y-128000000D01*
X117269886Y-127950590D01*
X117241445Y-127908965D01*
X117199051Y-127881685D01*
X117152892Y-127873000D01*
X103079892Y-127873000D01*
X103079892Y-115727000D01*
X152325892Y-115727000D01*
X152325892Y-132073000D01*
X152325892Y-132073000D01*
G37*
X152325892Y-132073000D02*
X117279892Y-132073000D01*
X117279892Y-128000000D01*
X117269886Y-127950590D01*
X117241445Y-127908965D01*
X117199051Y-127881685D01*
X117152892Y-127873000D01*
X103079892Y-127873000D01*
X103079892Y-115727000D01*
X152325892Y-115727000D01*
X152325892Y-132073000D01*
M02*
