M48
;DRILL file {KiCad 4.0.7} date 06/29/18 00:04:55
;FORMAT={3:3/ absolute / metric / suppress leading zeros}
FMAT,2
METRIC,TZ
T1C0.400
T2C0.600
T3C1.000
T4C1.200
T5C1.450
T6C1.500
T7C2.000
T8C3.000
T9C4.000
T10C5.100
T11C1.650
T12C2.000
T13C2.300
%
G90
G05
M71
T1
X214900Y-77950
X215500Y-78550
X223500Y-75100
X223800Y-92600
X224100Y-101200
X224100Y-101900
X224100Y-102600
X224100Y-103700
X224100Y-104400
X224100Y-105100
X224800Y-101200
X224800Y-101900
X224800Y-102600
X224800Y-103700
X224800Y-104400
X224800Y-105100
X225500Y-77100
X227300Y-78350
X227300Y-79100
X228000Y-78350
X228000Y-79100
X231600Y-103500
X231600Y-104100
X232200Y-103500
X232200Y-104100
X234800Y-103400
X234800Y-104100
X234800Y-104800
X235500Y-92600
X235500Y-103400
X235500Y-104100
X235500Y-104800
X238400Y-79800
X238400Y-80500
X238400Y-81200
X240500Y-99600
X240500Y-100300
X241200Y-99600
X241200Y-100300
X241600Y-80680
X241600Y-81300
X241900Y-99600
X241900Y-100300
X242500Y-103500
X242500Y-104200
X242500Y-104900
X243200Y-103500
X243200Y-104200
X243200Y-104900
X244000Y-75600
X244800Y-75600
X245500Y-75600
X249300Y-81000
X249310Y-82300
X249949Y-81906
X250000Y-81000
X260500Y-81100
X265390Y-78490
X274000Y-80600
X280850Y-78500
T2
X208800Y-78600
X212600Y-74600
X213200Y-78800
X227100Y-81900
X233000Y-84100
T3
X133000Y-76100
X135540Y-76100
X138080Y-76100
X140620Y-76100
X143160Y-76100
X145700Y-76100
X159420Y-76100
X161960Y-76100
X164500Y-76100
X167040Y-76100
X169580Y-76100
X172120Y-76100
X183860Y-76100
X186400Y-76100
X188940Y-76100
X191480Y-76100
T4
X127800Y-138200
X127800Y-153200
X136900Y-138200
X136900Y-153200
X173700Y-141600
X188700Y-141600
T5
X256380Y-98500
X256380Y-101500
X256380Y-128500
X256380Y-131500
X260190Y-98500
X260190Y-101500
X260190Y-128500
X260190Y-131500
X264000Y-98500
X264000Y-101500
X264000Y-128500
X264000Y-131500
X267810Y-98500
X267810Y-101500
X267810Y-128500
X267810Y-131500
X271620Y-98500
X271620Y-101500
X271620Y-128500
X271620Y-131500
T6
X148500Y-148900
X153950Y-148900
X159400Y-148900
X227500Y-110500
X227500Y-115950
X227500Y-121400
X230300Y-131300
X241200Y-131300
X245600Y-110450
X245600Y-115900
X245600Y-121350
T7
X105000Y-91500
X105000Y-98500
X105000Y-118300
X105000Y-125300
X107500Y-136500
X107500Y-143500
X110000Y-91500
X110000Y-98500
X110000Y-118300
X110000Y-125300
X112500Y-136500
X112500Y-143500
X115000Y-91500
X115000Y-98500
X115000Y-118300
X115000Y-125300
X226500Y-149500
X226500Y-154500
X233500Y-149500
X233500Y-154500
X251400Y-149500
X251400Y-154500
X258400Y-149500
X258400Y-154500
T8
X110000Y-77600
X110000Y-152600
X199000Y-77600
X199000Y-152600
X289600Y-77600
X291172Y-152600
T9
X163600Y-109000
X163600Y-116000
X163600Y-123000
X203600Y-109000
X203600Y-116000
X203600Y-123000
T10
X147400Y-99000
X147400Y-126200
X188600Y-99000
X188600Y-126200
T11
X206665Y-78400
X217435Y-78400
T12
X251680Y-104000
X251680Y-126000
X276320Y-104000
X276320Y-126000
T13
X249180Y-100000
X249180Y-130000
X278820Y-100000
X278820Y-130000
T0
M30
