G04 #@! TF.FileFunction,Legend,Top*
%FSLAX46Y46*%
G04 Gerber Fmt 4.6, Leading zero omitted, Abs format (unit mm)*
G04 Created by KiCad (PCBNEW 4.0.7) date 06/29/18 00:02:58*
%MOMM*%
%LPD*%
G01*
G04 APERTURE LIST*
%ADD10C,0.100000*%
%ADD11C,0.300000*%
%ADD12C,0.120000*%
%ADD13C,0.500000*%
%ADD14C,0.150000*%
G04 APERTURE END LIST*
D10*
D11*
X243975001Y-175877337D02*
X243975001Y-176877337D01*
X243617858Y-175305909D02*
X243260715Y-176377337D01*
X244189287Y-176377337D01*
X244832143Y-176877337D02*
X245117858Y-176877337D01*
X245260715Y-176805909D01*
X245332143Y-176734480D01*
X245475001Y-176520195D01*
X245546429Y-176234480D01*
X245546429Y-175663052D01*
X245475001Y-175520195D01*
X245403572Y-175448766D01*
X245260715Y-175377337D01*
X244975001Y-175377337D01*
X244832143Y-175448766D01*
X244760715Y-175520195D01*
X244689286Y-175663052D01*
X244689286Y-176020195D01*
X244760715Y-176163052D01*
X244832143Y-176234480D01*
X244975001Y-176305909D01*
X245260715Y-176305909D01*
X245403572Y-176234480D01*
X245475001Y-176163052D01*
X245546429Y-176020195D01*
X246260714Y-176805909D02*
X246260714Y-176877337D01*
X246189286Y-177020195D01*
X246117857Y-177091623D01*
X247546429Y-175877337D02*
X247546429Y-176877337D01*
X247189286Y-175305909D02*
X246832143Y-176377337D01*
X247760715Y-176377337D01*
X249046429Y-175377337D02*
X248332143Y-175377337D01*
X248260714Y-176091623D01*
X248332143Y-176020195D01*
X248475000Y-175948766D01*
X248832143Y-175948766D01*
X248975000Y-176020195D01*
X249046429Y-176091623D01*
X249117857Y-176234480D01*
X249117857Y-176591623D01*
X249046429Y-176734480D01*
X248975000Y-176805909D01*
X248832143Y-176877337D01*
X248475000Y-176877337D01*
X248332143Y-176805909D01*
X248260714Y-176734480D01*
X250046428Y-175377337D02*
X250189285Y-175377337D01*
X250332142Y-175448766D01*
X250403571Y-175520195D01*
X250475000Y-175663052D01*
X250546428Y-175948766D01*
X250546428Y-176305909D01*
X250475000Y-176591623D01*
X250403571Y-176734480D01*
X250332142Y-176805909D01*
X250189285Y-176877337D01*
X250046428Y-176877337D01*
X249903571Y-176805909D01*
X249832142Y-176734480D01*
X249760714Y-176591623D01*
X249689285Y-176305909D01*
X249689285Y-175948766D01*
X249760714Y-175663052D01*
X249832142Y-175520195D01*
X249903571Y-175448766D01*
X250046428Y-175377337D01*
X252332142Y-176877337D02*
X252332142Y-175877337D01*
X252332142Y-176020195D02*
X252403570Y-175948766D01*
X252546428Y-175877337D01*
X252760713Y-175877337D01*
X252903570Y-175948766D01*
X252974999Y-176091623D01*
X252974999Y-176877337D01*
X252974999Y-176091623D02*
X253046428Y-175948766D01*
X253189285Y-175877337D01*
X253403570Y-175877337D01*
X253546428Y-175948766D01*
X253617856Y-176091623D01*
X253617856Y-176877337D01*
X254332142Y-176877337D02*
X254332142Y-175877337D01*
X254332142Y-176020195D02*
X254403570Y-175948766D01*
X254546428Y-175877337D01*
X254760713Y-175877337D01*
X254903570Y-175948766D01*
X254974999Y-176091623D01*
X254974999Y-176877337D01*
X254974999Y-176091623D02*
X255046428Y-175948766D01*
X255189285Y-175877337D01*
X255403570Y-175877337D01*
X255546428Y-175948766D01*
X255617856Y-176091623D01*
X255617856Y-176877337D01*
X274200000Y-174848766D02*
X224750000Y-174848766D01*
X274200000Y-158350000D02*
X274200000Y-177548766D01*
X224750000Y-158350000D02*
X224750000Y-177548766D01*
X224750000Y-174848766D02*
X225876504Y-174262345D01*
X224750000Y-174848766D02*
X225876504Y-175435187D01*
X274200000Y-174848766D02*
X273073496Y-174262345D01*
X274200000Y-174848766D02*
X273073496Y-175435187D01*
X259342858Y-167178571D02*
X258485715Y-167178571D01*
X258914287Y-167178571D02*
X258914287Y-165678571D01*
X258771430Y-165892857D01*
X258628572Y-166035714D01*
X258485715Y-166107143D01*
X260057143Y-167178571D02*
X260342858Y-167178571D01*
X260485715Y-167107143D01*
X260557143Y-167035714D01*
X260700001Y-166821429D01*
X260771429Y-166535714D01*
X260771429Y-165964286D01*
X260700001Y-165821429D01*
X260628572Y-165750000D01*
X260485715Y-165678571D01*
X260200001Y-165678571D01*
X260057143Y-165750000D01*
X259985715Y-165821429D01*
X259914286Y-165964286D01*
X259914286Y-166321429D01*
X259985715Y-166464286D01*
X260057143Y-166535714D01*
X260200001Y-166607143D01*
X260485715Y-166607143D01*
X260628572Y-166535714D01*
X260700001Y-166464286D01*
X260771429Y-166321429D01*
X261485714Y-167107143D02*
X261485714Y-167178571D01*
X261414286Y-167321429D01*
X261342857Y-167392857D01*
X262342858Y-166321429D02*
X262200000Y-166250000D01*
X262128572Y-166178571D01*
X262057143Y-166035714D01*
X262057143Y-165964286D01*
X262128572Y-165821429D01*
X262200000Y-165750000D01*
X262342858Y-165678571D01*
X262628572Y-165678571D01*
X262771429Y-165750000D01*
X262842858Y-165821429D01*
X262914286Y-165964286D01*
X262914286Y-166035714D01*
X262842858Y-166178571D01*
X262771429Y-166250000D01*
X262628572Y-166321429D01*
X262342858Y-166321429D01*
X262200000Y-166392857D01*
X262128572Y-166464286D01*
X262057143Y-166607143D01*
X262057143Y-166892857D01*
X262128572Y-167035714D01*
X262200000Y-167107143D01*
X262342858Y-167178571D01*
X262628572Y-167178571D01*
X262771429Y-167107143D01*
X262842858Y-167035714D01*
X262914286Y-166892857D01*
X262914286Y-166607143D01*
X262842858Y-166464286D01*
X262771429Y-166392857D01*
X262628572Y-166321429D01*
X263842857Y-165678571D02*
X263985714Y-165678571D01*
X264128571Y-165750000D01*
X264200000Y-165821429D01*
X264271429Y-165964286D01*
X264342857Y-166250000D01*
X264342857Y-166607143D01*
X264271429Y-166892857D01*
X264200000Y-167035714D01*
X264128571Y-167107143D01*
X263985714Y-167178571D01*
X263842857Y-167178571D01*
X263700000Y-167107143D01*
X263628571Y-167035714D01*
X263557143Y-166892857D01*
X263485714Y-166607143D01*
X263485714Y-166250000D01*
X263557143Y-165964286D01*
X263628571Y-165821429D01*
X263700000Y-165750000D01*
X263842857Y-165678571D01*
X265271428Y-165678571D02*
X265414285Y-165678571D01*
X265557142Y-165750000D01*
X265628571Y-165821429D01*
X265700000Y-165964286D01*
X265771428Y-166250000D01*
X265771428Y-166607143D01*
X265700000Y-166892857D01*
X265628571Y-167035714D01*
X265557142Y-167107143D01*
X265414285Y-167178571D01*
X265271428Y-167178571D01*
X265128571Y-167107143D01*
X265057142Y-167035714D01*
X264985714Y-166892857D01*
X264914285Y-166607143D01*
X264914285Y-166250000D01*
X264985714Y-165964286D01*
X265057142Y-165821429D01*
X265128571Y-165750000D01*
X265271428Y-165678571D01*
X267557142Y-167178571D02*
X267557142Y-166178571D01*
X267557142Y-166321429D02*
X267628570Y-166250000D01*
X267771428Y-166178571D01*
X267985713Y-166178571D01*
X268128570Y-166250000D01*
X268199999Y-166392857D01*
X268199999Y-167178571D01*
X268199999Y-166392857D02*
X268271428Y-166250000D01*
X268414285Y-166178571D01*
X268628570Y-166178571D01*
X268771428Y-166250000D01*
X268842856Y-166392857D01*
X268842856Y-167178571D01*
X269557142Y-167178571D02*
X269557142Y-166178571D01*
X269557142Y-166321429D02*
X269628570Y-166250000D01*
X269771428Y-166178571D01*
X269985713Y-166178571D01*
X270128570Y-166250000D01*
X270199999Y-166392857D01*
X270199999Y-167178571D01*
X270199999Y-166392857D02*
X270271428Y-166250000D01*
X270414285Y-166178571D01*
X270628570Y-166178571D01*
X270771428Y-166250000D01*
X270842856Y-166392857D01*
X270842856Y-167178571D01*
X274600000Y-165150000D02*
X254800000Y-165150000D01*
X274600000Y-158350000D02*
X274600000Y-167850000D01*
X254800000Y-158350000D02*
X254800000Y-167850000D01*
X254800000Y-165150000D02*
X255926504Y-164563579D01*
X254800000Y-165150000D02*
X255926504Y-165736421D01*
X274600000Y-165150000D02*
X273473496Y-164563579D01*
X274600000Y-165150000D02*
X273473496Y-165736421D01*
X192928573Y-195128571D02*
X192071430Y-195128571D01*
X192500002Y-195128571D02*
X192500002Y-193628571D01*
X192357145Y-193842857D01*
X192214287Y-193985714D01*
X192071430Y-194057143D01*
X193642858Y-195128571D02*
X193928573Y-195128571D01*
X194071430Y-195057143D01*
X194142858Y-194985714D01*
X194285716Y-194771429D01*
X194357144Y-194485714D01*
X194357144Y-193914286D01*
X194285716Y-193771429D01*
X194214287Y-193700000D01*
X194071430Y-193628571D01*
X193785716Y-193628571D01*
X193642858Y-193700000D01*
X193571430Y-193771429D01*
X193500001Y-193914286D01*
X193500001Y-194271429D01*
X193571430Y-194414286D01*
X193642858Y-194485714D01*
X193785716Y-194557143D01*
X194071430Y-194557143D01*
X194214287Y-194485714D01*
X194285716Y-194414286D01*
X194357144Y-194271429D01*
X195214287Y-194271429D02*
X195071429Y-194200000D01*
X195000001Y-194128571D01*
X194928572Y-193985714D01*
X194928572Y-193914286D01*
X195000001Y-193771429D01*
X195071429Y-193700000D01*
X195214287Y-193628571D01*
X195500001Y-193628571D01*
X195642858Y-193700000D01*
X195714287Y-193771429D01*
X195785715Y-193914286D01*
X195785715Y-193985714D01*
X195714287Y-194128571D01*
X195642858Y-194200000D01*
X195500001Y-194271429D01*
X195214287Y-194271429D01*
X195071429Y-194342857D01*
X195000001Y-194414286D01*
X194928572Y-194557143D01*
X194928572Y-194842857D01*
X195000001Y-194985714D01*
X195071429Y-195057143D01*
X195214287Y-195128571D01*
X195500001Y-195128571D01*
X195642858Y-195057143D01*
X195714287Y-194985714D01*
X195785715Y-194842857D01*
X195785715Y-194557143D01*
X195714287Y-194414286D01*
X195642858Y-194342857D01*
X195500001Y-194271429D01*
X196500000Y-195057143D02*
X196500000Y-195128571D01*
X196428572Y-195271429D01*
X196357143Y-195342857D01*
X197428572Y-193628571D02*
X197571429Y-193628571D01*
X197714286Y-193700000D01*
X197785715Y-193771429D01*
X197857144Y-193914286D01*
X197928572Y-194200000D01*
X197928572Y-194557143D01*
X197857144Y-194842857D01*
X197785715Y-194985714D01*
X197714286Y-195057143D01*
X197571429Y-195128571D01*
X197428572Y-195128571D01*
X197285715Y-195057143D01*
X197214286Y-194985714D01*
X197142858Y-194842857D01*
X197071429Y-194557143D01*
X197071429Y-194200000D01*
X197142858Y-193914286D01*
X197214286Y-193771429D01*
X197285715Y-193700000D01*
X197428572Y-193628571D01*
X198857143Y-193628571D02*
X199000000Y-193628571D01*
X199142857Y-193700000D01*
X199214286Y-193771429D01*
X199285715Y-193914286D01*
X199357143Y-194200000D01*
X199357143Y-194557143D01*
X199285715Y-194842857D01*
X199214286Y-194985714D01*
X199142857Y-195057143D01*
X199000000Y-195128571D01*
X198857143Y-195128571D01*
X198714286Y-195057143D01*
X198642857Y-194985714D01*
X198571429Y-194842857D01*
X198500000Y-194557143D01*
X198500000Y-194200000D01*
X198571429Y-193914286D01*
X198642857Y-193771429D01*
X198714286Y-193700000D01*
X198857143Y-193628571D01*
X200285714Y-193628571D02*
X200428571Y-193628571D01*
X200571428Y-193700000D01*
X200642857Y-193771429D01*
X200714286Y-193914286D01*
X200785714Y-194200000D01*
X200785714Y-194557143D01*
X200714286Y-194842857D01*
X200642857Y-194985714D01*
X200571428Y-195057143D01*
X200428571Y-195128571D01*
X200285714Y-195128571D01*
X200142857Y-195057143D01*
X200071428Y-194985714D01*
X200000000Y-194842857D01*
X199928571Y-194557143D01*
X199928571Y-194200000D01*
X200000000Y-193914286D01*
X200071428Y-193771429D01*
X200142857Y-193700000D01*
X200285714Y-193628571D01*
X202571428Y-195128571D02*
X202571428Y-194128571D01*
X202571428Y-194271429D02*
X202642856Y-194200000D01*
X202785714Y-194128571D01*
X202999999Y-194128571D01*
X203142856Y-194200000D01*
X203214285Y-194342857D01*
X203214285Y-195128571D01*
X203214285Y-194342857D02*
X203285714Y-194200000D01*
X203428571Y-194128571D01*
X203642856Y-194128571D01*
X203785714Y-194200000D01*
X203857142Y-194342857D01*
X203857142Y-195128571D01*
X204571428Y-195128571D02*
X204571428Y-194128571D01*
X204571428Y-194271429D02*
X204642856Y-194200000D01*
X204785714Y-194128571D01*
X204999999Y-194128571D01*
X205142856Y-194200000D01*
X205214285Y-194342857D01*
X205214285Y-195128571D01*
X205214285Y-194342857D02*
X205285714Y-194200000D01*
X205428571Y-194128571D01*
X205642856Y-194128571D01*
X205785714Y-194200000D01*
X205857142Y-194342857D01*
X205857142Y-195128571D01*
X100000000Y-193100000D02*
X298000000Y-193100000D01*
X100000000Y-168200000D02*
X100000000Y-195800000D01*
X298000000Y-168200000D02*
X298000000Y-195800000D01*
X298000000Y-193100000D02*
X296873496Y-193686421D01*
X298000000Y-193100000D02*
X296873496Y-192513579D01*
X100000000Y-193100000D02*
X101126504Y-193686421D01*
X100000000Y-193100000D02*
X101126504Y-192513579D01*
X183000000Y-82692857D02*
X182928571Y-82835714D01*
X182928571Y-83050000D01*
X183000000Y-83264285D01*
X183142857Y-83407143D01*
X183285714Y-83478571D01*
X183571429Y-83550000D01*
X183785714Y-83550000D01*
X184071429Y-83478571D01*
X184214286Y-83407143D01*
X184357143Y-83264285D01*
X184428571Y-83050000D01*
X184428571Y-82907143D01*
X184357143Y-82692857D01*
X184285714Y-82621428D01*
X183785714Y-82621428D01*
X183785714Y-82907143D01*
X184428571Y-81978571D02*
X182928571Y-81978571D01*
X184428571Y-81121428D01*
X182928571Y-81121428D01*
X184428571Y-80407142D02*
X182928571Y-80407142D01*
X182928571Y-80049999D01*
X183000000Y-79835714D01*
X183142857Y-79692856D01*
X183285714Y-79621428D01*
X183571429Y-79549999D01*
X183785714Y-79549999D01*
X184071429Y-79621428D01*
X184214286Y-79692856D01*
X184357143Y-79835714D01*
X184428571Y-80049999D01*
X184428571Y-80407142D01*
X184428571Y-78907142D02*
X182928571Y-78907142D01*
X182928571Y-78549999D01*
X183000000Y-78335714D01*
X183142857Y-78192856D01*
X183285714Y-78121428D01*
X183571429Y-78049999D01*
X183785714Y-78049999D01*
X184071429Y-78121428D01*
X184214286Y-78192856D01*
X184357143Y-78335714D01*
X184428571Y-78549999D01*
X184428571Y-78907142D01*
X185678571Y-81900000D02*
X187178571Y-81400000D01*
X185678571Y-80900000D01*
X187178571Y-80400000D02*
X185678571Y-80400000D01*
X185678571Y-80042857D01*
X185750000Y-79828572D01*
X185892857Y-79685714D01*
X186035714Y-79614286D01*
X186321429Y-79542857D01*
X186535714Y-79542857D01*
X186821429Y-79614286D01*
X186964286Y-79685714D01*
X187107143Y-79828572D01*
X187178571Y-80042857D01*
X187178571Y-80400000D01*
X187178571Y-78900000D02*
X185678571Y-78900000D01*
X185678571Y-78542857D01*
X185750000Y-78328572D01*
X185892857Y-78185714D01*
X186035714Y-78114286D01*
X186321429Y-78042857D01*
X186535714Y-78042857D01*
X186821429Y-78114286D01*
X186964286Y-78185714D01*
X187107143Y-78328572D01*
X187178571Y-78542857D01*
X187178571Y-78900000D01*
X138828571Y-82778571D02*
X138828571Y-83492857D01*
X137328571Y-83492857D01*
X138828571Y-82278571D02*
X137828571Y-82278571D01*
X137328571Y-82278571D02*
X137400000Y-82350000D01*
X137471429Y-82278571D01*
X137400000Y-82207143D01*
X137328571Y-82278571D01*
X137471429Y-82278571D01*
X137828571Y-81564285D02*
X138828571Y-81564285D01*
X137971429Y-81564285D02*
X137900000Y-81492857D01*
X137828571Y-81349999D01*
X137828571Y-81135714D01*
X137900000Y-80992857D01*
X138042857Y-80921428D01*
X138828571Y-80921428D01*
X138757143Y-79635714D02*
X138828571Y-79778571D01*
X138828571Y-80064285D01*
X138757143Y-80207142D01*
X138614286Y-80278571D01*
X138042857Y-80278571D01*
X137900000Y-80207142D01*
X137828571Y-80064285D01*
X137828571Y-79778571D01*
X137900000Y-79635714D01*
X138042857Y-79564285D01*
X138185714Y-79564285D01*
X138328571Y-80278571D01*
X137471429Y-78992857D02*
X137400000Y-78921428D01*
X137328571Y-78778571D01*
X137328571Y-78421428D01*
X137400000Y-78278571D01*
X137471429Y-78207142D01*
X137614286Y-78135714D01*
X137757143Y-78135714D01*
X137971429Y-78207142D01*
X138828571Y-79064285D01*
X138828571Y-78135714D01*
X133728571Y-82778571D02*
X133728571Y-83492857D01*
X132228571Y-83492857D01*
X133728571Y-82278571D02*
X132728571Y-82278571D01*
X132228571Y-82278571D02*
X132300000Y-82350000D01*
X132371429Y-82278571D01*
X132300000Y-82207143D01*
X132228571Y-82278571D01*
X132371429Y-82278571D01*
X132728571Y-81564285D02*
X133728571Y-81564285D01*
X132871429Y-81564285D02*
X132800000Y-81492857D01*
X132728571Y-81349999D01*
X132728571Y-81135714D01*
X132800000Y-80992857D01*
X132942857Y-80921428D01*
X133728571Y-80921428D01*
X133657143Y-79635714D02*
X133728571Y-79778571D01*
X133728571Y-80064285D01*
X133657143Y-80207142D01*
X133514286Y-80278571D01*
X132942857Y-80278571D01*
X132800000Y-80207142D01*
X132728571Y-80064285D01*
X132728571Y-79778571D01*
X132800000Y-79635714D01*
X132942857Y-79564285D01*
X133085714Y-79564285D01*
X133228571Y-80278571D01*
X133728571Y-78135714D02*
X133728571Y-78992857D01*
X133728571Y-78564285D02*
X132228571Y-78564285D01*
X132442857Y-78707142D01*
X132585714Y-78850000D01*
X132657143Y-78992857D01*
X165078571Y-82878571D02*
X165078571Y-83592857D01*
X163578571Y-83592857D01*
X165078571Y-82378571D02*
X164078571Y-82378571D01*
X163578571Y-82378571D02*
X163650000Y-82450000D01*
X163721429Y-82378571D01*
X163650000Y-82307143D01*
X163578571Y-82378571D01*
X163721429Y-82378571D01*
X164078571Y-81664285D02*
X165078571Y-81664285D01*
X164221429Y-81664285D02*
X164150000Y-81592857D01*
X164078571Y-81449999D01*
X164078571Y-81235714D01*
X164150000Y-81092857D01*
X164292857Y-81021428D01*
X165078571Y-81021428D01*
X165007143Y-79735714D02*
X165078571Y-79878571D01*
X165078571Y-80164285D01*
X165007143Y-80307142D01*
X164864286Y-80378571D01*
X164292857Y-80378571D01*
X164150000Y-80307142D01*
X164078571Y-80164285D01*
X164078571Y-79878571D01*
X164150000Y-79735714D01*
X164292857Y-79664285D01*
X164435714Y-79664285D01*
X164578571Y-80378571D01*
X163721429Y-79092857D02*
X163650000Y-79021428D01*
X163578571Y-78878571D01*
X163578571Y-78521428D01*
X163650000Y-78378571D01*
X163721429Y-78307142D01*
X163864286Y-78235714D01*
X164007143Y-78235714D01*
X164221429Y-78307142D01*
X165078571Y-79164285D01*
X165078571Y-78235714D01*
X159978571Y-82878571D02*
X159978571Y-83592857D01*
X158478571Y-83592857D01*
X159978571Y-82378571D02*
X158978571Y-82378571D01*
X158478571Y-82378571D02*
X158550000Y-82450000D01*
X158621429Y-82378571D01*
X158550000Y-82307143D01*
X158478571Y-82378571D01*
X158621429Y-82378571D01*
X158978571Y-81664285D02*
X159978571Y-81664285D01*
X159121429Y-81664285D02*
X159050000Y-81592857D01*
X158978571Y-81449999D01*
X158978571Y-81235714D01*
X159050000Y-81092857D01*
X159192857Y-81021428D01*
X159978571Y-81021428D01*
X159907143Y-79735714D02*
X159978571Y-79878571D01*
X159978571Y-80164285D01*
X159907143Y-80307142D01*
X159764286Y-80378571D01*
X159192857Y-80378571D01*
X159050000Y-80307142D01*
X158978571Y-80164285D01*
X158978571Y-79878571D01*
X159050000Y-79735714D01*
X159192857Y-79664285D01*
X159335714Y-79664285D01*
X159478571Y-80378571D01*
X159978571Y-78235714D02*
X159978571Y-79092857D01*
X159978571Y-78664285D02*
X158478571Y-78664285D01*
X158692857Y-78807142D01*
X158835714Y-78950000D01*
X158907143Y-79092857D01*
X171450000Y-86807143D02*
X171378571Y-86950000D01*
X171378571Y-87164286D01*
X171450000Y-87378571D01*
X171592857Y-87521429D01*
X171735714Y-87592857D01*
X172021429Y-87664286D01*
X172235714Y-87664286D01*
X172521429Y-87592857D01*
X172664286Y-87521429D01*
X172807143Y-87378571D01*
X172878571Y-87164286D01*
X172878571Y-87021429D01*
X172807143Y-86807143D01*
X172735714Y-86735714D01*
X172235714Y-86735714D01*
X172235714Y-87021429D01*
X172878571Y-86092857D02*
X171378571Y-86092857D01*
X172878571Y-85235714D01*
X171378571Y-85235714D01*
X172878571Y-84521428D02*
X171378571Y-84521428D01*
X171378571Y-84164285D01*
X171450000Y-83950000D01*
X171592857Y-83807142D01*
X171735714Y-83735714D01*
X172021429Y-83664285D01*
X172235714Y-83664285D01*
X172521429Y-83735714D01*
X172664286Y-83807142D01*
X172807143Y-83950000D01*
X172878571Y-84164285D01*
X172878571Y-84521428D01*
X173021429Y-83378571D02*
X173021429Y-82235714D01*
X172878571Y-81878571D02*
X171378571Y-81878571D01*
X171378571Y-81521428D01*
X171450000Y-81307143D01*
X171592857Y-81164285D01*
X171735714Y-81092857D01*
X172021429Y-81021428D01*
X172235714Y-81021428D01*
X172521429Y-81092857D01*
X172664286Y-81164285D01*
X172807143Y-81307143D01*
X172878571Y-81521428D01*
X172878571Y-81878571D01*
X172878571Y-79521428D02*
X172164286Y-80021428D01*
X172878571Y-80378571D02*
X171378571Y-80378571D01*
X171378571Y-79807143D01*
X171450000Y-79664285D01*
X171521429Y-79592857D01*
X171664286Y-79521428D01*
X171878571Y-79521428D01*
X172021429Y-79592857D01*
X172092857Y-79664285D01*
X172164286Y-79807143D01*
X172164286Y-80378571D01*
X171378571Y-79092857D02*
X172878571Y-78592857D01*
X171378571Y-78092857D01*
X169757143Y-83542856D02*
X169757143Y-82399999D01*
X170328571Y-82971428D02*
X169185714Y-82971428D01*
X170328571Y-80899999D02*
X170328571Y-81757142D01*
X170328571Y-81328570D02*
X168828571Y-81328570D01*
X169042857Y-81471427D01*
X169185714Y-81614285D01*
X169257143Y-81757142D01*
X168828571Y-79542856D02*
X168828571Y-80257142D01*
X169542857Y-80328571D01*
X169471429Y-80257142D01*
X169400000Y-80114285D01*
X169400000Y-79757142D01*
X169471429Y-79614285D01*
X169542857Y-79542856D01*
X169685714Y-79471428D01*
X170042857Y-79471428D01*
X170185714Y-79542856D01*
X170257143Y-79614285D01*
X170328571Y-79757142D01*
X170328571Y-80114285D01*
X170257143Y-80257142D01*
X170185714Y-80328571D01*
X168828571Y-79042857D02*
X170328571Y-78542857D01*
X168828571Y-78042857D01*
X145050000Y-82542857D02*
X144978571Y-82685714D01*
X144978571Y-82900000D01*
X145050000Y-83114285D01*
X145192857Y-83257143D01*
X145335714Y-83328571D01*
X145621429Y-83400000D01*
X145835714Y-83400000D01*
X146121429Y-83328571D01*
X146264286Y-83257143D01*
X146407143Y-83114285D01*
X146478571Y-82900000D01*
X146478571Y-82757143D01*
X146407143Y-82542857D01*
X146335714Y-82471428D01*
X145835714Y-82471428D01*
X145835714Y-82757143D01*
X146478571Y-81828571D02*
X144978571Y-81828571D01*
X146478571Y-80971428D01*
X144978571Y-80971428D01*
X146478571Y-80257142D02*
X144978571Y-80257142D01*
X144978571Y-79899999D01*
X145050000Y-79685714D01*
X145192857Y-79542856D01*
X145335714Y-79471428D01*
X145621429Y-79399999D01*
X145835714Y-79399999D01*
X146121429Y-79471428D01*
X146264286Y-79542856D01*
X146407143Y-79685714D01*
X146478571Y-79899999D01*
X146478571Y-80257142D01*
X146478571Y-78757142D02*
X144978571Y-78757142D01*
X144978571Y-78399999D01*
X145050000Y-78185714D01*
X145192857Y-78042856D01*
X145335714Y-77971428D01*
X145621429Y-77899999D01*
X145835714Y-77899999D01*
X146121429Y-77971428D01*
X146264286Y-78042856D01*
X146407143Y-78185714D01*
X146478571Y-78399999D01*
X146478571Y-78757142D01*
X142428571Y-81750000D02*
X143928571Y-81250000D01*
X142428571Y-80750000D01*
X143928571Y-80250000D02*
X142428571Y-80250000D01*
X142428571Y-79892857D01*
X142500000Y-79678572D01*
X142642857Y-79535714D01*
X142785714Y-79464286D01*
X143071429Y-79392857D01*
X143285714Y-79392857D01*
X143571429Y-79464286D01*
X143714286Y-79535714D01*
X143857143Y-79678572D01*
X143928571Y-79892857D01*
X143928571Y-80250000D01*
X143928571Y-78750000D02*
X142428571Y-78750000D01*
X142428571Y-78392857D01*
X142500000Y-78178572D01*
X142642857Y-78035714D01*
X142785714Y-77964286D01*
X143071429Y-77892857D01*
X143285714Y-77892857D01*
X143571429Y-77964286D01*
X143714286Y-78035714D01*
X143857143Y-78178572D01*
X143928571Y-78392857D01*
X143928571Y-78750000D01*
X313028571Y-107671430D02*
X313100000Y-107528572D01*
X313171429Y-107457144D01*
X313314286Y-107385715D01*
X313385714Y-107385715D01*
X313528571Y-107457144D01*
X313600000Y-107528572D01*
X313671429Y-107671430D01*
X313671429Y-107957144D01*
X313600000Y-108100001D01*
X313528571Y-108171430D01*
X313385714Y-108242858D01*
X313314286Y-108242858D01*
X313171429Y-108171430D01*
X313100000Y-108100001D01*
X313028571Y-107957144D01*
X313028571Y-107671430D01*
X312957143Y-107528572D01*
X312885714Y-107457144D01*
X312742857Y-107385715D01*
X312457143Y-107385715D01*
X312314286Y-107457144D01*
X312242857Y-107528572D01*
X312171429Y-107671430D01*
X312171429Y-107957144D01*
X312242857Y-108100001D01*
X312314286Y-108171430D01*
X312457143Y-108242858D01*
X312742857Y-108242858D01*
X312885714Y-108171430D01*
X312957143Y-108100001D01*
X313028571Y-107957144D01*
X313028571Y-109100001D02*
X313100000Y-108957143D01*
X313171429Y-108885715D01*
X313314286Y-108814286D01*
X313385714Y-108814286D01*
X313528571Y-108885715D01*
X313600000Y-108957143D01*
X313671429Y-109100001D01*
X313671429Y-109385715D01*
X313600000Y-109528572D01*
X313528571Y-109600001D01*
X313385714Y-109671429D01*
X313314286Y-109671429D01*
X313171429Y-109600001D01*
X313100000Y-109528572D01*
X313028571Y-109385715D01*
X313028571Y-109100001D01*
X312957143Y-108957143D01*
X312885714Y-108885715D01*
X312742857Y-108814286D01*
X312457143Y-108814286D01*
X312314286Y-108885715D01*
X312242857Y-108957143D01*
X312171429Y-109100001D01*
X312171429Y-109385715D01*
X312242857Y-109528572D01*
X312314286Y-109600001D01*
X312457143Y-109671429D01*
X312742857Y-109671429D01*
X312885714Y-109600001D01*
X312957143Y-109528572D01*
X313028571Y-109385715D01*
X312314286Y-110314286D02*
X312242857Y-110385714D01*
X312171429Y-110314286D01*
X312242857Y-110242857D01*
X312314286Y-110314286D01*
X312171429Y-110314286D01*
X313671429Y-111314286D02*
X313671429Y-111457143D01*
X313600000Y-111600000D01*
X313528571Y-111671429D01*
X313385714Y-111742858D01*
X313100000Y-111814286D01*
X312742857Y-111814286D01*
X312457143Y-111742858D01*
X312314286Y-111671429D01*
X312242857Y-111600000D01*
X312171429Y-111457143D01*
X312171429Y-111314286D01*
X312242857Y-111171429D01*
X312314286Y-111100000D01*
X312457143Y-111028572D01*
X312742857Y-110957143D01*
X313100000Y-110957143D01*
X313385714Y-111028572D01*
X313528571Y-111100000D01*
X313600000Y-111171429D01*
X313671429Y-111314286D01*
X313671429Y-112742857D02*
X313671429Y-112885714D01*
X313600000Y-113028571D01*
X313528571Y-113100000D01*
X313385714Y-113171429D01*
X313100000Y-113242857D01*
X312742857Y-113242857D01*
X312457143Y-113171429D01*
X312314286Y-113100000D01*
X312242857Y-113028571D01*
X312171429Y-112885714D01*
X312171429Y-112742857D01*
X312242857Y-112600000D01*
X312314286Y-112528571D01*
X312457143Y-112457143D01*
X312742857Y-112385714D01*
X313100000Y-112385714D01*
X313385714Y-112457143D01*
X313528571Y-112528571D01*
X313600000Y-112600000D01*
X313671429Y-112742857D01*
X313671429Y-114171428D02*
X313671429Y-114314285D01*
X313600000Y-114457142D01*
X313528571Y-114528571D01*
X313385714Y-114600000D01*
X313100000Y-114671428D01*
X312742857Y-114671428D01*
X312457143Y-114600000D01*
X312314286Y-114528571D01*
X312242857Y-114457142D01*
X312171429Y-114314285D01*
X312171429Y-114171428D01*
X312242857Y-114028571D01*
X312314286Y-113957142D01*
X312457143Y-113885714D01*
X312742857Y-113814285D01*
X313100000Y-113814285D01*
X313385714Y-113885714D01*
X313528571Y-113957142D01*
X313600000Y-114028571D01*
X313671429Y-114171428D01*
X312171429Y-116457142D02*
X313171429Y-116457142D01*
X313028571Y-116457142D02*
X313100000Y-116528570D01*
X313171429Y-116671428D01*
X313171429Y-116885713D01*
X313100000Y-117028570D01*
X312957143Y-117099999D01*
X312171429Y-117099999D01*
X312957143Y-117099999D02*
X313100000Y-117171428D01*
X313171429Y-117314285D01*
X313171429Y-117528570D01*
X313100000Y-117671428D01*
X312957143Y-117742856D01*
X312171429Y-117742856D01*
X312171429Y-118457142D02*
X313171429Y-118457142D01*
X313028571Y-118457142D02*
X313100000Y-118528570D01*
X313171429Y-118671428D01*
X313171429Y-118885713D01*
X313100000Y-119028570D01*
X312957143Y-119099999D01*
X312171429Y-119099999D01*
X312957143Y-119099999D02*
X313100000Y-119171428D01*
X313171429Y-119314285D01*
X313171429Y-119528570D01*
X313100000Y-119671428D01*
X312957143Y-119742856D01*
X312171429Y-119742856D01*
X311500000Y-69600000D02*
X311500000Y-157600000D01*
X299000000Y-69600000D02*
X314200000Y-69600000D01*
X299000000Y-157600000D02*
X314200000Y-157600000D01*
X311500000Y-157600000D02*
X310913579Y-156473496D01*
X311500000Y-157600000D02*
X312086421Y-156473496D01*
X311500000Y-69600000D02*
X310913579Y-70726504D01*
X311500000Y-69600000D02*
X312086421Y-70726504D01*
X113742857Y-73803571D02*
X113742857Y-72303571D01*
X114314285Y-72303571D01*
X114457143Y-72375000D01*
X114528571Y-72446429D01*
X114600000Y-72589286D01*
X114600000Y-72803571D01*
X114528571Y-72946429D01*
X114457143Y-73017857D01*
X114314285Y-73089286D01*
X113742857Y-73089286D01*
X115742857Y-73017857D02*
X115242857Y-73017857D01*
X115242857Y-73803571D02*
X115242857Y-72303571D01*
X115957143Y-72303571D01*
X117385714Y-73660714D02*
X117314285Y-73732143D01*
X117099999Y-73803571D01*
X116957142Y-73803571D01*
X116742857Y-73732143D01*
X116599999Y-73589286D01*
X116528571Y-73446429D01*
X116457142Y-73160714D01*
X116457142Y-72946429D01*
X116528571Y-72660714D01*
X116599999Y-72517857D01*
X116742857Y-72375000D01*
X116957142Y-72303571D01*
X117099999Y-72303571D01*
X117314285Y-72375000D01*
X117385714Y-72446429D01*
X119171428Y-73232143D02*
X120314285Y-73232143D01*
X121957142Y-72303571D02*
X122814285Y-72303571D01*
X122385714Y-73803571D02*
X122385714Y-72303571D01*
X123957142Y-72803571D02*
X123957142Y-73803571D01*
X123314285Y-72803571D02*
X123314285Y-73589286D01*
X123385713Y-73732143D01*
X123528571Y-73803571D01*
X123742856Y-73803571D01*
X123885713Y-73732143D01*
X123957142Y-73660714D01*
X124671428Y-73803571D02*
X124671428Y-72303571D01*
X124671428Y-72875000D02*
X124814285Y-72803571D01*
X125099999Y-72803571D01*
X125242856Y-72875000D01*
X125314285Y-72946429D01*
X125385714Y-73089286D01*
X125385714Y-73517857D01*
X125314285Y-73660714D01*
X125242856Y-73732143D01*
X125099999Y-73803571D01*
X124814285Y-73803571D01*
X124671428Y-73732143D01*
X126028571Y-73803571D02*
X126028571Y-72803571D01*
X126028571Y-72303571D02*
X125957142Y-72375000D01*
X126028571Y-72446429D01*
X126099999Y-72375000D01*
X126028571Y-72303571D01*
X126028571Y-72446429D01*
X126528571Y-72803571D02*
X127100000Y-72803571D01*
X126742857Y-72303571D02*
X126742857Y-73589286D01*
X126814285Y-73732143D01*
X126957143Y-73803571D01*
X127100000Y-73803571D01*
X128242857Y-73803571D02*
X128242857Y-73017857D01*
X128171428Y-72875000D01*
X128028571Y-72803571D01*
X127742857Y-72803571D01*
X127600000Y-72875000D01*
X128242857Y-73732143D02*
X128100000Y-73803571D01*
X127742857Y-73803571D01*
X127600000Y-73732143D01*
X127528571Y-73589286D01*
X127528571Y-73446429D01*
X127600000Y-73303571D01*
X127742857Y-73232143D01*
X128100000Y-73232143D01*
X128242857Y-73160714D01*
X128957143Y-73803571D02*
X128957143Y-72303571D01*
X129100000Y-73232143D02*
X129528571Y-73803571D01*
X129528571Y-72803571D02*
X128957143Y-73375000D01*
X118171429Y-74996429D02*
X118242858Y-74925000D01*
X118385715Y-74853571D01*
X118742858Y-74853571D01*
X118885715Y-74925000D01*
X118957144Y-74996429D01*
X119028572Y-75139286D01*
X119028572Y-75282143D01*
X118957144Y-75496429D01*
X118100001Y-76353571D01*
X119028572Y-76353571D01*
X120385715Y-74853571D02*
X119671429Y-74853571D01*
X119600000Y-75567857D01*
X119671429Y-75496429D01*
X119814286Y-75425000D01*
X120171429Y-75425000D01*
X120314286Y-75496429D01*
X120385715Y-75567857D01*
X120457143Y-75710714D01*
X120457143Y-76067857D01*
X120385715Y-76210714D01*
X120314286Y-76282143D01*
X120171429Y-76353571D01*
X119814286Y-76353571D01*
X119671429Y-76282143D01*
X119600000Y-76210714D01*
X121385714Y-74853571D02*
X121528571Y-74853571D01*
X121671428Y-74925000D01*
X121742857Y-74996429D01*
X121814286Y-75139286D01*
X121885714Y-75425000D01*
X121885714Y-75782143D01*
X121814286Y-76067857D01*
X121742857Y-76210714D01*
X121671428Y-76282143D01*
X121528571Y-76353571D01*
X121385714Y-76353571D01*
X121242857Y-76282143D01*
X121171428Y-76210714D01*
X121100000Y-76067857D01*
X121028571Y-75782143D01*
X121028571Y-75425000D01*
X121100000Y-75139286D01*
X121171428Y-74996429D01*
X121242857Y-74925000D01*
X121385714Y-74853571D01*
X122814285Y-74853571D02*
X122957142Y-74853571D01*
X123099999Y-74925000D01*
X123171428Y-74996429D01*
X123242857Y-75139286D01*
X123314285Y-75425000D01*
X123314285Y-75782143D01*
X123242857Y-76067857D01*
X123171428Y-76210714D01*
X123099999Y-76282143D01*
X122957142Y-76353571D01*
X122814285Y-76353571D01*
X122671428Y-76282143D01*
X122599999Y-76210714D01*
X122528571Y-76067857D01*
X122457142Y-75782143D01*
X122457142Y-75425000D01*
X122528571Y-75139286D01*
X122599999Y-74996429D01*
X122671428Y-74925000D01*
X122814285Y-74853571D01*
X123814285Y-74853571D02*
X124171428Y-76353571D01*
X124457142Y-75282143D01*
X124742856Y-76353571D01*
X125099999Y-74853571D01*
X182785715Y-72492857D02*
X182285715Y-72492857D01*
X182285715Y-73278571D02*
X182285715Y-71778571D01*
X183000001Y-71778571D01*
X184214286Y-73278571D02*
X184214286Y-72492857D01*
X184142857Y-72350000D01*
X184000000Y-72278571D01*
X183714286Y-72278571D01*
X183571429Y-72350000D01*
X184214286Y-73207143D02*
X184071429Y-73278571D01*
X183714286Y-73278571D01*
X183571429Y-73207143D01*
X183500000Y-73064286D01*
X183500000Y-72921429D01*
X183571429Y-72778571D01*
X183714286Y-72707143D01*
X184071429Y-72707143D01*
X184214286Y-72635714D01*
X184928572Y-72278571D02*
X184928572Y-73278571D01*
X184928572Y-72421429D02*
X185000000Y-72350000D01*
X185142858Y-72278571D01*
X185357143Y-72278571D01*
X185500000Y-72350000D01*
X185571429Y-72492857D01*
X185571429Y-73278571D01*
X187142858Y-73135714D02*
X187071429Y-73207143D01*
X186857143Y-73278571D01*
X186714286Y-73278571D01*
X186500001Y-73207143D01*
X186357143Y-73064286D01*
X186285715Y-72921429D01*
X186214286Y-72635714D01*
X186214286Y-72421429D01*
X186285715Y-72135714D01*
X186357143Y-71992857D01*
X186500001Y-71850000D01*
X186714286Y-71778571D01*
X186857143Y-71778571D01*
X187071429Y-71850000D01*
X187142858Y-71921429D01*
X188000001Y-73278571D02*
X187857143Y-73207143D01*
X187785715Y-73135714D01*
X187714286Y-72992857D01*
X187714286Y-72564286D01*
X187785715Y-72421429D01*
X187857143Y-72350000D01*
X188000001Y-72278571D01*
X188214286Y-72278571D01*
X188357143Y-72350000D01*
X188428572Y-72421429D01*
X188500001Y-72564286D01*
X188500001Y-72992857D01*
X188428572Y-73135714D01*
X188357143Y-73207143D01*
X188214286Y-73278571D01*
X188000001Y-73278571D01*
X189142858Y-72278571D02*
X189142858Y-73278571D01*
X189142858Y-72421429D02*
X189214286Y-72350000D01*
X189357144Y-72278571D01*
X189571429Y-72278571D01*
X189714286Y-72350000D01*
X189785715Y-72492857D01*
X189785715Y-73278571D01*
X190285715Y-72278571D02*
X190857144Y-72278571D01*
X190500001Y-71778571D02*
X190500001Y-73064286D01*
X190571429Y-73207143D01*
X190714287Y-73278571D01*
X190857144Y-73278571D01*
X191357144Y-73278571D02*
X191357144Y-72278571D01*
X191357144Y-72564286D02*
X191428572Y-72421429D01*
X191500001Y-72350000D01*
X191642858Y-72278571D01*
X191785715Y-72278571D01*
X192500001Y-73278571D02*
X192357143Y-73207143D01*
X192285715Y-73135714D01*
X192214286Y-72992857D01*
X192214286Y-72564286D01*
X192285715Y-72421429D01*
X192357143Y-72350000D01*
X192500001Y-72278571D01*
X192714286Y-72278571D01*
X192857143Y-72350000D01*
X192928572Y-72421429D01*
X193000001Y-72564286D01*
X193000001Y-72992857D01*
X192928572Y-73135714D01*
X192857143Y-73207143D01*
X192714286Y-73278571D01*
X192500001Y-73278571D01*
X193857144Y-73278571D02*
X193714286Y-73207143D01*
X193642858Y-73064286D01*
X193642858Y-71778571D01*
X132000000Y-73278571D02*
X132000000Y-71778571D01*
X132357143Y-71778571D01*
X132571428Y-71850000D01*
X132714286Y-71992857D01*
X132785714Y-72135714D01*
X132857143Y-72421429D01*
X132857143Y-72635714D01*
X132785714Y-72921429D01*
X132714286Y-73064286D01*
X132571428Y-73207143D01*
X132357143Y-73278571D01*
X132000000Y-73278571D01*
X133500000Y-73278571D02*
X133500000Y-72278571D01*
X133500000Y-71778571D02*
X133428571Y-71850000D01*
X133500000Y-71921429D01*
X133571428Y-71850000D01*
X133500000Y-71778571D01*
X133500000Y-71921429D01*
X134857143Y-72278571D02*
X134857143Y-73492857D01*
X134785714Y-73635714D01*
X134714286Y-73707143D01*
X134571429Y-73778571D01*
X134357143Y-73778571D01*
X134214286Y-73707143D01*
X134857143Y-73207143D02*
X134714286Y-73278571D01*
X134428572Y-73278571D01*
X134285714Y-73207143D01*
X134214286Y-73135714D01*
X134142857Y-72992857D01*
X134142857Y-72564286D01*
X134214286Y-72421429D01*
X134285714Y-72350000D01*
X134428572Y-72278571D01*
X134714286Y-72278571D01*
X134857143Y-72350000D01*
X135571429Y-73278571D02*
X135571429Y-72278571D01*
X135571429Y-71778571D02*
X135500000Y-71850000D01*
X135571429Y-71921429D01*
X135642857Y-71850000D01*
X135571429Y-71778571D01*
X135571429Y-71921429D01*
X136071429Y-72278571D02*
X136642858Y-72278571D01*
X136285715Y-71778571D02*
X136285715Y-73064286D01*
X136357143Y-73207143D01*
X136500001Y-73278571D01*
X136642858Y-73278571D01*
X137785715Y-73278571D02*
X137785715Y-72492857D01*
X137714286Y-72350000D01*
X137571429Y-72278571D01*
X137285715Y-72278571D01*
X137142858Y-72350000D01*
X137785715Y-73207143D02*
X137642858Y-73278571D01*
X137285715Y-73278571D01*
X137142858Y-73207143D01*
X137071429Y-73064286D01*
X137071429Y-72921429D01*
X137142858Y-72778571D01*
X137285715Y-72707143D01*
X137642858Y-72707143D01*
X137785715Y-72635714D01*
X138714287Y-73278571D02*
X138571429Y-73207143D01*
X138500001Y-73064286D01*
X138500001Y-71778571D01*
X139214286Y-73207143D02*
X139428572Y-73278571D01*
X139785715Y-73278571D01*
X139928572Y-73207143D01*
X140000001Y-73135714D01*
X140071429Y-72992857D01*
X140071429Y-72850000D01*
X140000001Y-72707143D01*
X139928572Y-72635714D01*
X139785715Y-72564286D01*
X139500001Y-72492857D01*
X139357143Y-72421429D01*
X139285715Y-72350000D01*
X139214286Y-72207143D01*
X139214286Y-72064286D01*
X139285715Y-71921429D01*
X139357143Y-71850000D01*
X139500001Y-71778571D01*
X139857143Y-71778571D01*
X140071429Y-71850000D01*
X141357143Y-72278571D02*
X141357143Y-73278571D01*
X140714286Y-72278571D02*
X140714286Y-73064286D01*
X140785714Y-73207143D01*
X140928572Y-73278571D01*
X141142857Y-73278571D01*
X141285714Y-73207143D01*
X141357143Y-73135714D01*
X142071429Y-72278571D02*
X142071429Y-73778571D01*
X142071429Y-72350000D02*
X142214286Y-72278571D01*
X142500000Y-72278571D01*
X142642857Y-72350000D01*
X142714286Y-72421429D01*
X142785715Y-72564286D01*
X142785715Y-72992857D01*
X142714286Y-73135714D01*
X142642857Y-73207143D01*
X142500000Y-73278571D01*
X142214286Y-73278571D01*
X142071429Y-73207143D01*
X143428572Y-72278571D02*
X143428572Y-73778571D01*
X143428572Y-72350000D02*
X143571429Y-72278571D01*
X143857143Y-72278571D01*
X144000000Y-72350000D01*
X144071429Y-72421429D01*
X144142858Y-72564286D01*
X144142858Y-72992857D01*
X144071429Y-73135714D01*
X144000000Y-73207143D01*
X143857143Y-73278571D01*
X143571429Y-73278571D01*
X143428572Y-73207143D01*
X145000001Y-73278571D02*
X144857143Y-73207143D01*
X144785715Y-73064286D01*
X144785715Y-71778571D01*
X145428572Y-72278571D02*
X145785715Y-73278571D01*
X146142857Y-72278571D02*
X145785715Y-73278571D01*
X145642857Y-73635714D01*
X145571429Y-73707143D01*
X145428572Y-73778571D01*
X158678572Y-71850000D02*
X158535715Y-71778571D01*
X158321429Y-71778571D01*
X158107144Y-71850000D01*
X157964286Y-71992857D01*
X157892858Y-72135714D01*
X157821429Y-72421429D01*
X157821429Y-72635714D01*
X157892858Y-72921429D01*
X157964286Y-73064286D01*
X158107144Y-73207143D01*
X158321429Y-73278571D01*
X158464286Y-73278571D01*
X158678572Y-73207143D01*
X158750001Y-73135714D01*
X158750001Y-72635714D01*
X158464286Y-72635714D01*
X160035715Y-73278571D02*
X160035715Y-72492857D01*
X159964286Y-72350000D01*
X159821429Y-72278571D01*
X159535715Y-72278571D01*
X159392858Y-72350000D01*
X160035715Y-73207143D02*
X159892858Y-73278571D01*
X159535715Y-73278571D01*
X159392858Y-73207143D01*
X159321429Y-73064286D01*
X159321429Y-72921429D01*
X159392858Y-72778571D01*
X159535715Y-72707143D01*
X159892858Y-72707143D01*
X160035715Y-72635714D01*
X160535715Y-72278571D02*
X161107144Y-72278571D01*
X160750001Y-71778571D02*
X160750001Y-73064286D01*
X160821429Y-73207143D01*
X160964287Y-73278571D01*
X161107144Y-73278571D01*
X162178572Y-73207143D02*
X162035715Y-73278571D01*
X161750001Y-73278571D01*
X161607144Y-73207143D01*
X161535715Y-73064286D01*
X161535715Y-72492857D01*
X161607144Y-72350000D01*
X161750001Y-72278571D01*
X162035715Y-72278571D01*
X162178572Y-72350000D01*
X162250001Y-72492857D01*
X162250001Y-72635714D01*
X161535715Y-72778571D01*
X162892858Y-73278571D02*
X162892858Y-71778571D01*
X163250001Y-71778571D01*
X163464286Y-71850000D01*
X163607144Y-71992857D01*
X163678572Y-72135714D01*
X163750001Y-72421429D01*
X163750001Y-72635714D01*
X163678572Y-72921429D01*
X163607144Y-73064286D01*
X163464286Y-73207143D01*
X163250001Y-73278571D01*
X162892858Y-73278571D01*
X164392858Y-73278571D02*
X164392858Y-72278571D01*
X164392858Y-72564286D02*
X164464286Y-72421429D01*
X164535715Y-72350000D01*
X164678572Y-72278571D01*
X164821429Y-72278571D01*
X165321429Y-73278571D02*
X165321429Y-72278571D01*
X165321429Y-71778571D02*
X165250000Y-71850000D01*
X165321429Y-71921429D01*
X165392857Y-71850000D01*
X165321429Y-71778571D01*
X165321429Y-71921429D01*
X165892858Y-72278571D02*
X166250001Y-73278571D01*
X166607143Y-72278571D01*
X167750000Y-73207143D02*
X167607143Y-73278571D01*
X167321429Y-73278571D01*
X167178572Y-73207143D01*
X167107143Y-73064286D01*
X167107143Y-72492857D01*
X167178572Y-72350000D01*
X167321429Y-72278571D01*
X167607143Y-72278571D01*
X167750000Y-72350000D01*
X167821429Y-72492857D01*
X167821429Y-72635714D01*
X167107143Y-72778571D01*
X168464286Y-73278571D02*
X168464286Y-72278571D01*
X168464286Y-72564286D02*
X168535714Y-72421429D01*
X168607143Y-72350000D01*
X168750000Y-72278571D01*
X168892857Y-72278571D01*
X170178571Y-73278571D02*
X169321428Y-73278571D01*
X169750000Y-73278571D02*
X169750000Y-71778571D01*
X169607143Y-71992857D01*
X169464285Y-72135714D01*
X169321428Y-72207143D01*
D12*
X158992141Y-140120000D02*
X153792141Y-140120000D01*
X153792141Y-136480000D02*
X158992141Y-136480000D01*
X238000000Y-103130000D02*
X240000000Y-103130000D01*
X240000000Y-105270000D02*
X238000000Y-105270000D01*
X240000002Y-102870000D02*
X238000002Y-102870000D01*
X238000002Y-100730000D02*
X240000002Y-100730000D01*
X229200000Y-105270000D02*
X227200000Y-105270000D01*
X227200000Y-103130000D02*
X229200000Y-103130000D01*
D13*
X223600000Y-131000000D02*
X223600000Y-101000000D01*
X143600000Y-101000000D02*
X223600000Y-101000000D01*
X143600000Y-131000000D02*
X223600000Y-131000000D01*
X143600000Y-131000000D02*
X143600000Y-101000000D01*
D14*
X278000000Y-94000000D02*
X276000000Y-94000000D01*
X280000000Y-96000000D02*
X278000000Y-94000000D01*
X250000000Y-94000000D02*
X276000000Y-94000000D01*
X248000000Y-96000000D02*
X250000000Y-94000000D01*
X247000000Y-97000000D02*
X248000000Y-96000000D01*
X274000000Y-106000000D02*
X254000000Y-106000000D01*
X281000000Y-97000000D02*
X280000000Y-96000000D01*
X254000000Y-106000000D02*
X247000000Y-106000000D01*
X281000000Y-106000000D02*
X274000000Y-106000000D01*
X247000000Y-106000000D02*
X247000000Y-97000000D01*
X247000000Y-101000000D02*
X247000000Y-97000000D01*
X281000000Y-106000000D02*
X281000000Y-97000000D01*
D12*
X275697012Y-77507025D02*
X275697012Y-75507025D01*
X277837012Y-75507025D02*
X277837012Y-77507025D01*
X273297011Y-77507026D02*
X273297011Y-75507026D01*
X275437011Y-75507026D02*
X275437011Y-77507026D01*
X246150000Y-78630000D02*
X246150000Y-80630000D01*
X248190000Y-80630000D02*
X248190000Y-78630000D01*
X280237012Y-75507026D02*
X280237012Y-77507026D01*
X278097012Y-77507026D02*
X278097012Y-75507026D01*
X264777900Y-75490434D02*
X264777900Y-77490434D01*
X262637900Y-77490434D02*
X262637900Y-75490434D01*
X257837901Y-77490432D02*
X257837901Y-75490432D01*
X259977901Y-75490432D02*
X259977901Y-77490432D01*
X257557901Y-75990433D02*
X257557901Y-74990433D01*
X255857901Y-74990433D02*
X255857901Y-75990433D01*
X273017011Y-76007026D02*
X273017011Y-75007026D01*
X271317011Y-75007026D02*
X271317011Y-76007026D01*
X260237902Y-77490434D02*
X260237902Y-75490434D01*
X262377902Y-75490434D02*
X262377902Y-77490434D01*
X221155354Y-88656204D02*
X226355354Y-88656204D01*
X226355354Y-92296204D02*
X221155354Y-92296204D01*
X221155354Y-92906204D02*
X226355354Y-92906204D01*
X226355354Y-96546204D02*
X221155354Y-96546204D01*
X232905355Y-88656204D02*
X238105355Y-88656204D01*
X238105355Y-92296204D02*
X232905355Y-92296204D01*
X232905355Y-92906204D02*
X238105355Y-92906204D01*
X238105355Y-96546204D02*
X232905355Y-96546204D01*
X227200000Y-100729999D02*
X229200000Y-100729999D01*
X229200000Y-102869999D02*
X227200000Y-102869999D01*
X231316000Y-80274000D02*
X231316000Y-81274000D01*
X233016000Y-81274000D02*
X233016000Y-80274000D01*
X228980000Y-78750000D02*
X228980000Y-80750000D01*
X231020000Y-80750000D02*
X231020000Y-78750000D01*
D14*
X235291000Y-77834000D02*
X235291000Y-77884000D01*
X239441000Y-77834000D02*
X239441000Y-77979000D01*
X239441000Y-82984000D02*
X239441000Y-82839000D01*
X235291000Y-82984000D02*
X235291000Y-82839000D01*
X235291000Y-77834000D02*
X239441000Y-77834000D01*
X235291000Y-82984000D02*
X239441000Y-82984000D01*
X235291000Y-77884000D02*
X233891000Y-77884000D01*
D12*
X158992140Y-144020000D02*
X153792140Y-144020000D01*
X153792140Y-140380000D02*
X158992140Y-140380000D01*
X162020000Y-151351000D02*
X145880000Y-151351000D01*
X162020000Y-146080000D02*
X145880000Y-146080000D01*
X162020000Y-151351000D02*
X162020000Y-146080000D01*
X145880000Y-151351000D02*
X145880000Y-146080000D01*
X155754000Y-151351000D02*
X155754000Y-146080000D01*
X152145000Y-151351000D02*
X152145000Y-146080000D01*
D14*
X117000000Y-127800000D02*
X117000000Y-116800000D01*
X103000000Y-127800000D02*
X117000000Y-127800000D01*
X103000000Y-126800000D02*
X103000000Y-127800000D01*
X103000000Y-115800000D02*
X103000000Y-126800000D01*
X117000000Y-115800000D02*
X103000000Y-115800000D01*
X117000000Y-116800000D02*
X117000000Y-115800000D01*
X117000000Y-101000000D02*
X117000000Y-90000000D01*
X103000000Y-101000000D02*
X117000000Y-101000000D01*
X103000000Y-100000000D02*
X103000000Y-101000000D01*
X103000000Y-89000000D02*
X103000000Y-100000000D01*
X117000000Y-89000000D02*
X103000000Y-89000000D01*
X117000000Y-90000000D02*
X117000000Y-89000000D01*
X250000000Y-136000000D02*
X252000000Y-136000000D01*
X248000000Y-134000000D02*
X250000000Y-136000000D01*
X278000000Y-136000000D02*
X252000000Y-136000000D01*
X280000000Y-134000000D02*
X278000000Y-136000000D01*
X281000000Y-133000000D02*
X280000000Y-134000000D01*
X254000000Y-124000000D02*
X274000000Y-124000000D01*
X247000000Y-133000000D02*
X248000000Y-134000000D01*
X274000000Y-124000000D02*
X281000000Y-124000000D01*
X247000000Y-124000000D02*
X254000000Y-124000000D01*
X281000000Y-124000000D02*
X281000000Y-133000000D01*
X281000000Y-129000000D02*
X281000000Y-133000000D01*
X247000000Y-124000000D02*
X247000000Y-133000000D01*
X256700000Y-148050000D02*
X253100000Y-148050000D01*
X256700000Y-155950000D02*
X256700000Y-148050000D01*
X253100000Y-155950000D02*
X256700000Y-155950000D01*
X253100000Y-148050000D02*
X253100000Y-155950000D01*
X231800000Y-148050000D02*
X228200000Y-148050000D01*
X231800000Y-155950000D02*
X231800000Y-148050000D01*
X228200000Y-155950000D02*
X231800000Y-155950000D01*
X228200000Y-148050000D02*
X228200000Y-155950000D01*
D12*
X236350000Y-105600000D02*
X236350000Y-107600000D01*
X236350000Y-107600000D02*
X240250000Y-107600000D01*
X236350000Y-105600000D02*
X240250000Y-105600000D01*
X230750000Y-107600000D02*
X230750000Y-105600000D01*
X230750000Y-105600000D02*
X226850000Y-105600000D01*
X230750000Y-107600000D02*
X226850000Y-107600000D01*
X224622595Y-78203582D02*
X224622595Y-80203582D01*
X222482595Y-80203582D02*
X222482595Y-78203582D01*
X222222594Y-78203582D02*
X222222594Y-80203582D01*
X220082594Y-80203582D02*
X220082594Y-78203582D01*
D14*
X219050000Y-73900000D02*
X219050000Y-74400000D01*
X216050000Y-73900000D02*
X219050000Y-73900000D01*
X216050000Y-74400000D02*
X216050000Y-73900000D01*
X219050000Y-82900000D02*
X219050000Y-82400000D01*
X216050000Y-82900000D02*
X219050000Y-82900000D01*
X216050000Y-82400000D02*
X216050000Y-82900000D01*
X208050000Y-82900000D02*
X208050000Y-82400000D01*
X205050000Y-82900000D02*
X208050000Y-82900000D01*
X205050000Y-82400000D02*
X205050000Y-82900000D01*
X208050000Y-73900000D02*
X208050000Y-74400000D01*
X205050000Y-73900000D02*
X208050000Y-73900000D01*
X205050000Y-74400000D02*
X205050000Y-73900000D01*
X216050000Y-77400000D02*
X216050000Y-76900000D01*
X208050000Y-77400000D02*
X216050000Y-77400000D01*
X208050000Y-76900000D02*
X208050000Y-77400000D01*
X208050000Y-79400000D02*
X208050000Y-79900000D01*
X216050000Y-79400000D02*
X208050000Y-79400000D01*
X216050000Y-79900000D02*
X216050000Y-79400000D01*
X216050000Y-76900000D02*
X216050000Y-75400000D01*
X208050000Y-75400000D02*
X208050000Y-76900000D01*
X216050000Y-75400000D02*
X216050000Y-74400000D01*
X208050000Y-74400000D02*
X208050000Y-75400000D01*
X205050000Y-82400000D02*
X205050000Y-74400000D01*
X208050000Y-79900000D02*
X208050000Y-82400000D01*
X216050000Y-82400000D02*
X216050000Y-79900000D01*
X219050000Y-74400000D02*
X219050000Y-82400000D01*
D12*
X190260000Y-144160000D02*
X172140000Y-144160000D01*
X190260000Y-139040000D02*
X172140000Y-139040000D01*
X190260000Y-144160000D02*
X190260000Y-139040000D01*
X172140000Y-144160000D02*
X172140000Y-139040000D01*
X173450000Y-77430000D02*
X173450000Y-74770000D01*
X160690000Y-77430000D02*
X173450000Y-77430000D01*
X160690000Y-74770000D02*
X173450000Y-74770000D01*
X160690000Y-77430000D02*
X160690000Y-74770000D01*
X159420000Y-77430000D02*
X158090000Y-77430000D01*
X158090000Y-77430000D02*
X158090000Y-76100000D01*
X192810000Y-77430000D02*
X192810000Y-74770000D01*
X185130000Y-77430000D02*
X192810000Y-77430000D01*
X185130000Y-74770000D02*
X192810000Y-74770000D01*
X185130000Y-77430000D02*
X185130000Y-74770000D01*
X183860000Y-77430000D02*
X182530000Y-77430000D01*
X182530000Y-77430000D02*
X182530000Y-76100000D01*
X147030000Y-77430000D02*
X147030000Y-74770000D01*
X134270000Y-77430000D02*
X147030000Y-77430000D01*
X134270000Y-74770000D02*
X147030000Y-74770000D01*
X134270000Y-77430000D02*
X134270000Y-74770000D01*
X133000000Y-77430000D02*
X131670000Y-77430000D01*
X131670000Y-77430000D02*
X131670000Y-76100000D01*
X245810000Y-80630000D02*
X245810000Y-78630000D01*
X243770000Y-78630000D02*
X243770000Y-80630000D01*
X241760000Y-80220000D02*
X241760000Y-79020000D01*
X243520000Y-79020000D02*
X243520000Y-80220000D01*
D14*
X113950000Y-141800000D02*
X113950000Y-138200000D01*
X106050000Y-141800000D02*
X113950000Y-141800000D01*
X106050000Y-138200000D02*
X106050000Y-141800000D01*
X113950000Y-138200000D02*
X106050000Y-138200000D01*
D12*
X123740000Y-154760000D02*
X123740000Y-136640000D01*
X131860000Y-154760000D02*
X131860000Y-136640000D01*
X123740000Y-154760000D02*
X131860000Y-154760000D01*
X123740000Y-136640000D02*
X131860000Y-136640000D01*
X140960000Y-136640000D02*
X140960000Y-154760000D01*
X132840000Y-136640000D02*
X132840000Y-154760000D01*
X140960000Y-136640000D02*
X132840000Y-136640000D01*
X140960000Y-154760000D02*
X132840000Y-154760000D01*
D14*
X162657143Y-138802381D02*
X162323809Y-138326190D01*
X162085714Y-138802381D02*
X162085714Y-137802381D01*
X162466667Y-137802381D01*
X162561905Y-137850000D01*
X162609524Y-137897619D01*
X162657143Y-137992857D01*
X162657143Y-138135714D01*
X162609524Y-138230952D01*
X162561905Y-138278571D01*
X162466667Y-138326190D01*
X162085714Y-138326190D01*
X163609524Y-138802381D02*
X163038095Y-138802381D01*
X163323809Y-138802381D02*
X163323809Y-137802381D01*
X163228571Y-137945238D01*
X163133333Y-138040476D01*
X163038095Y-138088095D01*
X163942857Y-137802381D02*
X164609524Y-137802381D01*
X164180952Y-138802381D01*
X237957143Y-99052381D02*
X237623809Y-98576190D01*
X237385714Y-99052381D02*
X237385714Y-98052381D01*
X237766667Y-98052381D01*
X237861905Y-98100000D01*
X237909524Y-98147619D01*
X237957143Y-98242857D01*
X237957143Y-98385714D01*
X237909524Y-98480952D01*
X237861905Y-98528571D01*
X237766667Y-98576190D01*
X237385714Y-98576190D01*
X238290476Y-98052381D02*
X238909524Y-98052381D01*
X238576190Y-98433333D01*
X238719048Y-98433333D01*
X238814286Y-98480952D01*
X238861905Y-98528571D01*
X238909524Y-98623810D01*
X238909524Y-98861905D01*
X238861905Y-98957143D01*
X238814286Y-99004762D01*
X238719048Y-99052381D01*
X238433333Y-99052381D01*
X238338095Y-99004762D01*
X238290476Y-98957143D01*
X239861905Y-99052381D02*
X239290476Y-99052381D01*
X239576190Y-99052381D02*
X239576190Y-98052381D01*
X239480952Y-98195238D01*
X239385714Y-98290476D01*
X239290476Y-98338095D01*
X237957143Y-97702381D02*
X237623809Y-97226190D01*
X237385714Y-97702381D02*
X237385714Y-96702381D01*
X237766667Y-96702381D01*
X237861905Y-96750000D01*
X237909524Y-96797619D01*
X237957143Y-96892857D01*
X237957143Y-97035714D01*
X237909524Y-97130952D01*
X237861905Y-97178571D01*
X237766667Y-97226190D01*
X237385714Y-97226190D01*
X238909524Y-97702381D02*
X238338095Y-97702381D01*
X238623809Y-97702381D02*
X238623809Y-96702381D01*
X238528571Y-96845238D01*
X238433333Y-96940476D01*
X238338095Y-96988095D01*
X239766667Y-97035714D02*
X239766667Y-97702381D01*
X239528571Y-96654762D02*
X239290476Y-97369048D01*
X239909524Y-97369048D01*
X227407143Y-99252381D02*
X227073809Y-98776190D01*
X226835714Y-99252381D02*
X226835714Y-98252381D01*
X227216667Y-98252381D01*
X227311905Y-98300000D01*
X227359524Y-98347619D01*
X227407143Y-98442857D01*
X227407143Y-98585714D01*
X227359524Y-98680952D01*
X227311905Y-98728571D01*
X227216667Y-98776190D01*
X226835714Y-98776190D01*
X227740476Y-98252381D02*
X228359524Y-98252381D01*
X228026190Y-98633333D01*
X228169048Y-98633333D01*
X228264286Y-98680952D01*
X228311905Y-98728571D01*
X228359524Y-98823810D01*
X228359524Y-99061905D01*
X228311905Y-99157143D01*
X228264286Y-99204762D01*
X228169048Y-99252381D01*
X227883333Y-99252381D01*
X227788095Y-99204762D01*
X227740476Y-99157143D01*
X228740476Y-98347619D02*
X228788095Y-98300000D01*
X228883333Y-98252381D01*
X229121429Y-98252381D01*
X229216667Y-98300000D01*
X229264286Y-98347619D01*
X229311905Y-98442857D01*
X229311905Y-98538095D01*
X229264286Y-98680952D01*
X228692857Y-99252381D01*
X229311905Y-99252381D01*
X142033334Y-103602381D02*
X141557143Y-103602381D01*
X141557143Y-102602381D01*
X142890477Y-103602381D02*
X142319048Y-103602381D01*
X142604762Y-103602381D02*
X142604762Y-102602381D01*
X142509524Y-102745238D01*
X142414286Y-102840476D01*
X142319048Y-102888095D01*
X247666667Y-106452381D02*
X247666667Y-107166667D01*
X247619047Y-107309524D01*
X247523809Y-107404762D01*
X247380952Y-107452381D01*
X247285714Y-107452381D01*
X248619048Y-106452381D02*
X248142857Y-106452381D01*
X248095238Y-106928571D01*
X248142857Y-106880952D01*
X248238095Y-106833333D01*
X248476191Y-106833333D01*
X248571429Y-106880952D01*
X248619048Y-106928571D01*
X248666667Y-107023810D01*
X248666667Y-107261905D01*
X248619048Y-107357143D01*
X248571429Y-107404762D01*
X248476191Y-107452381D01*
X248238095Y-107452381D01*
X248142857Y-107404762D01*
X248095238Y-107357143D01*
X277252381Y-72792857D02*
X276776190Y-73126191D01*
X277252381Y-73364286D02*
X276252381Y-73364286D01*
X276252381Y-72983333D01*
X276300000Y-72888095D01*
X276347619Y-72840476D01*
X276442857Y-72792857D01*
X276585714Y-72792857D01*
X276680952Y-72840476D01*
X276728571Y-72888095D01*
X276776190Y-72983333D01*
X276776190Y-73364286D01*
X276347619Y-72411905D02*
X276300000Y-72364286D01*
X276252381Y-72269048D01*
X276252381Y-72030952D01*
X276300000Y-71935714D01*
X276347619Y-71888095D01*
X276442857Y-71840476D01*
X276538095Y-71840476D01*
X276680952Y-71888095D01*
X277252381Y-72459524D01*
X277252381Y-71840476D01*
X276252381Y-70983333D02*
X276252381Y-71173810D01*
X276300000Y-71269048D01*
X276347619Y-71316667D01*
X276490476Y-71411905D01*
X276680952Y-71459524D01*
X277061905Y-71459524D01*
X277157143Y-71411905D01*
X277204762Y-71364286D01*
X277252381Y-71269048D01*
X277252381Y-71078571D01*
X277204762Y-70983333D01*
X277157143Y-70935714D01*
X277061905Y-70888095D01*
X276823810Y-70888095D01*
X276728571Y-70935714D01*
X276680952Y-70983333D01*
X276633333Y-71078571D01*
X276633333Y-71269048D01*
X276680952Y-71364286D01*
X276728571Y-71411905D01*
X276823810Y-71459524D01*
X274852381Y-72842857D02*
X274376190Y-73176191D01*
X274852381Y-73414286D02*
X273852381Y-73414286D01*
X273852381Y-73033333D01*
X273900000Y-72938095D01*
X273947619Y-72890476D01*
X274042857Y-72842857D01*
X274185714Y-72842857D01*
X274280952Y-72890476D01*
X274328571Y-72938095D01*
X274376190Y-73033333D01*
X274376190Y-73414286D01*
X273947619Y-72461905D02*
X273900000Y-72414286D01*
X273852381Y-72319048D01*
X273852381Y-72080952D01*
X273900000Y-71985714D01*
X273947619Y-71938095D01*
X274042857Y-71890476D01*
X274138095Y-71890476D01*
X274280952Y-71938095D01*
X274852381Y-72509524D01*
X274852381Y-71890476D01*
X273852381Y-71557143D02*
X273852381Y-70890476D01*
X274852381Y-71319048D01*
X247557143Y-84642857D02*
X247604762Y-84690476D01*
X247652381Y-84833333D01*
X247652381Y-84928571D01*
X247604762Y-85071429D01*
X247509524Y-85166667D01*
X247414286Y-85214286D01*
X247223810Y-85261905D01*
X247080952Y-85261905D01*
X246890476Y-85214286D01*
X246795238Y-85166667D01*
X246700000Y-85071429D01*
X246652381Y-84928571D01*
X246652381Y-84833333D01*
X246700000Y-84690476D01*
X246747619Y-84642857D01*
X246747619Y-84261905D02*
X246700000Y-84214286D01*
X246652381Y-84119048D01*
X246652381Y-83880952D01*
X246700000Y-83785714D01*
X246747619Y-83738095D01*
X246842857Y-83690476D01*
X246938095Y-83690476D01*
X247080952Y-83738095D01*
X247652381Y-84309524D01*
X247652381Y-83690476D01*
X247080952Y-83119048D02*
X247033333Y-83214286D01*
X246985714Y-83261905D01*
X246890476Y-83309524D01*
X246842857Y-83309524D01*
X246747619Y-83261905D01*
X246700000Y-83214286D01*
X246652381Y-83119048D01*
X246652381Y-82928571D01*
X246700000Y-82833333D01*
X246747619Y-82785714D01*
X246842857Y-82738095D01*
X246890476Y-82738095D01*
X246985714Y-82785714D01*
X247033333Y-82833333D01*
X247080952Y-82928571D01*
X247080952Y-83119048D01*
X247128571Y-83214286D01*
X247176190Y-83261905D01*
X247271429Y-83309524D01*
X247461905Y-83309524D01*
X247557143Y-83261905D01*
X247604762Y-83214286D01*
X247652381Y-83119048D01*
X247652381Y-82928571D01*
X247604762Y-82833333D01*
X247557143Y-82785714D01*
X247461905Y-82738095D01*
X247271429Y-82738095D01*
X247176190Y-82785714D01*
X247128571Y-82833333D01*
X247080952Y-82928571D01*
X279602381Y-72742857D02*
X279126190Y-73076191D01*
X279602381Y-73314286D02*
X278602381Y-73314286D01*
X278602381Y-72933333D01*
X278650000Y-72838095D01*
X278697619Y-72790476D01*
X278792857Y-72742857D01*
X278935714Y-72742857D01*
X279030952Y-72790476D01*
X279078571Y-72838095D01*
X279126190Y-72933333D01*
X279126190Y-73314286D01*
X278697619Y-72361905D02*
X278650000Y-72314286D01*
X278602381Y-72219048D01*
X278602381Y-71980952D01*
X278650000Y-71885714D01*
X278697619Y-71838095D01*
X278792857Y-71790476D01*
X278888095Y-71790476D01*
X279030952Y-71838095D01*
X279602381Y-72409524D01*
X279602381Y-71790476D01*
X278602381Y-70885714D02*
X278602381Y-71361905D01*
X279078571Y-71409524D01*
X279030952Y-71361905D01*
X278983333Y-71266667D01*
X278983333Y-71028571D01*
X279030952Y-70933333D01*
X279078571Y-70885714D01*
X279173810Y-70838095D01*
X279411905Y-70838095D01*
X279507143Y-70885714D01*
X279554762Y-70933333D01*
X279602381Y-71028571D01*
X279602381Y-71266667D01*
X279554762Y-71361905D01*
X279507143Y-71409524D01*
X264152381Y-72342857D02*
X263676190Y-72676191D01*
X264152381Y-72914286D02*
X263152381Y-72914286D01*
X263152381Y-72533333D01*
X263200000Y-72438095D01*
X263247619Y-72390476D01*
X263342857Y-72342857D01*
X263485714Y-72342857D01*
X263580952Y-72390476D01*
X263628571Y-72438095D01*
X263676190Y-72533333D01*
X263676190Y-72914286D01*
X263247619Y-71961905D02*
X263200000Y-71914286D01*
X263152381Y-71819048D01*
X263152381Y-71580952D01*
X263200000Y-71485714D01*
X263247619Y-71438095D01*
X263342857Y-71390476D01*
X263438095Y-71390476D01*
X263580952Y-71438095D01*
X264152381Y-72009524D01*
X264152381Y-71390476D01*
X263580952Y-70819048D02*
X263533333Y-70914286D01*
X263485714Y-70961905D01*
X263390476Y-71009524D01*
X263342857Y-71009524D01*
X263247619Y-70961905D01*
X263200000Y-70914286D01*
X263152381Y-70819048D01*
X263152381Y-70628571D01*
X263200000Y-70533333D01*
X263247619Y-70485714D01*
X263342857Y-70438095D01*
X263390476Y-70438095D01*
X263485714Y-70485714D01*
X263533333Y-70533333D01*
X263580952Y-70628571D01*
X263580952Y-70819048D01*
X263628571Y-70914286D01*
X263676190Y-70961905D01*
X263771429Y-71009524D01*
X263961905Y-71009524D01*
X264057143Y-70961905D01*
X264104762Y-70914286D01*
X264152381Y-70819048D01*
X264152381Y-70628571D01*
X264104762Y-70533333D01*
X264057143Y-70485714D01*
X263961905Y-70438095D01*
X263771429Y-70438095D01*
X263676190Y-70485714D01*
X263628571Y-70533333D01*
X263580952Y-70628571D01*
X259302381Y-72492857D02*
X258826190Y-72826191D01*
X259302381Y-73064286D02*
X258302381Y-73064286D01*
X258302381Y-72683333D01*
X258350000Y-72588095D01*
X258397619Y-72540476D01*
X258492857Y-72492857D01*
X258635714Y-72492857D01*
X258730952Y-72540476D01*
X258778571Y-72588095D01*
X258826190Y-72683333D01*
X258826190Y-73064286D01*
X258302381Y-72159524D02*
X258302381Y-71540476D01*
X258683333Y-71873810D01*
X258683333Y-71730952D01*
X258730952Y-71635714D01*
X258778571Y-71588095D01*
X258873810Y-71540476D01*
X259111905Y-71540476D01*
X259207143Y-71588095D01*
X259254762Y-71635714D01*
X259302381Y-71730952D01*
X259302381Y-72016667D01*
X259254762Y-72111905D01*
X259207143Y-72159524D01*
X258302381Y-70921429D02*
X258302381Y-70826190D01*
X258350000Y-70730952D01*
X258397619Y-70683333D01*
X258492857Y-70635714D01*
X258683333Y-70588095D01*
X258921429Y-70588095D01*
X259111905Y-70635714D01*
X259207143Y-70683333D01*
X259254762Y-70730952D01*
X259302381Y-70826190D01*
X259302381Y-70921429D01*
X259254762Y-71016667D01*
X259207143Y-71064286D01*
X259111905Y-71111905D01*
X258921429Y-71159524D01*
X258683333Y-71159524D01*
X258492857Y-71111905D01*
X258397619Y-71064286D01*
X258350000Y-71016667D01*
X258302381Y-70921429D01*
X257057143Y-72492857D02*
X257104762Y-72540476D01*
X257152381Y-72683333D01*
X257152381Y-72778571D01*
X257104762Y-72921429D01*
X257009524Y-73016667D01*
X256914286Y-73064286D01*
X256723810Y-73111905D01*
X256580952Y-73111905D01*
X256390476Y-73064286D01*
X256295238Y-73016667D01*
X256200000Y-72921429D01*
X256152381Y-72778571D01*
X256152381Y-72683333D01*
X256200000Y-72540476D01*
X256247619Y-72492857D01*
X257152381Y-71540476D02*
X257152381Y-72111905D01*
X257152381Y-71826191D02*
X256152381Y-71826191D01*
X256295238Y-71921429D01*
X256390476Y-72016667D01*
X256438095Y-72111905D01*
X256580952Y-70969048D02*
X256533333Y-71064286D01*
X256485714Y-71111905D01*
X256390476Y-71159524D01*
X256342857Y-71159524D01*
X256247619Y-71111905D01*
X256200000Y-71064286D01*
X256152381Y-70969048D01*
X256152381Y-70778571D01*
X256200000Y-70683333D01*
X256247619Y-70635714D01*
X256342857Y-70588095D01*
X256390476Y-70588095D01*
X256485714Y-70635714D01*
X256533333Y-70683333D01*
X256580952Y-70778571D01*
X256580952Y-70969048D01*
X256628571Y-71064286D01*
X256676190Y-71111905D01*
X256771429Y-71159524D01*
X256961905Y-71159524D01*
X257057143Y-71111905D01*
X257104762Y-71064286D01*
X257152381Y-70969048D01*
X257152381Y-70778571D01*
X257104762Y-70683333D01*
X257057143Y-70635714D01*
X256961905Y-70588095D01*
X256771429Y-70588095D01*
X256676190Y-70635714D01*
X256628571Y-70683333D01*
X256580952Y-70778571D01*
X272507143Y-72742857D02*
X272554762Y-72790476D01*
X272602381Y-72933333D01*
X272602381Y-73028571D01*
X272554762Y-73171429D01*
X272459524Y-73266667D01*
X272364286Y-73314286D01*
X272173810Y-73361905D01*
X272030952Y-73361905D01*
X271840476Y-73314286D01*
X271745238Y-73266667D01*
X271650000Y-73171429D01*
X271602381Y-73028571D01*
X271602381Y-72933333D01*
X271650000Y-72790476D01*
X271697619Y-72742857D01*
X272602381Y-71790476D02*
X272602381Y-72361905D01*
X272602381Y-72076191D02*
X271602381Y-72076191D01*
X271745238Y-72171429D01*
X271840476Y-72266667D01*
X271888095Y-72361905D01*
X271602381Y-71457143D02*
X271602381Y-70790476D01*
X272602381Y-71219048D01*
X261752381Y-72342857D02*
X261276190Y-72676191D01*
X261752381Y-72914286D02*
X260752381Y-72914286D01*
X260752381Y-72533333D01*
X260800000Y-72438095D01*
X260847619Y-72390476D01*
X260942857Y-72342857D01*
X261085714Y-72342857D01*
X261180952Y-72390476D01*
X261228571Y-72438095D01*
X261276190Y-72533333D01*
X261276190Y-72914286D01*
X260847619Y-71961905D02*
X260800000Y-71914286D01*
X260752381Y-71819048D01*
X260752381Y-71580952D01*
X260800000Y-71485714D01*
X260847619Y-71438095D01*
X260942857Y-71390476D01*
X261038095Y-71390476D01*
X261180952Y-71438095D01*
X261752381Y-72009524D01*
X261752381Y-71390476D01*
X261752381Y-70914286D02*
X261752381Y-70723810D01*
X261704762Y-70628571D01*
X261657143Y-70580952D01*
X261514286Y-70485714D01*
X261323810Y-70438095D01*
X260942857Y-70438095D01*
X260847619Y-70485714D01*
X260800000Y-70533333D01*
X260752381Y-70628571D01*
X260752381Y-70819048D01*
X260800000Y-70914286D01*
X260847619Y-70961905D01*
X260942857Y-71009524D01*
X261180952Y-71009524D01*
X261276190Y-70961905D01*
X261323810Y-70914286D01*
X261371429Y-70819048D01*
X261371429Y-70628571D01*
X261323810Y-70533333D01*
X261276190Y-70485714D01*
X261180952Y-70438095D01*
X197690476Y-83132381D02*
X197690476Y-82132381D01*
X198023810Y-82846667D01*
X198357143Y-82132381D01*
X198357143Y-83132381D01*
X198833333Y-83132381D02*
X198833333Y-82132381D01*
X199214286Y-82132381D01*
X199309524Y-82180000D01*
X199357143Y-82227619D01*
X199404762Y-82322857D01*
X199404762Y-82465714D01*
X199357143Y-82560952D01*
X199309524Y-82608571D01*
X199214286Y-82656190D01*
X198833333Y-82656190D01*
X200357143Y-83132381D02*
X199785714Y-83132381D01*
X200071428Y-83132381D02*
X200071428Y-82132381D01*
X199976190Y-82275238D01*
X199880952Y-82370476D01*
X199785714Y-82418095D01*
X108690476Y-83132381D02*
X108690476Y-82132381D01*
X109023810Y-82846667D01*
X109357143Y-82132381D01*
X109357143Y-83132381D01*
X109833333Y-83132381D02*
X109833333Y-82132381D01*
X110214286Y-82132381D01*
X110309524Y-82180000D01*
X110357143Y-82227619D01*
X110404762Y-82322857D01*
X110404762Y-82465714D01*
X110357143Y-82560952D01*
X110309524Y-82608571D01*
X110214286Y-82656190D01*
X109833333Y-82656190D01*
X110785714Y-82227619D02*
X110833333Y-82180000D01*
X110928571Y-82132381D01*
X111166667Y-82132381D01*
X111261905Y-82180000D01*
X111309524Y-82227619D01*
X111357143Y-82322857D01*
X111357143Y-82418095D01*
X111309524Y-82560952D01*
X110738095Y-83132381D01*
X111357143Y-83132381D01*
X288290476Y-83132381D02*
X288290476Y-82132381D01*
X288623810Y-82846667D01*
X288957143Y-82132381D01*
X288957143Y-83132381D01*
X289433333Y-83132381D02*
X289433333Y-82132381D01*
X289814286Y-82132381D01*
X289909524Y-82180000D01*
X289957143Y-82227619D01*
X290004762Y-82322857D01*
X290004762Y-82465714D01*
X289957143Y-82560952D01*
X289909524Y-82608571D01*
X289814286Y-82656190D01*
X289433333Y-82656190D01*
X290338095Y-82132381D02*
X290957143Y-82132381D01*
X290623809Y-82513333D01*
X290766667Y-82513333D01*
X290861905Y-82560952D01*
X290909524Y-82608571D01*
X290957143Y-82703810D01*
X290957143Y-82941905D01*
X290909524Y-83037143D01*
X290861905Y-83084762D01*
X290766667Y-83132381D01*
X290480952Y-83132381D01*
X290385714Y-83084762D01*
X290338095Y-83037143D01*
X192490476Y-153052381D02*
X192490476Y-152052381D01*
X192823810Y-152766667D01*
X193157143Y-152052381D01*
X193157143Y-153052381D01*
X193633333Y-153052381D02*
X193633333Y-152052381D01*
X194014286Y-152052381D01*
X194109524Y-152100000D01*
X194157143Y-152147619D01*
X194204762Y-152242857D01*
X194204762Y-152385714D01*
X194157143Y-152480952D01*
X194109524Y-152528571D01*
X194014286Y-152576190D01*
X193633333Y-152576190D01*
X195061905Y-152385714D02*
X195061905Y-153052381D01*
X194823809Y-152004762D02*
X194585714Y-152719048D01*
X195204762Y-152719048D01*
X294990476Y-153052381D02*
X294990476Y-152052381D01*
X295323810Y-152766667D01*
X295657143Y-152052381D01*
X295657143Y-153052381D01*
X296133333Y-153052381D02*
X296133333Y-152052381D01*
X296514286Y-152052381D01*
X296609524Y-152100000D01*
X296657143Y-152147619D01*
X296704762Y-152242857D01*
X296704762Y-152385714D01*
X296657143Y-152480952D01*
X296609524Y-152528571D01*
X296514286Y-152576190D01*
X296133333Y-152576190D01*
X297609524Y-152052381D02*
X297133333Y-152052381D01*
X297085714Y-152528571D01*
X297133333Y-152480952D01*
X297228571Y-152433333D01*
X297466667Y-152433333D01*
X297561905Y-152480952D01*
X297609524Y-152528571D01*
X297657143Y-152623810D01*
X297657143Y-152861905D01*
X297609524Y-152957143D01*
X297561905Y-153004762D01*
X297466667Y-153052381D01*
X297228571Y-153052381D01*
X297133333Y-153004762D01*
X297085714Y-152957143D01*
X103290476Y-153052381D02*
X103290476Y-152052381D01*
X103623810Y-152766667D01*
X103957143Y-152052381D01*
X103957143Y-153052381D01*
X104433333Y-153052381D02*
X104433333Y-152052381D01*
X104814286Y-152052381D01*
X104909524Y-152100000D01*
X104957143Y-152147619D01*
X105004762Y-152242857D01*
X105004762Y-152385714D01*
X104957143Y-152480952D01*
X104909524Y-152528571D01*
X104814286Y-152576190D01*
X104433333Y-152576190D01*
X105861905Y-152052381D02*
X105671428Y-152052381D01*
X105576190Y-152100000D01*
X105528571Y-152147619D01*
X105433333Y-152290476D01*
X105385714Y-152480952D01*
X105385714Y-152861905D01*
X105433333Y-152957143D01*
X105480952Y-153004762D01*
X105576190Y-153052381D01*
X105766667Y-153052381D01*
X105861905Y-153004762D01*
X105909524Y-152957143D01*
X105957143Y-152861905D01*
X105957143Y-152623810D01*
X105909524Y-152528571D01*
X105861905Y-152480952D01*
X105766667Y-152433333D01*
X105576190Y-152433333D01*
X105480952Y-152480952D01*
X105433333Y-152528571D01*
X105385714Y-152623810D01*
X223433334Y-87252381D02*
X223100000Y-86776190D01*
X222861905Y-87252381D02*
X222861905Y-86252381D01*
X223242858Y-86252381D01*
X223338096Y-86300000D01*
X223385715Y-86347619D01*
X223433334Y-86442857D01*
X223433334Y-86585714D01*
X223385715Y-86680952D01*
X223338096Y-86728571D01*
X223242858Y-86776190D01*
X222861905Y-86776190D01*
X224004762Y-86680952D02*
X223909524Y-86633333D01*
X223861905Y-86585714D01*
X223814286Y-86490476D01*
X223814286Y-86442857D01*
X223861905Y-86347619D01*
X223909524Y-86300000D01*
X224004762Y-86252381D01*
X224195239Y-86252381D01*
X224290477Y-86300000D01*
X224338096Y-86347619D01*
X224385715Y-86442857D01*
X224385715Y-86490476D01*
X224338096Y-86585714D01*
X224290477Y-86633333D01*
X224195239Y-86680952D01*
X224004762Y-86680952D01*
X223909524Y-86728571D01*
X223861905Y-86776190D01*
X223814286Y-86871429D01*
X223814286Y-87061905D01*
X223861905Y-87157143D01*
X223909524Y-87204762D01*
X224004762Y-87252381D01*
X224195239Y-87252381D01*
X224290477Y-87204762D01*
X224338096Y-87157143D01*
X224385715Y-87061905D01*
X224385715Y-86871429D01*
X224338096Y-86776190D01*
X224290477Y-86728571D01*
X224195239Y-86680952D01*
X223433334Y-88502381D02*
X223100000Y-88026190D01*
X222861905Y-88502381D02*
X222861905Y-87502381D01*
X223242858Y-87502381D01*
X223338096Y-87550000D01*
X223385715Y-87597619D01*
X223433334Y-87692857D01*
X223433334Y-87835714D01*
X223385715Y-87930952D01*
X223338096Y-87978571D01*
X223242858Y-88026190D01*
X222861905Y-88026190D01*
X223909524Y-88502381D02*
X224100000Y-88502381D01*
X224195239Y-88454762D01*
X224242858Y-88407143D01*
X224338096Y-88264286D01*
X224385715Y-88073810D01*
X224385715Y-87692857D01*
X224338096Y-87597619D01*
X224290477Y-87550000D01*
X224195239Y-87502381D01*
X224004762Y-87502381D01*
X223909524Y-87550000D01*
X223861905Y-87597619D01*
X223814286Y-87692857D01*
X223814286Y-87930952D01*
X223861905Y-88026190D01*
X223909524Y-88073810D01*
X224004762Y-88121429D01*
X224195239Y-88121429D01*
X224290477Y-88073810D01*
X224338096Y-88026190D01*
X224385715Y-87930952D01*
X234907143Y-86652381D02*
X234573809Y-86176190D01*
X234335714Y-86652381D02*
X234335714Y-85652381D01*
X234716667Y-85652381D01*
X234811905Y-85700000D01*
X234859524Y-85747619D01*
X234907143Y-85842857D01*
X234907143Y-85985714D01*
X234859524Y-86080952D01*
X234811905Y-86128571D01*
X234716667Y-86176190D01*
X234335714Y-86176190D01*
X235859524Y-86652381D02*
X235288095Y-86652381D01*
X235573809Y-86652381D02*
X235573809Y-85652381D01*
X235478571Y-85795238D01*
X235383333Y-85890476D01*
X235288095Y-85938095D01*
X236811905Y-86652381D02*
X236240476Y-86652381D01*
X236526190Y-86652381D02*
X236526190Y-85652381D01*
X236430952Y-85795238D01*
X236335714Y-85890476D01*
X236240476Y-85938095D01*
X234857143Y-88302381D02*
X234523809Y-87826190D01*
X234285714Y-88302381D02*
X234285714Y-87302381D01*
X234666667Y-87302381D01*
X234761905Y-87350000D01*
X234809524Y-87397619D01*
X234857143Y-87492857D01*
X234857143Y-87635714D01*
X234809524Y-87730952D01*
X234761905Y-87778571D01*
X234666667Y-87826190D01*
X234285714Y-87826190D01*
X235809524Y-88302381D02*
X235238095Y-88302381D01*
X235523809Y-88302381D02*
X235523809Y-87302381D01*
X235428571Y-87445238D01*
X235333333Y-87540476D01*
X235238095Y-87588095D01*
X236190476Y-87397619D02*
X236238095Y-87350000D01*
X236333333Y-87302381D01*
X236571429Y-87302381D01*
X236666667Y-87350000D01*
X236714286Y-87397619D01*
X236761905Y-87492857D01*
X236761905Y-87588095D01*
X236714286Y-87730952D01*
X236142857Y-88302381D01*
X236761905Y-88302381D01*
X227407143Y-97902381D02*
X227073809Y-97426190D01*
X226835714Y-97902381D02*
X226835714Y-96902381D01*
X227216667Y-96902381D01*
X227311905Y-96950000D01*
X227359524Y-96997619D01*
X227407143Y-97092857D01*
X227407143Y-97235714D01*
X227359524Y-97330952D01*
X227311905Y-97378571D01*
X227216667Y-97426190D01*
X226835714Y-97426190D01*
X228359524Y-97902381D02*
X227788095Y-97902381D01*
X228073809Y-97902381D02*
X228073809Y-96902381D01*
X227978571Y-97045238D01*
X227883333Y-97140476D01*
X227788095Y-97188095D01*
X228835714Y-97902381D02*
X229026190Y-97902381D01*
X229121429Y-97854762D01*
X229169048Y-97807143D01*
X229264286Y-97664286D01*
X229311905Y-97473810D01*
X229311905Y-97092857D01*
X229264286Y-96997619D01*
X229216667Y-96950000D01*
X229121429Y-96902381D01*
X228930952Y-96902381D01*
X228835714Y-96950000D01*
X228788095Y-96997619D01*
X228740476Y-97092857D01*
X228740476Y-97330952D01*
X228788095Y-97426190D01*
X228835714Y-97473810D01*
X228930952Y-97521429D01*
X229121429Y-97521429D01*
X229216667Y-97473810D01*
X229264286Y-97426190D01*
X229311905Y-97330952D01*
X232557143Y-77842857D02*
X232604762Y-77890476D01*
X232652381Y-78033333D01*
X232652381Y-78128571D01*
X232604762Y-78271429D01*
X232509524Y-78366667D01*
X232414286Y-78414286D01*
X232223810Y-78461905D01*
X232080952Y-78461905D01*
X231890476Y-78414286D01*
X231795238Y-78366667D01*
X231700000Y-78271429D01*
X231652381Y-78128571D01*
X231652381Y-78033333D01*
X231700000Y-77890476D01*
X231747619Y-77842857D01*
X232652381Y-76890476D02*
X232652381Y-77461905D01*
X232652381Y-77176191D02*
X231652381Y-77176191D01*
X231795238Y-77271429D01*
X231890476Y-77366667D01*
X231938095Y-77461905D01*
X231985714Y-76033333D02*
X232652381Y-76033333D01*
X231604762Y-76271429D02*
X232319048Y-76509524D01*
X232319048Y-75890476D01*
X230307143Y-75992857D02*
X230354762Y-76040476D01*
X230402381Y-76183333D01*
X230402381Y-76278571D01*
X230354762Y-76421429D01*
X230259524Y-76516667D01*
X230164286Y-76564286D01*
X229973810Y-76611905D01*
X229830952Y-76611905D01*
X229640476Y-76564286D01*
X229545238Y-76516667D01*
X229450000Y-76421429D01*
X229402381Y-76278571D01*
X229402381Y-76183333D01*
X229450000Y-76040476D01*
X229497619Y-75992857D01*
X230402381Y-75040476D02*
X230402381Y-75611905D01*
X230402381Y-75326191D02*
X229402381Y-75326191D01*
X229545238Y-75421429D01*
X229640476Y-75516667D01*
X229688095Y-75611905D01*
X229402381Y-74183333D02*
X229402381Y-74373810D01*
X229450000Y-74469048D01*
X229497619Y-74516667D01*
X229640476Y-74611905D01*
X229830952Y-74659524D01*
X230211905Y-74659524D01*
X230307143Y-74611905D01*
X230354762Y-74564286D01*
X230402381Y-74469048D01*
X230402381Y-74278571D01*
X230354762Y-74183333D01*
X230307143Y-74135714D01*
X230211905Y-74088095D01*
X229973810Y-74088095D01*
X229878571Y-74135714D01*
X229830952Y-74183333D01*
X229783333Y-74278571D01*
X229783333Y-74469048D01*
X229830952Y-74564286D01*
X229878571Y-74611905D01*
X229973810Y-74659524D01*
X236604095Y-76361381D02*
X236604095Y-77170905D01*
X236651714Y-77266143D01*
X236699333Y-77313762D01*
X236794571Y-77361381D01*
X236985048Y-77361381D01*
X237080286Y-77313762D01*
X237127905Y-77266143D01*
X237175524Y-77170905D01*
X237175524Y-76361381D01*
X237604095Y-76456619D02*
X237651714Y-76409000D01*
X237746952Y-76361381D01*
X237985048Y-76361381D01*
X238080286Y-76409000D01*
X238127905Y-76456619D01*
X238175524Y-76551857D01*
X238175524Y-76647095D01*
X238127905Y-76789952D01*
X237556476Y-77361381D01*
X238175524Y-77361381D01*
X162657143Y-142502381D02*
X162323809Y-142026190D01*
X162085714Y-142502381D02*
X162085714Y-141502381D01*
X162466667Y-141502381D01*
X162561905Y-141550000D01*
X162609524Y-141597619D01*
X162657143Y-141692857D01*
X162657143Y-141835714D01*
X162609524Y-141930952D01*
X162561905Y-141978571D01*
X162466667Y-142026190D01*
X162085714Y-142026190D01*
X163609524Y-142502381D02*
X163038095Y-142502381D01*
X163323809Y-142502381D02*
X163323809Y-141502381D01*
X163228571Y-141645238D01*
X163133333Y-141740476D01*
X163038095Y-141788095D01*
X164466667Y-141502381D02*
X164276190Y-141502381D01*
X164180952Y-141550000D01*
X164133333Y-141597619D01*
X164038095Y-141740476D01*
X163990476Y-141930952D01*
X163990476Y-142311905D01*
X164038095Y-142407143D01*
X164085714Y-142454762D01*
X164180952Y-142502381D01*
X164371429Y-142502381D01*
X164466667Y-142454762D01*
X164514286Y-142407143D01*
X164561905Y-142311905D01*
X164561905Y-142073810D01*
X164514286Y-141978571D01*
X164466667Y-141930952D01*
X164371429Y-141883333D01*
X164180952Y-141883333D01*
X164085714Y-141930952D01*
X164038095Y-141978571D01*
X163990476Y-142073810D01*
X153211905Y-152802381D02*
X153211905Y-151802381D01*
X153450000Y-151802381D01*
X153592858Y-151850000D01*
X153688096Y-151945238D01*
X153735715Y-152040476D01*
X153783334Y-152230952D01*
X153783334Y-152373810D01*
X153735715Y-152564286D01*
X153688096Y-152659524D01*
X153592858Y-152754762D01*
X153450000Y-152802381D01*
X153211905Y-152802381D01*
X154688096Y-151802381D02*
X154211905Y-151802381D01*
X154164286Y-152278571D01*
X154211905Y-152230952D01*
X154307143Y-152183333D01*
X154545239Y-152183333D01*
X154640477Y-152230952D01*
X154688096Y-152278571D01*
X154735715Y-152373810D01*
X154735715Y-152611905D01*
X154688096Y-152707143D01*
X154640477Y-152754762D01*
X154545239Y-152802381D01*
X154307143Y-152802381D01*
X154211905Y-152754762D01*
X154164286Y-152707143D01*
X104666667Y-114252381D02*
X104666667Y-114966667D01*
X104619047Y-115109524D01*
X104523809Y-115204762D01*
X104380952Y-115252381D01*
X104285714Y-115252381D01*
X105666667Y-115252381D02*
X105095238Y-115252381D01*
X105380952Y-115252381D02*
X105380952Y-114252381D01*
X105285714Y-114395238D01*
X105190476Y-114490476D01*
X105095238Y-114538095D01*
X104666667Y-87452381D02*
X104666667Y-88166667D01*
X104619047Y-88309524D01*
X104523809Y-88404762D01*
X104380952Y-88452381D01*
X104285714Y-88452381D01*
X105095238Y-87547619D02*
X105142857Y-87500000D01*
X105238095Y-87452381D01*
X105476191Y-87452381D01*
X105571429Y-87500000D01*
X105619048Y-87547619D01*
X105666667Y-87642857D01*
X105666667Y-87738095D01*
X105619048Y-87880952D01*
X105047619Y-88452381D01*
X105666667Y-88452381D01*
X279666667Y-122452381D02*
X279666667Y-123166667D01*
X279619047Y-123309524D01*
X279523809Y-123404762D01*
X279380952Y-123452381D01*
X279285714Y-123452381D01*
X280571429Y-122785714D02*
X280571429Y-123452381D01*
X280333333Y-122404762D02*
X280095238Y-123119048D01*
X280714286Y-123119048D01*
X254516667Y-156352381D02*
X254516667Y-157066667D01*
X254469047Y-157209524D01*
X254373809Y-157304762D01*
X254230952Y-157352381D01*
X254135714Y-157352381D01*
X255421429Y-156352381D02*
X255230952Y-156352381D01*
X255135714Y-156400000D01*
X255088095Y-156447619D01*
X254992857Y-156590476D01*
X254945238Y-156780952D01*
X254945238Y-157161905D01*
X254992857Y-157257143D01*
X255040476Y-157304762D01*
X255135714Y-157352381D01*
X255326191Y-157352381D01*
X255421429Y-157304762D01*
X255469048Y-157257143D01*
X255516667Y-157161905D01*
X255516667Y-156923810D01*
X255469048Y-156828571D01*
X255421429Y-156780952D01*
X255326191Y-156733333D01*
X255135714Y-156733333D01*
X255040476Y-156780952D01*
X254992857Y-156828571D01*
X254945238Y-156923810D01*
X229666667Y-156352381D02*
X229666667Y-157066667D01*
X229619047Y-157209524D01*
X229523809Y-157304762D01*
X229380952Y-157352381D01*
X229285714Y-157352381D01*
X230047619Y-156352381D02*
X230714286Y-156352381D01*
X230285714Y-157352381D01*
X237411905Y-100452381D02*
X237411905Y-99452381D01*
X237650000Y-99452381D01*
X237792858Y-99500000D01*
X237888096Y-99595238D01*
X237935715Y-99690476D01*
X237983334Y-99880952D01*
X237983334Y-100023810D01*
X237935715Y-100214286D01*
X237888096Y-100309524D01*
X237792858Y-100404762D01*
X237650000Y-100452381D01*
X237411905Y-100452381D01*
X238364286Y-99547619D02*
X238411905Y-99500000D01*
X238507143Y-99452381D01*
X238745239Y-99452381D01*
X238840477Y-99500000D01*
X238888096Y-99547619D01*
X238935715Y-99642857D01*
X238935715Y-99738095D01*
X238888096Y-99880952D01*
X238316667Y-100452381D01*
X238935715Y-100452381D01*
X226861905Y-100552381D02*
X226861905Y-99552381D01*
X227100000Y-99552381D01*
X227242858Y-99600000D01*
X227338096Y-99695238D01*
X227385715Y-99790476D01*
X227433334Y-99980952D01*
X227433334Y-100123810D01*
X227385715Y-100314286D01*
X227338096Y-100409524D01*
X227242858Y-100504762D01*
X227100000Y-100552381D01*
X226861905Y-100552381D01*
X227766667Y-99552381D02*
X228385715Y-99552381D01*
X228052381Y-99933333D01*
X228195239Y-99933333D01*
X228290477Y-99980952D01*
X228338096Y-100028571D01*
X228385715Y-100123810D01*
X228385715Y-100361905D01*
X228338096Y-100457143D01*
X228290477Y-100504762D01*
X228195239Y-100552381D01*
X227909524Y-100552381D01*
X227814286Y-100504762D01*
X227766667Y-100457143D01*
X224002381Y-83566666D02*
X223526190Y-83900000D01*
X224002381Y-84138095D02*
X223002381Y-84138095D01*
X223002381Y-83757142D01*
X223050000Y-83661904D01*
X223097619Y-83614285D01*
X223192857Y-83566666D01*
X223335714Y-83566666D01*
X223430952Y-83614285D01*
X223478571Y-83661904D01*
X223526190Y-83757142D01*
X223526190Y-84138095D01*
X224002381Y-82614285D02*
X224002381Y-83185714D01*
X224002381Y-82900000D02*
X223002381Y-82900000D01*
X223145238Y-82995238D01*
X223240476Y-83090476D01*
X223288095Y-83185714D01*
X221602381Y-83566666D02*
X221126190Y-83900000D01*
X221602381Y-84138095D02*
X220602381Y-84138095D01*
X220602381Y-83757142D01*
X220650000Y-83661904D01*
X220697619Y-83614285D01*
X220792857Y-83566666D01*
X220935714Y-83566666D01*
X221030952Y-83614285D01*
X221078571Y-83661904D01*
X221126190Y-83757142D01*
X221126190Y-84138095D01*
X220697619Y-83185714D02*
X220650000Y-83138095D01*
X220602381Y-83042857D01*
X220602381Y-82804761D01*
X220650000Y-82709523D01*
X220697619Y-82661904D01*
X220792857Y-82614285D01*
X220888095Y-82614285D01*
X221030952Y-82661904D01*
X221602381Y-83233333D01*
X221602381Y-82614285D01*
X203566667Y-74202381D02*
X203566667Y-74916667D01*
X203519047Y-75059524D01*
X203423809Y-75154762D01*
X203280952Y-75202381D01*
X203185714Y-75202381D01*
X203947619Y-74202381D02*
X204566667Y-74202381D01*
X204233333Y-74583333D01*
X204376191Y-74583333D01*
X204471429Y-74630952D01*
X204519048Y-74678571D01*
X204566667Y-74773810D01*
X204566667Y-75011905D01*
X204519048Y-75107143D01*
X204471429Y-75154762D01*
X204376191Y-75202381D01*
X204090476Y-75202381D01*
X203995238Y-75154762D01*
X203947619Y-75107143D01*
X181033334Y-145767143D02*
X180985715Y-145814762D01*
X180842858Y-145862381D01*
X180747620Y-145862381D01*
X180604762Y-145814762D01*
X180509524Y-145719524D01*
X180461905Y-145624286D01*
X180414286Y-145433810D01*
X180414286Y-145290952D01*
X180461905Y-145100476D01*
X180509524Y-145005238D01*
X180604762Y-144910000D01*
X180747620Y-144862381D01*
X180842858Y-144862381D01*
X180985715Y-144910000D01*
X181033334Y-144957619D01*
X181366667Y-144862381D02*
X181985715Y-144862381D01*
X181652381Y-145243333D01*
X181795239Y-145243333D01*
X181890477Y-145290952D01*
X181938096Y-145338571D01*
X181985715Y-145433810D01*
X181985715Y-145671905D01*
X181938096Y-145767143D01*
X181890477Y-145814762D01*
X181795239Y-145862381D01*
X181509524Y-145862381D01*
X181414286Y-145814762D01*
X181366667Y-145767143D01*
X156542381Y-76433333D02*
X157256667Y-76433333D01*
X157399524Y-76480953D01*
X157494762Y-76576191D01*
X157542381Y-76719048D01*
X157542381Y-76814286D01*
X157542381Y-75909524D02*
X157542381Y-75719048D01*
X157494762Y-75623809D01*
X157447143Y-75576190D01*
X157304286Y-75480952D01*
X157113810Y-75433333D01*
X156732857Y-75433333D01*
X156637619Y-75480952D01*
X156590000Y-75528571D01*
X156542381Y-75623809D01*
X156542381Y-75814286D01*
X156590000Y-75909524D01*
X156637619Y-75957143D01*
X156732857Y-76004762D01*
X156970952Y-76004762D01*
X157066190Y-75957143D01*
X157113810Y-75909524D01*
X157161429Y-75814286D01*
X157161429Y-75623809D01*
X157113810Y-75528571D01*
X157066190Y-75480952D01*
X156970952Y-75433333D01*
X180982381Y-76909523D02*
X181696667Y-76909523D01*
X181839524Y-76957143D01*
X181934762Y-77052381D01*
X181982381Y-77195238D01*
X181982381Y-77290476D01*
X181982381Y-75909523D02*
X181982381Y-76480952D01*
X181982381Y-76195238D02*
X180982381Y-76195238D01*
X181125238Y-76290476D01*
X181220476Y-76385714D01*
X181268095Y-76480952D01*
X180982381Y-75290476D02*
X180982381Y-75195237D01*
X181030000Y-75099999D01*
X181077619Y-75052380D01*
X181172857Y-75004761D01*
X181363333Y-74957142D01*
X181601429Y-74957142D01*
X181791905Y-75004761D01*
X181887143Y-75052380D01*
X181934762Y-75099999D01*
X181982381Y-75195237D01*
X181982381Y-75290476D01*
X181934762Y-75385714D01*
X181887143Y-75433333D01*
X181791905Y-75480952D01*
X181601429Y-75528571D01*
X181363333Y-75528571D01*
X181172857Y-75480952D01*
X181077619Y-75433333D01*
X181030000Y-75385714D01*
X180982381Y-75290476D01*
X130122381Y-76433333D02*
X130836667Y-76433333D01*
X130979524Y-76480953D01*
X131074762Y-76576191D01*
X131122381Y-76719048D01*
X131122381Y-76814286D01*
X130550952Y-75814286D02*
X130503333Y-75909524D01*
X130455714Y-75957143D01*
X130360476Y-76004762D01*
X130312857Y-76004762D01*
X130217619Y-75957143D01*
X130170000Y-75909524D01*
X130122381Y-75814286D01*
X130122381Y-75623809D01*
X130170000Y-75528571D01*
X130217619Y-75480952D01*
X130312857Y-75433333D01*
X130360476Y-75433333D01*
X130455714Y-75480952D01*
X130503333Y-75528571D01*
X130550952Y-75623809D01*
X130550952Y-75814286D01*
X130598571Y-75909524D01*
X130646190Y-75957143D01*
X130741429Y-76004762D01*
X130931905Y-76004762D01*
X131027143Y-75957143D01*
X131074762Y-75909524D01*
X131122381Y-75814286D01*
X131122381Y-75623809D01*
X131074762Y-75528571D01*
X131027143Y-75480952D01*
X130931905Y-75433333D01*
X130741429Y-75433333D01*
X130646190Y-75480952D01*
X130598571Y-75528571D01*
X130550952Y-75623809D01*
X245157143Y-83816666D02*
X245204762Y-83864285D01*
X245252381Y-84007142D01*
X245252381Y-84102380D01*
X245204762Y-84245238D01*
X245109524Y-84340476D01*
X245014286Y-84388095D01*
X244823810Y-84435714D01*
X244680952Y-84435714D01*
X244490476Y-84388095D01*
X244395238Y-84340476D01*
X244300000Y-84245238D01*
X244252381Y-84102380D01*
X244252381Y-84007142D01*
X244300000Y-83864285D01*
X244347619Y-83816666D01*
X245252381Y-82864285D02*
X245252381Y-83435714D01*
X245252381Y-83150000D02*
X244252381Y-83150000D01*
X244395238Y-83245238D01*
X244490476Y-83340476D01*
X244538095Y-83435714D01*
X243102381Y-83016666D02*
X242626190Y-83350000D01*
X243102381Y-83588095D02*
X242102381Y-83588095D01*
X242102381Y-83207142D01*
X242150000Y-83111904D01*
X242197619Y-83064285D01*
X242292857Y-83016666D01*
X242435714Y-83016666D01*
X242530952Y-83064285D01*
X242578571Y-83111904D01*
X242626190Y-83207142D01*
X242626190Y-83588095D01*
X242102381Y-82683333D02*
X242102381Y-82064285D01*
X242483333Y-82397619D01*
X242483333Y-82254761D01*
X242530952Y-82159523D01*
X242578571Y-82111904D01*
X242673810Y-82064285D01*
X242911905Y-82064285D01*
X243007143Y-82111904D01*
X243054762Y-82159523D01*
X243102381Y-82254761D01*
X243102381Y-82540476D01*
X243054762Y-82635714D01*
X243007143Y-82683333D01*
X104452381Y-140809523D02*
X105166667Y-140809523D01*
X105309524Y-140857143D01*
X105404762Y-140952381D01*
X105452381Y-141095238D01*
X105452381Y-141190476D01*
X105452381Y-139809523D02*
X105452381Y-140380952D01*
X105452381Y-140095238D02*
X104452381Y-140095238D01*
X104595238Y-140190476D01*
X104690476Y-140285714D01*
X104738095Y-140380952D01*
X105452381Y-138857142D02*
X105452381Y-139428571D01*
X105452381Y-139142857D02*
X104452381Y-139142857D01*
X104595238Y-139238095D01*
X104690476Y-139333333D01*
X104738095Y-139428571D01*
X122847143Y-145866666D02*
X122894762Y-145914285D01*
X122942381Y-146057142D01*
X122942381Y-146152380D01*
X122894762Y-146295238D01*
X122799524Y-146390476D01*
X122704286Y-146438095D01*
X122513810Y-146485714D01*
X122370952Y-146485714D01*
X122180476Y-146438095D01*
X122085238Y-146390476D01*
X121990000Y-146295238D01*
X121942381Y-146152380D01*
X121942381Y-146057142D01*
X121990000Y-145914285D01*
X122037619Y-145866666D01*
X121942381Y-144961904D02*
X121942381Y-145438095D01*
X122418571Y-145485714D01*
X122370952Y-145438095D01*
X122323333Y-145342857D01*
X122323333Y-145104761D01*
X122370952Y-145009523D01*
X122418571Y-144961904D01*
X122513810Y-144914285D01*
X122751905Y-144914285D01*
X122847143Y-144961904D01*
X122894762Y-145009523D01*
X122942381Y-145104761D01*
X122942381Y-145342857D01*
X122894762Y-145438095D01*
X122847143Y-145485714D01*
X142567143Y-145866666D02*
X142614762Y-145914285D01*
X142662381Y-146057142D01*
X142662381Y-146152380D01*
X142614762Y-146295238D01*
X142519524Y-146390476D01*
X142424286Y-146438095D01*
X142233810Y-146485714D01*
X142090952Y-146485714D01*
X141900476Y-146438095D01*
X141805238Y-146390476D01*
X141710000Y-146295238D01*
X141662381Y-146152380D01*
X141662381Y-146057142D01*
X141710000Y-145914285D01*
X141757619Y-145866666D01*
X141662381Y-145009523D02*
X141662381Y-145200000D01*
X141710000Y-145295238D01*
X141757619Y-145342857D01*
X141900476Y-145438095D01*
X142090952Y-145485714D01*
X142471905Y-145485714D01*
X142567143Y-145438095D01*
X142614762Y-145390476D01*
X142662381Y-145295238D01*
X142662381Y-145104761D01*
X142614762Y-145009523D01*
X142567143Y-144961904D01*
X142471905Y-144914285D01*
X142233810Y-144914285D01*
X142138571Y-144961904D01*
X142090952Y-145009523D01*
X142043333Y-145104761D01*
X142043333Y-145295238D01*
X142090952Y-145390476D01*
X142138571Y-145438095D01*
X142233810Y-145485714D01*
M02*
