G04 #@! TF.FileFunction,Copper,L2,Inr,Plane*
%FSLAX46Y46*%
G04 Gerber Fmt 4.6, Leading zero omitted, Abs format (unit mm)*
G04 Created by KiCad (PCBNEW 4.0.7) date 06/29/18 00:02:58*
%MOMM*%
%LPD*%
G01*
G04 APERTURE LIST*
%ADD10C,0.100000*%
%ADD11C,0.300000*%
%ADD12R,4.500000X2.500000*%
%ADD13O,4.500000X2.500000*%
%ADD14C,6.000000*%
%ADD15C,2.450000*%
%ADD16C,3.300000*%
%ADD17C,3.000000*%
%ADD18C,7.000000*%
%ADD19R,2.500000X4.500000*%
%ADD20O,2.500000X4.500000*%
%ADD21C,10.000000*%
%ADD22C,2.400000*%
%ADD23R,1.700000X1.700000*%
%ADD24O,1.700000X1.700000*%
%ADD25C,0.600000*%
%ADD26C,0.900000*%
%ADD27C,1.000000*%
%ADD28C,6.000000*%
%ADD29C,2.000000*%
%ADD30C,2.500000*%
%ADD31C,0.254000*%
G04 APERTURE END LIST*
D10*
D11*
X204190475Y-154004762D02*
X204190475Y-152004762D01*
X205142856Y-152671429D02*
X205142856Y-154004762D01*
X205142856Y-152861905D02*
X205238095Y-152766667D01*
X205428571Y-152671429D01*
X205714285Y-152671429D01*
X205904761Y-152766667D01*
X205999999Y-152957143D01*
X205999999Y-154004762D01*
X209428571Y-154004762D02*
X208476190Y-154004762D01*
X208476190Y-152004762D01*
X210952381Y-154004762D02*
X210952381Y-152957143D01*
X210857143Y-152766667D01*
X210666667Y-152671429D01*
X210285715Y-152671429D01*
X210095238Y-152766667D01*
X210952381Y-153909524D02*
X210761905Y-154004762D01*
X210285715Y-154004762D01*
X210095238Y-153909524D01*
X210000000Y-153719048D01*
X210000000Y-153528571D01*
X210095238Y-153338095D01*
X210285715Y-153242857D01*
X210761905Y-153242857D01*
X210952381Y-153147619D01*
X211714286Y-152671429D02*
X212190477Y-154004762D01*
X212666667Y-152671429D02*
X212190477Y-154004762D01*
X212000001Y-154480952D01*
X211904762Y-154576190D01*
X211714286Y-154671429D01*
X214190477Y-153909524D02*
X214000001Y-154004762D01*
X213619049Y-154004762D01*
X213428572Y-153909524D01*
X213333334Y-153719048D01*
X213333334Y-152957143D01*
X213428572Y-152766667D01*
X213619049Y-152671429D01*
X214000001Y-152671429D01*
X214190477Y-152766667D01*
X214285715Y-152957143D01*
X214285715Y-153147619D01*
X213333334Y-153338095D01*
X215142858Y-154004762D02*
X215142858Y-152671429D01*
X215142858Y-153052381D02*
X215238097Y-152861905D01*
X215333335Y-152766667D01*
X215523811Y-152671429D01*
X215714287Y-152671429D01*
X216380953Y-153242857D02*
X217904763Y-153242857D01*
X219904763Y-154004762D02*
X218761905Y-154004762D01*
X219333334Y-154004762D02*
X219333334Y-152004762D01*
X219142858Y-152290476D01*
X218952382Y-152480952D01*
X218761905Y-152576190D01*
D12*
X245600000Y-110450000D03*
D13*
X245600000Y-115900000D03*
X245600000Y-121350000D03*
D14*
X203600000Y-123000000D03*
X203600000Y-116000000D03*
X203600000Y-109000000D03*
X163600000Y-109000000D03*
X163600000Y-116000000D03*
X163600000Y-123000000D03*
D15*
X256380000Y-101500000D03*
X260190000Y-101500000D03*
X264000000Y-101500000D03*
X267810000Y-101500000D03*
X271620000Y-101500000D03*
X271620000Y-98500000D03*
X267810000Y-98500000D03*
X264000000Y-98500000D03*
X260190000Y-98500000D03*
X256380000Y-98500000D03*
D16*
X249180000Y-100000000D03*
X278820000Y-100000000D03*
D17*
X251680000Y-104000000D03*
X276320000Y-104000000D03*
D18*
X199000000Y-77600000D03*
X110000000Y-77600000D03*
X289600000Y-77600000D03*
X199000000Y-152600000D03*
X291172000Y-152600000D03*
X110000000Y-152600000D03*
D12*
X227500000Y-121400000D03*
D13*
X227500000Y-115950000D03*
X227500000Y-110500000D03*
D19*
X159400000Y-148900000D03*
D20*
X153950000Y-148900000D03*
X148500000Y-148900000D03*
D21*
X188600000Y-99000000D03*
X188600000Y-126200000D03*
X147400000Y-126200000D03*
X147400000Y-99000000D03*
D17*
X110000000Y-118300000D03*
X110000000Y-125300000D03*
X115000000Y-118300000D03*
X105000000Y-118300000D03*
X115000000Y-125300000D03*
X105000000Y-125300000D03*
X110000000Y-91500000D03*
X110000000Y-98500000D03*
X115000000Y-91500000D03*
X105000000Y-91500000D03*
X115000000Y-98500000D03*
X105000000Y-98500000D03*
D15*
X271620000Y-128500000D03*
X267810000Y-128500000D03*
X264000000Y-128500000D03*
X260190000Y-128500000D03*
X256380000Y-128500000D03*
X256380000Y-131500000D03*
X260190000Y-131500000D03*
X264000000Y-131500000D03*
X267810000Y-131500000D03*
X271620000Y-131500000D03*
D16*
X278820000Y-130000000D03*
X249180000Y-130000000D03*
D17*
X276320000Y-126000000D03*
X251680000Y-126000000D03*
X251400000Y-149500000D03*
X251400000Y-154500000D03*
X258400000Y-149500000D03*
X258400000Y-154500000D03*
X226500000Y-149500000D03*
X226500000Y-154500000D03*
X233500000Y-149500000D03*
X233500000Y-154500000D03*
D22*
X188700000Y-141600000D03*
X173700000Y-141600000D03*
D23*
X159420000Y-76100000D03*
D24*
X161960000Y-76100000D03*
X164500000Y-76100000D03*
X167040000Y-76100000D03*
X169580000Y-76100000D03*
X172120000Y-76100000D03*
D23*
X183860000Y-76100000D03*
D24*
X186400000Y-76100000D03*
X188940000Y-76100000D03*
X191480000Y-76100000D03*
D23*
X133000000Y-76100000D03*
D24*
X135540000Y-76100000D03*
X138080000Y-76100000D03*
X140620000Y-76100000D03*
X143160000Y-76100000D03*
X145700000Y-76100000D03*
D17*
X112500000Y-136500000D03*
X107500000Y-136500000D03*
X112500000Y-143500000D03*
X107500000Y-143500000D03*
D22*
X127800000Y-153200000D03*
X127800000Y-138200000D03*
X136900000Y-138200000D03*
X136900000Y-153200000D03*
D19*
X241200000Y-131300000D03*
D20*
X230300000Y-131300000D03*
D25*
X242500000Y-104200000D03*
X242500000Y-103500000D03*
X243200000Y-104200000D03*
X243200000Y-103500000D03*
X243200000Y-104900000D03*
X242500000Y-104900000D03*
X224100000Y-105100000D03*
X224800000Y-105100000D03*
X224100000Y-103700000D03*
X224100000Y-104400000D03*
X224800000Y-104400000D03*
X224800000Y-103700000D03*
X241600000Y-81300000D03*
X241600000Y-80680000D03*
D26*
X233000000Y-84100000D03*
X227100000Y-81900000D03*
X213200000Y-78800000D03*
X212600000Y-74600000D03*
D25*
X260500000Y-81100000D03*
X235500000Y-92600000D03*
X274000000Y-80600000D03*
X223500000Y-75100000D03*
X223800000Y-92600000D03*
X225500000Y-77100000D03*
X280850000Y-78500000D03*
X265390434Y-78490434D03*
X249948879Y-81905730D03*
X250000000Y-81000000D03*
X249310000Y-82300000D03*
X249300000Y-81000000D03*
X228000000Y-78350000D03*
X228000000Y-79100000D03*
X227300000Y-79100000D03*
X227300000Y-78350000D03*
X215500000Y-78550000D03*
X214900000Y-77950000D03*
D26*
X208800000Y-78600000D03*
D25*
X234800000Y-103400000D03*
X234800000Y-104100000D03*
X234800000Y-104800000D03*
X235500000Y-104800000D03*
X235500000Y-104100000D03*
X235500000Y-103400000D03*
X232200000Y-104100000D03*
X231600000Y-104100000D03*
X231600000Y-103500000D03*
X232200000Y-103500000D03*
X241900000Y-99600000D03*
X241200000Y-99600000D03*
X240500000Y-99600000D03*
X240500000Y-100300000D03*
X241200000Y-100300000D03*
X241900000Y-100300000D03*
X224100000Y-101200000D03*
X224100000Y-101900000D03*
X224100000Y-102600000D03*
X224800000Y-102600000D03*
X224800000Y-101900000D03*
X224800000Y-101200000D03*
X238400000Y-81200000D03*
X238400000Y-80500000D03*
X238400000Y-79800000D03*
X245500000Y-75600000D03*
X244000000Y-75600000D03*
X244800000Y-75600000D03*
D27*
X231600000Y-92600000D02*
X230900000Y-92600000D01*
X229300000Y-75100000D02*
X226338491Y-75100000D01*
X230900000Y-92600000D02*
X230400000Y-92100000D01*
X230400000Y-92100000D02*
X230400000Y-76200000D01*
X230400000Y-76200000D02*
X229300000Y-75100000D01*
X226338491Y-75100000D02*
X223500000Y-75100000D01*
X235500000Y-92600000D02*
X231600000Y-92600000D01*
X231600000Y-92600000D02*
X231500000Y-92600000D01*
X223800000Y-92600000D02*
X228300000Y-92600000D01*
X228300000Y-92600000D02*
X228900000Y-92000000D01*
X228900000Y-92000000D02*
X228900000Y-77600000D01*
X228900000Y-77600000D02*
X228400000Y-77100000D01*
X228400000Y-77100000D02*
X226500000Y-77100000D01*
X226500000Y-77100000D02*
X225500000Y-77100000D01*
D28*
X175500000Y-112100000D02*
X175500000Y-139800000D01*
X175500000Y-139800000D02*
X173700000Y-141600000D01*
X188600000Y-99000000D02*
X175500000Y-112100000D01*
D27*
X280850000Y-78500000D02*
X278750000Y-76400000D01*
X278750000Y-76400000D02*
X267480868Y-76400000D01*
X267480868Y-76400000D02*
X265390434Y-78490434D01*
D29*
X249310000Y-77260000D02*
X249310000Y-81630000D01*
X244850000Y-72800000D02*
X247100000Y-75050000D01*
X172880000Y-72800000D02*
X244850000Y-72800000D01*
X172380001Y-73299999D02*
X172880000Y-72800000D01*
X247100000Y-75050000D02*
X249310000Y-77260000D01*
D27*
X169580000Y-76100000D02*
X172380001Y-73299999D01*
X127800000Y-134300000D02*
X127800000Y-138200000D01*
D30*
X136900000Y-99000000D02*
X127800000Y-108100000D01*
X127800000Y-108100000D02*
X127800000Y-134300000D01*
X147400000Y-99000000D02*
X136900000Y-99000000D01*
D27*
X136900000Y-134400000D02*
X136900000Y-138200000D01*
D30*
X136900000Y-129628933D02*
X136900000Y-134400000D01*
X147400000Y-126200000D02*
X140328933Y-126200000D01*
X140328933Y-126200000D02*
X136900000Y-129628933D01*
D27*
X136900000Y-136700000D02*
X136900000Y-138200000D01*
D31*
G36*
X243373000Y-102784651D02*
X243345244Y-102773126D01*
X243056025Y-102772874D01*
X242849822Y-102858075D01*
X242645244Y-102773126D01*
X242356025Y-102772874D01*
X242113701Y-102873000D01*
X236001156Y-102873000D01*
X235912350Y-102784039D01*
X235645244Y-102673126D01*
X235356025Y-102672874D01*
X235149822Y-102758075D01*
X234945244Y-102673126D01*
X234656025Y-102672874D01*
X234388725Y-102783320D01*
X234298889Y-102873000D01*
X232585765Y-102873000D01*
X232345244Y-102773126D01*
X232056025Y-102772874D01*
X231899946Y-102837364D01*
X231745244Y-102773126D01*
X231456025Y-102772874D01*
X231213701Y-102873000D01*
X223627000Y-102873000D01*
X223627000Y-96627000D01*
X236500000Y-96627000D01*
X236549410Y-96616994D01*
X236591035Y-96588553D01*
X236618315Y-96546159D01*
X236627000Y-96500000D01*
X236627000Y-80823975D01*
X240872874Y-80823975D01*
X240941507Y-80990079D01*
X240873126Y-81154756D01*
X240872874Y-81443975D01*
X240983320Y-81711275D01*
X241187650Y-81915961D01*
X241454756Y-82026874D01*
X241743975Y-82027126D01*
X242011275Y-81916680D01*
X242215961Y-81712350D01*
X242326874Y-81445244D01*
X242327126Y-81156025D01*
X242258493Y-80989921D01*
X242326874Y-80825244D01*
X242327126Y-80536025D01*
X242216680Y-80268725D01*
X242012350Y-80064039D01*
X241745244Y-79953126D01*
X241456025Y-79952874D01*
X241188725Y-80063320D01*
X240984039Y-80267650D01*
X240873126Y-80534756D01*
X240872874Y-80823975D01*
X236627000Y-80823975D01*
X236627000Y-78127000D01*
X243373000Y-78127000D01*
X243373000Y-102784651D01*
X243373000Y-102784651D01*
G37*
X243373000Y-102784651D02*
X243345244Y-102773126D01*
X243056025Y-102772874D01*
X242849822Y-102858075D01*
X242645244Y-102773126D01*
X242356025Y-102772874D01*
X242113701Y-102873000D01*
X236001156Y-102873000D01*
X235912350Y-102784039D01*
X235645244Y-102673126D01*
X235356025Y-102672874D01*
X235149822Y-102758075D01*
X234945244Y-102673126D01*
X234656025Y-102672874D01*
X234388725Y-102783320D01*
X234298889Y-102873000D01*
X232585765Y-102873000D01*
X232345244Y-102773126D01*
X232056025Y-102772874D01*
X231899946Y-102837364D01*
X231745244Y-102773126D01*
X231456025Y-102772874D01*
X231213701Y-102873000D01*
X223627000Y-102873000D01*
X223627000Y-96627000D01*
X236500000Y-96627000D01*
X236549410Y-96616994D01*
X236591035Y-96588553D01*
X236618315Y-96546159D01*
X236627000Y-96500000D01*
X236627000Y-80823975D01*
X240872874Y-80823975D01*
X240941507Y-80990079D01*
X240873126Y-81154756D01*
X240872874Y-81443975D01*
X240983320Y-81711275D01*
X241187650Y-81915961D01*
X241454756Y-82026874D01*
X241743975Y-82027126D01*
X242011275Y-81916680D01*
X242215961Y-81712350D01*
X242326874Y-81445244D01*
X242327126Y-81156025D01*
X242258493Y-80989921D01*
X242326874Y-80825244D01*
X242327126Y-80536025D01*
X242216680Y-80268725D01*
X242012350Y-80064039D01*
X241745244Y-79953126D01*
X241456025Y-79952874D01*
X241188725Y-80063320D01*
X240984039Y-80267650D01*
X240873126Y-80534756D01*
X240872874Y-80823975D01*
X236627000Y-80823975D01*
X236627000Y-78127000D01*
X243373000Y-78127000D01*
X243373000Y-102784651D01*
G36*
X223373126Y-103554756D02*
X223372874Y-103843975D01*
X223458075Y-104050178D01*
X223373126Y-104254756D01*
X223372874Y-104543975D01*
X223458075Y-104750178D01*
X223373126Y-104954756D01*
X223372874Y-105243975D01*
X223483320Y-105511275D01*
X223687650Y-105715961D01*
X223954756Y-105826874D01*
X224243975Y-105827126D01*
X224450178Y-105741925D01*
X224654756Y-105826874D01*
X224943975Y-105827126D01*
X225211275Y-105716680D01*
X225415961Y-105512350D01*
X225526874Y-105245244D01*
X225527126Y-104956025D01*
X225441925Y-104749822D01*
X225526874Y-104545244D01*
X225527126Y-104256025D01*
X225441925Y-104049822D01*
X225526874Y-103845244D01*
X225527126Y-103556025D01*
X225432495Y-103327000D01*
X232373000Y-103327000D01*
X232373000Y-107673000D01*
X229800000Y-107673000D01*
X229750590Y-107683006D01*
X229708965Y-107711447D01*
X229681685Y-107753841D01*
X229673000Y-107800000D01*
X229673000Y-109270574D01*
X229194206Y-108950654D01*
X228552446Y-108823000D01*
X226447554Y-108823000D01*
X225805794Y-108950654D01*
X225261736Y-109314182D01*
X224898208Y-109858240D01*
X224770554Y-110500000D01*
X224898208Y-111141760D01*
X225261736Y-111685818D01*
X225391519Y-111772537D01*
X224719653Y-111906179D01*
X223299652Y-112854994D01*
X222350837Y-114274995D01*
X222017658Y-115950000D01*
X222350837Y-117625005D01*
X223299652Y-119045006D01*
X224719653Y-119993821D01*
X226394658Y-120327000D01*
X228605342Y-120327000D01*
X229673000Y-120114630D01*
X229673000Y-122773000D01*
X216827000Y-122773000D01*
X216827000Y-103327000D01*
X223467699Y-103327000D01*
X223373126Y-103554756D01*
X223373126Y-103554756D01*
G37*
X223373126Y-103554756D02*
X223372874Y-103843975D01*
X223458075Y-104050178D01*
X223373126Y-104254756D01*
X223372874Y-104543975D01*
X223458075Y-104750178D01*
X223373126Y-104954756D01*
X223372874Y-105243975D01*
X223483320Y-105511275D01*
X223687650Y-105715961D01*
X223954756Y-105826874D01*
X224243975Y-105827126D01*
X224450178Y-105741925D01*
X224654756Y-105826874D01*
X224943975Y-105827126D01*
X225211275Y-105716680D01*
X225415961Y-105512350D01*
X225526874Y-105245244D01*
X225527126Y-104956025D01*
X225441925Y-104749822D01*
X225526874Y-104545244D01*
X225527126Y-104256025D01*
X225441925Y-104049822D01*
X225526874Y-103845244D01*
X225527126Y-103556025D01*
X225432495Y-103327000D01*
X232373000Y-103327000D01*
X232373000Y-107673000D01*
X229800000Y-107673000D01*
X229750590Y-107683006D01*
X229708965Y-107711447D01*
X229681685Y-107753841D01*
X229673000Y-107800000D01*
X229673000Y-109270574D01*
X229194206Y-108950654D01*
X228552446Y-108823000D01*
X226447554Y-108823000D01*
X225805794Y-108950654D01*
X225261736Y-109314182D01*
X224898208Y-109858240D01*
X224770554Y-110500000D01*
X224898208Y-111141760D01*
X225261736Y-111685818D01*
X225391519Y-111772537D01*
X224719653Y-111906179D01*
X223299652Y-112854994D01*
X222350837Y-114274995D01*
X222017658Y-115950000D01*
X222350837Y-117625005D01*
X223299652Y-119045006D01*
X224719653Y-119993821D01*
X226394658Y-120327000D01*
X228605342Y-120327000D01*
X229673000Y-120114630D01*
X229673000Y-122773000D01*
X216827000Y-122773000D01*
X216827000Y-103327000D01*
X223467699Y-103327000D01*
X223373126Y-103554756D01*
G36*
X238273000Y-109300000D02*
X238283006Y-109349410D01*
X238311447Y-109391035D01*
X238353841Y-109418315D01*
X238400000Y-109427000D01*
X247773000Y-109427000D01*
X247773000Y-111573000D01*
X246956709Y-111573000D01*
X246705342Y-111523000D01*
X244494658Y-111523000D01*
X244243291Y-111573000D01*
X234627000Y-111573000D01*
X234627000Y-103227000D01*
X238273000Y-103227000D01*
X238273000Y-109300000D01*
X238273000Y-109300000D01*
G37*
X238273000Y-109300000D02*
X238283006Y-109349410D01*
X238311447Y-109391035D01*
X238353841Y-109418315D01*
X238400000Y-109427000D01*
X247773000Y-109427000D01*
X247773000Y-111573000D01*
X246956709Y-111573000D01*
X246705342Y-111523000D01*
X244494658Y-111523000D01*
X244243291Y-111573000D01*
X234627000Y-111573000D01*
X234627000Y-103227000D01*
X238273000Y-103227000D01*
X238273000Y-109300000D01*
M02*
