G04 #@! TF.FileFunction,Legend,Bot*
%FSLAX46Y46*%
G04 Gerber Fmt 4.6, Leading zero omitted, Abs format (unit mm)*
G04 Created by KiCad (PCBNEW 4.0.7) date 06/29/18 00:02:58*
%MOMM*%
%LPD*%
G01*
G04 APERTURE LIST*
%ADD10C,0.100000*%
%ADD11C,0.120000*%
%ADD12C,0.150000*%
%ADD13C,0.500000*%
G04 APERTURE END LIST*
D10*
D11*
X243149000Y-107830000D02*
X243149000Y-123970000D01*
X248420000Y-107830000D02*
X248420000Y-123970000D01*
X243149000Y-107830000D02*
X248420000Y-107830000D01*
X243149000Y-123970000D02*
X248420000Y-123970000D01*
X243149000Y-114096000D02*
X248420000Y-114096000D01*
X243149000Y-117705000D02*
X248420000Y-117705000D01*
X229951000Y-124020000D02*
X229951000Y-107880000D01*
X224680000Y-124020000D02*
X224680000Y-107880000D01*
X229951000Y-124020000D02*
X224680000Y-124020000D01*
X229951000Y-107880000D02*
X224680000Y-107880000D01*
X229951000Y-117754000D02*
X224680000Y-117754000D01*
X229951000Y-114145000D02*
X224680000Y-114145000D01*
D12*
X148040812Y-112600000D02*
G75*
G03X148040812Y-112600000I-3940812J0D01*
G01*
X146575884Y-112600000D02*
G75*
G03X146575884Y-112600000I-2475884J0D01*
G01*
D13*
X196750000Y-134800000D02*
X139250000Y-134800000D01*
X196750000Y-134800000D02*
X196750000Y-90400000D01*
X139250000Y-134800000D02*
X139250000Y-90400000D01*
X196750000Y-90400000D02*
X139250000Y-90400000D01*
D12*
X194375884Y-112600000D02*
G75*
G03X194375884Y-112600000I-2475884J0D01*
G01*
X195840812Y-112600000D02*
G75*
G03X195840812Y-112600000I-3940812J0D01*
G01*
D11*
X243820000Y-128849000D02*
X227680000Y-128849000D01*
X243820000Y-134120000D02*
X227680000Y-134120000D01*
X243820000Y-128849000D02*
X243820000Y-134120000D01*
X227680000Y-128849000D02*
X227680000Y-134120000D01*
X237554000Y-128849000D02*
X237554000Y-134120000D01*
X233945000Y-128849000D02*
X233945000Y-134120000D01*
D12*
X242697619Y-115804762D02*
X242650000Y-115709524D01*
X242554762Y-115614286D01*
X242411905Y-115471429D01*
X242364286Y-115376190D01*
X242364286Y-115280952D01*
X242602381Y-115328571D02*
X242554762Y-115233333D01*
X242459524Y-115138095D01*
X242269048Y-115090476D01*
X241935714Y-115090476D01*
X241745238Y-115138095D01*
X241650000Y-115233333D01*
X241602381Y-115328571D01*
X241602381Y-115519048D01*
X241650000Y-115614286D01*
X241745238Y-115709524D01*
X241935714Y-115757143D01*
X242269048Y-115757143D01*
X242459524Y-115709524D01*
X242554762Y-115614286D01*
X242602381Y-115519048D01*
X242602381Y-115328571D01*
X242602381Y-116709524D02*
X242602381Y-116138095D01*
X242602381Y-116423809D02*
X241602381Y-116423809D01*
X241745238Y-116328571D01*
X241840476Y-116233333D01*
X241888095Y-116138095D01*
X231497619Y-115854762D02*
X231450000Y-115759524D01*
X231354762Y-115664286D01*
X231211905Y-115521429D01*
X231164286Y-115426190D01*
X231164286Y-115330952D01*
X231402381Y-115378571D02*
X231354762Y-115283333D01*
X231259524Y-115188095D01*
X231069048Y-115140476D01*
X230735714Y-115140476D01*
X230545238Y-115188095D01*
X230450000Y-115283333D01*
X230402381Y-115378571D01*
X230402381Y-115569048D01*
X230450000Y-115664286D01*
X230545238Y-115759524D01*
X230735714Y-115807143D01*
X231069048Y-115807143D01*
X231259524Y-115759524D01*
X231354762Y-115664286D01*
X231402381Y-115569048D01*
X231402381Y-115378571D01*
X230497619Y-116188095D02*
X230450000Y-116235714D01*
X230402381Y-116330952D01*
X230402381Y-116569048D01*
X230450000Y-116664286D01*
X230497619Y-116711905D01*
X230592857Y-116759524D01*
X230688095Y-116759524D01*
X230830952Y-116711905D01*
X231402381Y-116140476D01*
X231402381Y-116759524D01*
X141738095Y-137052381D02*
X141738095Y-136052381D01*
X141500000Y-136052381D01*
X141357142Y-136100000D01*
X141261904Y-136195238D01*
X141214285Y-136290476D01*
X141166666Y-136480952D01*
X141166666Y-136623810D01*
X141214285Y-136814286D01*
X141261904Y-136909524D01*
X141357142Y-137004762D01*
X141500000Y-137052381D01*
X141738095Y-137052381D01*
X140214285Y-137052381D02*
X140785714Y-137052381D01*
X140500000Y-137052381D02*
X140500000Y-136052381D01*
X140595238Y-136195238D01*
X140690476Y-136290476D01*
X140785714Y-136338095D01*
X236488095Y-128302381D02*
X236488095Y-127302381D01*
X236250000Y-127302381D01*
X236107142Y-127350000D01*
X236011904Y-127445238D01*
X235964285Y-127540476D01*
X235916666Y-127730952D01*
X235916666Y-127873810D01*
X235964285Y-128064286D01*
X236011904Y-128159524D01*
X236107142Y-128254762D01*
X236250000Y-128302381D01*
X236488095Y-128302381D01*
X235059523Y-127635714D02*
X235059523Y-128302381D01*
X235297619Y-127254762D02*
X235535714Y-127969048D01*
X234916666Y-127969048D01*
M02*
